<?xml version="1.0" standalone="no"?>
<!DOCTYPE svg PUBLIC "-//W3C//DTD SVG 1.1//EN" "http://www.w3.org/Graphics/SVG/1.1/DTD/svg11.dtd" >
<svg>
<metadata>
Created by FontForge 20090914 at Tue Jul 18 14:00:38 2017
 By www-data
COPYRIGHT ESSELTE LETRASET LTD., 1990 
</metadata>
<defs>
<font id="ShatterLetPlain" horiz-adv-x="819" >
  <font-face 
    font-family="Shatter LET"
    font-weight="5"
    font-stretch="normal"
    units-per-em="2048"
    panose-1="0 0 0 0 0 0 0 0 0 0"
    ascent="1638"
    descent="-410"
    x-height="963"
    cap-height="1377"
    bbox="-246 -452 2449.99 1791"
    underline-thickness="180"
    underline-position="-182"
    unicode-range="U+0020-U+F002"
  />
<missing-glyph horiz-adv-x="1024" 
d="M82 1365h860v-1365h-860v1365zM123 1324v-1283h778v1283h-778z" />
    <glyph glyph-name=".notdef" horiz-adv-x="1024" 
d="M82 1365h860v-1365h-860v1365zM123 1324v-1283h778v1283h-778z" />
    <glyph glyph-name="space" unicode=" " horiz-adv-x="441" 
 />
    <glyph glyph-name="exclam" unicode="!" horiz-adv-x="601" 
d="M418 674l-62.998 -254l-90 -16l17 190l17 31c51.333 97.333 97.333 178 138 242c34 54 67 101.333 99 142c-28.667 -57.333 -53.334 -119 -74.001 -185c-16.667 -48.667 -31.334 -98.667 -44.001 -150zM51.002 1023l55.999 304l149 37l-1 -29l-17 -28
c-55.333 -95.333 -117.666 -190 -186.999 -284zM199.001 487l-54.002 -13.001c1.33301 13.333 2.33301 31.333 3 54c0.666992 17.333 2.33398 37 5.00098 59c0.666992 8.66699 1.5 18 2.5 28s1.5 18.333 1.5 25c6.66699 72 12.334 127 17.001 165l57 448l194 41l-9 -40
c-21.333 -100 -39 -178 -53 -234c-24 -98 -41.667 -167 -53 -207c-27.333 -103.333 -52 -188.666 -74 -255.999zM143.999 392.999l-93 -131l25 107zM381.999 342.999l-31 -225l-192 -44l39 224z" />
    <glyph glyph-name="quotedbl" unicode="&#x22;" horiz-adv-x="597" 
d="M456 972l-83 -24l53 361l140 41zM533 923l-101 -28l139 380l56 21zM181 972l-82 -24l53 361l140 41zM259 923l-101 -28l138 380l57 21z" />
    <glyph glyph-name="numbersign" unicode="#" 
d="M82 1351v-1337h655v1337h-655zM751 0h-683v1365h683v-1365z" />
    <glyph glyph-name="dollar" unicode="$" horiz-adv-x="1122" 
d="M274 999l99 160.999c-30 -14 -54 -34.333 -72 -61c-18.667 -26.667 -28 -54.667 -28 -84c0 -7.33301 0.333008 -12.666 1 -15.999zM505 866.999l45 242.998c-44.667 -15.333 -79.667 -37.666 -105 -66.999c-26.667 -29.333 -40 -62.333 -40 -99
c0 -25.333 7.66699 -43.666 23 -54.999c16 -12 41.667 -19.333 77 -22zM874 467.997l-169.999 -276.003c59.333 18.667 105.666 46.334 138.999 83.001c32.667 34.667 49 75.334 49 122.001c0 20.667 -6 44.334 -18 71.001zM660.001 559.994l-50 -275
c104.667 38.667 157 96.667 157 174c0 27.333 -8 48.333 -24 63c-18 16 -45.667 28.667 -83 38zM670.001 -123.006l-73.9971 -14.002l21 119l-31 -8l84 148c-26.667 -14.667 -59.667 -28.334 -99 -41.001l-24 -125l-72 -19l23 125c-24.667 -2 -42.334 -3 -53.001 -3
c-52.667 0 -95.667 10.667 -129 32c-32.667 20.667 -59 54.334 -79 101.001l-26 -38c-23.333 16 -44 36 -62 60c-16.667 22 -28.667 47.667 -36 77c-8 29.333 -12 61.333 -12 96c0 -6.66699 0.666992 11.333 2 54l190 47v-26c0 -31.333 3 -55 9 -71
c5.33301 -15.333 16 -29.666 32 -42.999l29 45l56 15c-2 -30 -3 -43.333 -3 -40c0 -68.667 28.667 -103 86 -103c6.66699 0 17.667 1.33301 33 4l53 300l-90 10l-7 23l-44 -68l17 99l-32 5c-82 14.667 -140 36 -174 64c-34 27.333 -51 66.666 -51 117.999
c0 25.333 6 59 18 101l-107 -143c-24 42 -36 87.333 -36 136c0 66 17.667 133.333 53 202c35.333 68 82.333 125.333 141 172c22 18 48 35.333 78 52c35.333 18 71.666 34.333 108.999 49l20 80l68 18l-5 -32l-144 -245c71.333 49.333 132.666 82.333 183.999 99l16 87
l74 17l-14 -88c24.667 3.33301 42 5 52 5c65.333 0 125 -31.333 179 -94l7 11c48.667 -22 82.667 -48.667 102 -80s29 -75.666 29 -132.999c0 -5.33301 -1.66699 -28.666 -5 -69.999l-182 -44c-2 44 -7.66699 75.333 -17 94c-10 17.333 -28 29.666 -54 36.999l-36 -54h-18
c0.666992 4.66699 1 13.667 1 27c0 32 -7 57 -21 75c-14.667 18 -34.334 27 -59.001 27c-8 0 -13.333 -0.333008 -16 -1l-50 -269l72 -9l90 127h5l-43 -188l31 -5c88.667 -16 149.334 -35.333 182.001 -58s54 -59.667 64 -111l46 55
c27.333 -23.333 46.666 -47.333 57.999 -72c10.667 -23.333 16 -53.333 16 -90c0 -66 -17 -134 -51 -204c-34 -70.667 -78.333 -130.667 -133 -180c-55.333 -49.333 -127.666 -87.666 -216.999 -114.999z" />
    <glyph glyph-name="percent" unicode="%" horiz-adv-x="1672" 
d="M706 1085l-182.001 -303c114.667 73.333 175.334 174.333 182.001 303zM236.999 919l99.9971 157.001c-11.333 -38 -17 -72.333 -17 -103c0 -80 28 -120 84 -120c32.667 0 64.334 14.333 95.001 43c30.667 30 55.334 67.667 74.001 113s28 92 28 140
c0 40.667 -7.66699 71.667 -23 93s-37.666 32 -66.999 32c-16.667 0 -35.667 -6 -57 -18l-4 -2c-1.33301 0 -2.5 -0.5 -3.5 -1.5s-2.16699 -1.83301 -3.5 -2.5c-1.33301 0 -2.33301 -0.333008 -3 -1s-2.33398 -1.66699 -5.00098 -3l35 63
c-17.333 12.667 -35.666 19 -54.999 19c-34 0 -66 -14 -96 -42s-54.667 -66.333 -74 -115s-29 -97.334 -29 -146.001c0 -40.667 7 -76 21 -106zM1495 375.001l-182.001 -303c112.667 71.333 173.334 172.333 182.001 303zM1026 209.001l99.9971 157.002
c-12 -38.667 -18 -73.334 -18 -104.001c0 -79.333 28 -119 84 -119c32.667 0 64.334 14.333 95.001 43s55.334 66 74.001 112c19.333 48 29 95 29 141c0 41.333 -7.66699 72.666 -23 93.999s-37.666 32 -66.999 32c-16.667 0 -35.667 -6.33301 -57 -19l-2.5 -1
c-1.66699 -0.666992 -3.83398 -1.66699 -6.50098 -3c-4 -2.66699 -7.66699 -4.66699 -11 -6l35 63c-17.333 12.667 -35.666 19 -54.999 19c-33.333 0 -65.333 -14.333 -96 -43c-31.333 -29.333 -56 -67.333 -74 -114c-18.667 -47.333 -28 -96.333 -28 -147
c0 -40 7 -75 21 -105zM191.992 848.003l-41.0029 -56.002c-46 63.333 -69 130 -69 200c0 58.667 11 116.334 33 173.001c22 57.333 52 109.333 90 156c36.667 45.333 78.334 82 125.001 110c45.333 26 91 39 137 39c22.667 0 50.334 -5 83.001 -15l-27 -49c26 4 43 6 51 6
c50.667 0 92 -20 124 -60c31.333 -40.667 47 -93.667 47 -159c0 -11.333 -1 -28.666 -3 -51.999l83 117c11.333 -42 17 -81.333 17 -118c0 -72 -15.333 -142 -46 -210c-31.333 -70 -74 -130 -128 -180c-29.333 -25.333 -58.666 -45.333 -87.999 -60
c-30 -14.667 -71.333 -28 -124 -40l60 116c-68.667 -35.333 -125 -53 -169 -53c-77.333 0 -129 45 -155 135zM979.989 138.001l-41.002 -56.002c-46 63.333 -69 130 -69 200c0 58.667 11 116.334 33 173.001c22 57.333 52 109.333 90 156c36.667 46 78.667 82.667 126 110
c46 26 91.667 39 137 39c20.667 0 48 -4.66699 82 -14l-26 -49c23.333 3.33301 40 5 50 5c33.333 0 63.333 -9.33301 90 -28c26.667 -19.333 46.667 -45 60 -77c14 -32.667 21 -70.334 21 -113.001c0 6 -0.666992 -11.667 -2 -53l83 117c11.333 -42 17 -81.333 17 -118
c0 -46.667 -7 -94 -21 -142c-15.333 -49.333 -35.666 -94.333 -60.999 -135c-26.667 -41.333 -57.667 -78.666 -93 -111.999c-26.667 -24.667 -54.667 -44 -84 -58c-29.333 -15.333 -71.666 -29.666 -126.999 -42.999l59 116c-68.667 -35.333 -125 -53 -169 -53
c-38.667 0 -70.667 11 -96 33c-25.333 21.333 -45 55.333 -59 102zM1098.99 1431l193 46l-377 -339h-27zM484.987 7.99902l-194 -44l408 552l-156 -100l667 948l179 47l-621 -873l141 90z" />
    <glyph glyph-name="ampersand" unicode="&#x26;" horiz-adv-x="1220" 
d="M595 768l16 -35l75 121zM522 898c80 63.333 120 120.999 120 172.999c0 14.667 -4.66699 26.667 -14 36s-21.333 14 -36 14c-28 0 -52 -11.667 -72 -35c-20.667 -23.333 -31 -51.666 -31 -84.999c0 -24.667 11 -59 33 -103zM646 376.999l-92 180.999l-61 -42l-61 122
c-62.667 -49.333 -107.334 -91.666 -134.001 -126.999c-28 -36.667 -42 -73 -42 -109c0 -23.333 7.33301 -43.333 22 -60c15.333 -17.333 32.333 -26 51 -26c5.33301 0 15.333 1.66699 30 5l32 48c-6.66699 -22 -10 -40 -10 -54c0 -20 6.33301 -36.333 19 -49
s29.334 -19 50.001 -19c26 0 55.333 11 88 33c30.667 20 66.667 52.333 108 97zM985 329.998l106.003 -217.995l-207 -41l-47 87l-20 -17c-57.333 -50.667 -115 -96.334 -173 -137.001c15.333 32 34.666 69 57.999 111l30 54l13 23l-25 41
c-59.333 -49.333 -102 -82.333 -128 -99c-81.333 -54.667 -161.333 -82 -240 -82c-27.333 0 -49 4 -65 12s-38.667 26.667 -68 56c-50.667 14 -88.667 37 -114 69c-24.667 31.333 -37 74 -37 128c0 76 20 147.333 60 214c40 67.333 107 140.333 201 219l30 25
c-14.667 34 -24.334 60.333 -29.001 79c-6 19.333 -9 38.666 -9 57.999c0 42 13 93 39 153l-142 -182c-16 48 -24 91 -24 129c0 46 9 90.333 27 133c16 41.333 40.333 79.666 73 114.999c30 33.333 65.667 60.666 107 81.999c40 20 80.333 30 121 30h19l-101 -182
c63.333 70 131.666 105 204.999 105c31.333 0 58.666 -6.66699 81.999 -20c22.667 -12.667 40.667 -32.334 54 -59.001c12.667 -25.333 19 -54.333 19 -87c0 -28.667 -4 -56.667 -12 -84c-8.66699 -30 -23 -63.333 -43 -100l161 214c13.333 -34 20 -66.333 20 -97
c0 -39.333 -6 -76 -18 -110s-32 -71 -60 -111c-29.333 -42 -64.666 -83.667 -105.999 -125l-25 -26l70 -137c24 39.333 41.333 69.666 52 90.999c10 19.333 21.667 46.666 35 81.999l156 25c-16.667 -55.333 -39 -110.666 -67 -165.999s-62.333 -112 -103 -170l12 -21l14 22
l134 196l20 28l111 39c-20 -63.333 -39.667 -115.666 -59 -156.999c-18.667 -40 -49 -95 -91 -165z" />
    <glyph glyph-name="quotesingle" unicode="'" horiz-adv-x="322" 
d="M181 972l-82 -24l53 361l140 41zM259 923l-101 -28l138 380l57 21z" />
    <glyph glyph-name="parenleft" unicode="(" 
d="M495 1423l113 23.001c-29.333 -50.667 -67.333 -110 -114 -178l-119 -170c-40 -56 -71.667 -99 -95 -129c-38.667 -50.667 -79.667 -98.667 -123 -144c71.333 211.333 184 410.666 338 597.999zM672 -152.999l-164.001 -24.999l-15 70l26 35l-125 -24
c-43.333 116 -65 219.667 -65 311c0 43.333 6.33301 95.666 19 156.999l-135 -161c-4.66699 46 -7 85 -7 117c0 190.667 43.333 383 130 577c64.667 144.667 155.334 291 272.001 439l167 22l-23 -34c-48.667 -72.667 -88 -135.667 -118 -189
c-34.667 -60.667 -63.334 -116.334 -86.001 -167.001c-25.333 -58 -47 -115.667 -65 -173c-18 -53.333 -33.333 -110.666 -46 -171.999c-11.333 -55.333 -19.666 -113.333 -24.999 -174l207 286c-36.667 -88 -63.667 -172.333 -81 -253
c-16.667 -77.333 -25 -161.333 -25 -252c0 -89.333 11 -181 33 -275l91 114c-0.666992 -6 -1 -16 -1 -30c0 -50 12 -116.333 36 -199z" />
    <glyph glyph-name="parenright" unicode=")" 
d="M222 -72l-20.998 -27.0049l-160 -22c54 78 98 148.333 132 211c35.333 64 66.333 128 93 192c58.667 140.667 99 281.667 121 423l-213 -274c20.667 56.667 37.667 109.334 51 158.001c14.667 54 26 100.333 34 139c9.33301 45.333 16.333 93 21 143
c4.66699 46.667 7 95 7 145c0 70 -6.66699 142.333 -20 217l-95 -115c-3.33301 93.333 -18 185.333 -44 276l164 25c10 -29.333 18 -63.666 24 -102.999l91 23c25.333 -71.333 44.666 -137.666 57.999 -198.999c12 -60 18 -119 18 -177c0 -36 -3.33301 -84.333 -10 -145
l128 164c0 -32.667 -0.666992 -61.167 -2 -85.5s-3.33301 -52.166 -6 -83.499c-4 -45.333 -10.667 -92.333 -20 -141c-10.667 -49.333 -23 -96.666 -37 -141.999c-24.667 -80 -50.334 -149.667 -77.001 -209c-30 -68 -62.333 -131 -97 -189
c-39.333 -65.333 -86 -133.333 -140 -204z" />
    <glyph glyph-name="asterisk" unicode="*" horiz-adv-x="591" 
d="M422 1174l84 -98.001l-74 -70c-19.333 26.667 -35 50 -47 70c-0.666992 1.33301 -2 3.83301 -4 7.5s-3.33301 5.83398 -4 6.50098l-21 -53l-45 58l-38 -133l-96 1l46 146l-119 -51l-36 87l154 60l-28 33l-18 -35l-93 108l75 69l59 -76l19 49l50 -69l35 130l91 -4
l-47 -145l130 56l28 -85l-148 -59l29 -35z" />
    <glyph glyph-name="plus" unicode="+" 
d="M82 1351v-1337h655v1337h-655zM751 0h-683v1365h683v-1365z" />
    <glyph glyph-name="comma" unicode="," horiz-adv-x="573" 
d="M384 296l25.999 8l-39 -217c-12 -68 -37 -128 -75 -180c-39.333 -52.667 -89 -93.667 -149 -123l10 68c38 32.667 67.333 65.667 88 99c20.667 34 34.334 71.667 41.001 113l-65 -19l1 15zM55.999 118l37.999 219l192 44l-64 -320c-72.667 -114 -140.667 -185 -204 -213
l9 79c36.667 19.333 66.334 47.333 89.001 84c24 38 38.333 80.667 43 128z" />
    <glyph glyph-name="hyphen" unicode="-" horiz-adv-x="755" 
d="M105 653l372 83l-59 -122l269 64l-25 -202l-379 -94l68 125l-283 -65z" />
    <glyph glyph-name="period" unicode="." horiz-adv-x="573" 
d="M281 383l-42 -225l-185 -45l39 221zM405 306l-38 -216l-173 -48l135 238z" />
    <glyph glyph-name="slash" unicode="/" horiz-adv-x="615" 
d="M318 1431l177 46l-44 -55l-73 -89.5l-83.5 -97.5l-84.5 -97zM206 8l-179 -44l214 552l-178 -182l376 1030l176 47l-327 -873l179 174z" />
    <glyph glyph-name="zero" unicode="0" horiz-adv-x="1119" 
d="M257 529l179.997 271.002c-37.333 -126 -56 -233.667 -56 -323c0 -115.333 35.333 -173 106 -173c19.333 0 38 4.33301 56 13c19.333 9.33301 44.333 24.333 75 45l-67 -123c20 -6 37 -9 51 -9c43.333 0 84.333 16 123 48c38 32 69.667 76.667 95 134
c24 53.333 43.333 113.666 58 180.999s25.334 144.333 32.001 231l-194 -302c23.333 80 40.333 147.333 51 202c10 53.333 15 102.666 15 147.999c0 61.333 -9.33301 108.333 -28 141c-19.333 33.333 -46.666 50 -81.999 50c-24 0 -54.333 -12.667 -91 -38l45 78
c-24.667 17.333 -48.667 26 -72 26c-50.667 0 -97.667 -23.667 -141 -71c-44 -48 -79.333 -115 -106 -201c-14.667 -45.333 -26 -94 -34 -146c-7.33301 -48 -12.666 -108.667 -15.999 -182zM444.997 49.002l32.998 64.999c-30 -4 -50.333 -6 -61 -6
c-43.333 0 -82.666 12 -117.999 36c-36 24.667 -63.333 58 -82 100c-20 43.333 -30 91 -30 143v21v14l-87 -125c-16.667 77.333 -25 149.333 -25 216c0 104 14.667 205 44 303s70.333 185.333 123 262c52 77.333 111 137.333 177 180c64.667 42.667 132.667 64 204 64
c35.333 0 72.333 -8 111 -24l-23 -45c6.66699 0 11.334 0.333008 14.001 1h15c143.333 0 221.666 -111.667 234.999 -335l93 124c10.667 -64 16 -125.667 16 -185c0 -151.333 -25 -289.666 -75 -414.999c-51.333 -125.333 -119.666 -224.333 -204.999 -297
c-86.667 -73.333 -181 -110 -283 -110c-28.667 0 -54 4.33301 -76 13z" />
    <glyph glyph-name="one" unicode="1" horiz-adv-x="791" 
d="M693 275l-39 -212l-123 -25l14 23c42 66 86 130 132 192zM719 1041l-181.001 -903.001l-192 -39l62 343l6 32l17 81l18 82l5 25l-207 -306c28.667 90 46.334 152.667 53.001 188l17 77l5 24l52 257l-230 -34l2 33l45 82l-174 -41l28 143c83.333 22 147.333 51.333 192 88
c44 36 78 87.333 102 154l73 23l-198 -324c70 19.333 124 46.333 162 81c37.333 35.333 65 83.333 83 144l168 28l-39 -200c0 2.66699 -2 -7.66602 -6 -30.999l-22 -98c-12 -53.333 -30.333 -118 -55 -194l-9 -30z" />
    <glyph glyph-name="two" unicode="2" horiz-adv-x="995" 
d="M320 309l90 27.002l15 25l56 85l62 96l18 28l21 23c49.333 52 85.666 95.333 108.999 130c20 31.333 35 67.666 45 108.999l-144 -213c-2 -2 -4.16699 -4.33301 -6.5 -7s-4.16602 -5 -5.49902 -7l-5 -5l-3 -3l-63 -67l-95 -105c-46 -50.667 -77.333 -89.334 -94 -116.001
zM978 241.002l-32 -181.998l-241 -50l52 119c-66.667 -22.667 -130.667 -39.667 -192 -51l-344 -68l63 124c-49.333 -18 -95 -31.333 -137 -40l-113 -23c16 55.333 33.333 103.333 52 144c16 34.667 39 74.334 69 119.001c39.333 57.333 85.333 113.333 138 168l80 79
l47.5 45.5l34.5 33.5c42 40 76 76.667 102 110c24 30 42.333 60.667 55 92c12 30 18 60.667 18 92c0 63.333 -26.667 95 -80 95c-35.333 0 -67 -10 -95 -30c-28 -19.333 -51.667 -47.333 -71 -84c-19.333 -37.333 -32.333 -81 -39 -131l-120 -22l224 360
c-66.667 -16 -117 -44.333 -151 -85c-34.667 -40.667 -60 -102.334 -76 -185.001l-169 -29c16 96.667 45.667 181 89 253c42.667 70 99 124.667 169 164c68 38.667 148 61 240 67l-57 -107c46 18 89 27 129 27c58 0 105.667 -17.667 143 -53c37.333 -36 56 -81.333 56 -136
c0 -36.667 -8.66699 -82 -26 -136l120 169c21.333 -50 32 -100 32 -150c0 -110 -41.333 -214.667 -124 -314c-38 -46 -80.333 -90.667 -127 -134l-83 -74c-2 -1.33301 -4.66699 -3.66602 -8 -6.99902s-6.66602 -6.33301 -9.99902 -9c-8 -8 -14 -13.667 -18 -17
c-4 -2.66699 -7.33301 -5.33398 -10 -8.00098s-5.66699 -5.33398 -9 -8.00098c-57.333 -50 -99 -95.333 -125 -136l280 52l26 5l47 9c10 2 17.5 3.66699 22.5 5s8.5 2 10.5 2c3.33301 1.33301 8.16602 2.66602 14.499 3.99902l19.5 4l-59 -111z" />
    <glyph glyph-name="three" unicode="3" horiz-adv-x="1045" 
d="M765 1003l-179 -284c36 26 64.667 48.667 86 68c22 20 38.333 38.667 49 56c14.667 20 26 43 34 69c8 24 12 46.667 12 68c0 6 -0.666992 13.667 -2 23zM78 471l180 46.9971c-2 -18.667 -3 -37.334 -3 -56.001c0 -82.667 32.333 -126.334 97 -131.001l42 69
c-6 -24 -9 -43 -9 -57c0 -26.667 8.66699 -47.667 26 -63c17.333 -16 39.333 -24 66 -24c36.667 0 72.334 11.333 107.001 34c35.333 23.333 63.333 53 84 89c21.333 36.667 32 74 32 112c0 34 -9 61 -27 81c-18.667 20 -43.334 30 -74.001 30c-21.333 0 -46 -7 -74 -21
l23 59c-12.667 22.667 -31.667 34 -57 34c-12.667 0 -42.667 -4 -90 -12l-19 -4l28 148c40.667 10.667 71 20.334 91 29.001c16.667 6 35.667 16.333 57 31c22.667 16.667 41.667 39.334 57 68.001c14 27.333 21 54.333 21 81c0 28 -7.33301 50.333 -22 67s-35 25 -61 25
c-48.667 0 -91 -20 -127 -60s-62.667 -96.333 -80 -169l-144 -24l-4 24l54 75l-197 -26c12 58 30 111.333 54 160s54.333 92.334 91 131.001c38.667 40.667 82 73 130 97c48 23.333 106 40.333 174 51l-72 -138c40 22.667 74.667 38.334 104 47.001
c28.667 8.66699 60 13 94 13c58 0 103.333 -15 136 -45c33.333 -30 50 -71.333 50 -124l-2 -42l69 104c39.333 -58.667 59 -116 59 -172c0 -107.333 -58.667 -202.666 -176 -285.999c45.333 -12 78.333 -30 99 -54c20.667 -23.333 31 -56.333 31 -99
c0 -26 -4.66699 -60.333 -14 -103l111 144c16.667 -49.333 25 -95 25 -137c0 -62 -15 -123 -45 -183c-29.333 -60 -70 -113.333 -122 -160c-42.667 -38.667 -124 -83.667 -244 -135l103 197c-107.333 -84.667 -213 -127 -317 -127c-34 0 -63 5.66699 -87 17
c-24 10.667 -44.333 27 -61 49l14 45l-57 -28c-46 24.667 -79.667 54.667 -101 90c-20.667 34.667 -31 80 -31 136c0 24.667 2.66699 56.667 8 96z" />
    <glyph glyph-name="four" unicode="4" horiz-adv-x="1020" 
d="M414 515l159 33l76 390l-88 -115l15 96l-92 -137l42 234l-343 -450l193 45l-69 -122c34 10 69.667 18.667 107 26zM975 351l-127.001 -31.001l-45 -223l-188 -39l48 219l-91 -126l-77 -18l41 230l-234 -43c-43.333 -8.66699 -77.666 -17.667 -102.999 -27l65 122
c-36 -9.33301 -62.667 -15.666 -80 -18.999l-184 -34l44 235l529 695l198 39l-38 -196l75 97l79 22l-127 -671l121 21l42 57l-36 -151l123 16z" />
    <glyph glyph-name="five" unicode="5" horiz-adv-x="1029" 
d="M794 548l-239 -362.999c48 12.667 91.667 34 131 64c37.333 29.333 66 64.333 86 105c20 40 30 84.333 30 133c0 17.333 -2.66699 37.666 -8 60.999zM176 1291l137.001 32.001c-36.667 -72.667 -80.334 -146.334 -131.001 -221.001c-40 -60 -81 -117.667 -123 -173z
M37.001 434.002l167.998 36.9961c1.33301 -24 3.33301 -39.333 6 -46c3.33301 -8.66699 9 -17 17 -25l-23 -35l122 31c6.66699 -46 17.667 -78.667 33 -98c14.667 -18.667 38 -28 70 -28c41.333 0 81.333 13 120 39c38.667 25.333 70 59.333 94 102
c23.333 42.667 35 87 35 133c0 39.333 -9 70 -27 92c-18.667 22 -44 33 -76 33c-66.667 0 -128 -32.667 -184 -98l-66 -22l123 200c-38.667 -8 -71.667 -20.333 -99 -37c-28 -17.333 -55.667 -41 -83 -71l-163 -24l201 605l481 98l-71 -126
c50.667 18.667 96.334 31.667 137.001 39l98 20l-35 -187l-181 -34c-50.667 -9.33301 -96.667 -22.666 -138 -39.999l74 125l-276 -60l-73 -211c42.667 26 78.334 45 107.001 57c29.333 12 73.333 24.333 132 37l-101 -176c76.667 64.667 148 97 214 97
c57.333 0 103 -17.333 137 -52c33.333 -35.333 53 -85.666 59 -150.999l67 90c20 -30.667 35 -61.334 45 -92.001c9.33301 -31.333 14 -64 14 -98c0 -43.333 -6 -86.666 -18 -129.999c-13.333 -45.333 -32 -88.666 -56 -129.999c-24.667 -42 -53.667 -81.333 -87 -118
c-34 -36.667 -71 -67.667 -111 -93c-68 -42.667 -156.667 -69.667 -266 -81l60 115c-60.667 -23.333 -113.334 -35 -158.001 -35c-62.667 0 -111.667 18 -147 54c-34.667 34.667 -54.667 86.334 -60 155.001l-67 -88c-19.333 29.333 -32.666 56.333 -39.999 81
c-7.33301 24 -11 53.667 -11 89c0 11.333 1 30.333 3 57z" />
    <glyph glyph-name="six" unicode="6" horiz-adv-x="1096" 
d="M546 319l-35.999 -59c13.333 -13.333 26.666 -23 39.999 -29s28 -9 44 -9c36.667 0 73.667 14.333 111 43c38 29.333 69 66.333 93 111c24 45.333 36 89.666 36 132.999c0 30.667 -5.66699 56.334 -17 77.001c-11.333 20 -31 38.333 -59 55l-47 -69
c-0.666992 33.333 -5 60.333 -13 81c-14 36.667 -42.333 55 -85 55c-40 0 -78.333 -14.333 -115 -43c-38.667 -29.333 -69.667 -66 -93 -110c-24.667 -44.667 -37 -90.334 -37 -137.001c0 -35.333 9.33301 -63.666 28 -84.999c19.333 -22 44.333 -33 75 -33
c20 0 45 6.33301 75 19zM967.001 921l130 158l2 -144l-132 -36v22zM872.001 794l18.002 23.0029c44 -26.667 76 -58.334 96 -95.001c20 -36 30 -80.667 30 -134c0 -91.333 -23.333 -179.333 -70 -264s-108 -153 -184 -205s-154 -78 -234 -78c-36 0 -76.333 9.66699 -121 29
l25 55c-21.333 -3.33301 -36.333 -5 -45 -5c-58.667 0 -107 25.333 -145 76c-38.667 49.333 -58 111.666 -58 186.999c0 36.667 6.66699 77 20 121l-128 -152c-7.33301 45.333 -11 89 -11 131c0 83.333 12.333 170 37 260c24 90.667 57.333 176 100 256
c114.667 216.667 261 325 439 325c28 0 62.333 -3.66699 103 -11l-42 -79c32.667 10.667 60 16 82 16c36 0 69.333 -9.33301 100 -28c30 -18.667 52.333 -43.334 67 -74.001c16.667 -36 25 -82 25 -138l-179 -35c-4 37.333 -13 63.333 -27 78s-35.667 22 -65 22
c-40 0 -80.667 -15.667 -122 -47l66 111c-22 8.66699 -42.667 13 -62 13c-41.333 0 -80 -12 -116 -36s-67.667 -59 -95 -105s-48 -99.667 -62 -161c34 29.333 64 52.333 90 69c24 16 52.667 30.333 86 43l-56 -192c99.333 82 191.666 123 276.999 123c36 0 67.333 -8 94 -24
c25.333 -16 47.666 -41 66.999 -75z" />
    <glyph glyph-name="seven" unicode="7" horiz-adv-x="946" 
d="M111 1109l-91 -34l32 187l185 60c-30 -62.667 -72 -133.667 -126 -213zM579 42l-166.002 -32.001c28 56.667 64 121.334 108 194.001l97 156c33.333 52 71.333 108.333 114 169l24 34c-23.333 -47.333 -47.666 -102 -72.999 -164
c-21.333 -53.333 -40.666 -110 -57.999 -170c-14.667 -52 -30 -114.333 -46 -187zM451.998 124.999l-199.001 -54.998c23.333 128 64.333 257 123 387c32.667 74 74 154.333 124 241c43.333 76 80 136.333 110 181l91 128c3.33301 6 10.333 16 21 30
c-82 -16 -154 -36 -216 -60l-14 -24l-18.5 -30c-5.66699 -9.33301 -10.5 -17 -14.5 -23l-33 -52c-10.667 -18.667 -19 -32.667 -25 -42c-12.667 -20.667 -19.334 -31.667 -20.001 -33l-14.5 -23.5l-9.5 -14.5c-0.666992 -0.666992 -1.66699 -2.33398 -3 -5.00098
s-2.66602 -4.66699 -3.99902 -6l-70 -111l-20 -31l12 24c35.333 72 67 131.667 95 179c52 87.333 89.667 148.333 113 183l73 111c1.33301 1.33301 6.33301 9.33301 15 24l-37 -10l-168 -43c-59.333 -16 -122 -30 -188 -42l-28 -6l29 190l341 78c69.333 16 135 35 197 57
l-69 -125l321 68l-31 -175c-113.333 -138.667 -214 -294.334 -302 -467.001c-36.667 -73.333 -70.167 -151.5 -100.5 -234.5s-57.166 -172.5 -80.499 -268.5z" />
    <glyph glyph-name="eight" unicode="8" horiz-adv-x="1102" 
d="M279 643l83 71l-26 16zM431 873l37.999 59c-2 -14.667 -3 -28 -3 -40c0 -60 30 -90 90 -90c52 0 99.667 20.667 143 62c42 41.333 63 87.333 63 138c0 28.667 -8.33301 51 -25 67c-17.333 15.333 -41.666 23 -72.999 23c-35.333 0 -75.333 -15.333 -120 -46l70 119
c-6.66699 0.666992 -18 1 -34 1c-40 0 -77.333 -9.33301 -112 -28c-36 -18.667 -64.667 -44 -86 -76c-21.333 -32.667 -32 -66.667 -32 -102c0 -56 27 -85 81 -87zM524.999 318l-46.998 -78c31.333 -12 61 -18 89 -18c46 0 88.333 11.333 127 34
c40 23.333 71.333 53.333 94 90s34 77 34 121c0 36.667 -10.333 65.334 -31 86.001c-21.333 21.333 -50.333 33 -87 35l-16 -19c-6 56.667 -36 85 -90 85c-30.667 0 -61.334 -6.66699 -92.001 -20c-30.667 -14 -58.334 -33.333 -83.001 -58s-44 -52.334 -58 -83.001
c-14.667 -30 -22 -61 -22 -93s9.33301 -57.333 28 -76c18 -19.333 42 -29 72 -29c22.667 0 50 7.66699 82 23zM372.001 62l35.9971 63c-21.333 -4.66699 -41.666 -7 -60.999 -7c-39.333 0 -73.666 9.33301 -102.999 28c-31.333 18 -55.333 43.333 -72 76
c-17.333 32.667 -26 68.667 -26 108c0 42 11.667 99 35 171l-148 -194c-4 32 -6 55.333 -6 70c0 84 17 157.333 51 220c33.333 62 89 124.333 167 187c-31.333 23.333 -52.333 44.666 -63 63.999c-12 20 -18 45.333 -18 76c0 52 13.333 103.333 40 154
c26 50.667 62.333 94.667 109 132c46 38 99 68 159 90s122 33 186 33h30h21l-45 -84c34 8.66699 65 13 93 13c58.667 0 106.667 -15.667 144 -47c36.667 -30.667 55 -72 55 -124c0 -99.333 -57 -200.666 -171 -303.999l40 -28l238 335c8 -34.667 12 -65.334 12 -92.001
c0 -56.667 -12 -106 -36 -148c-25.333 -43.333 -68 -88.666 -128 -135.999c38 -24.667 65 -51.334 81 -80.001c15.333 -29.333 23 -64.666 23 -105.999c0 -84.667 -24.333 -164.667 -73 -240c-23.333 -37.333 -51.833 -72 -85.5 -104s-69.167 -58.667 -106.5 -80
c-79.333 -46.667 -163 -70 -251 -70c-35.333 0 -77.666 8 -126.999 24z" />
    <glyph glyph-name="nine" unicode="9" horiz-adv-x="1145" 
d="M242 857l207 338.001c-138 -68.667 -207 -181.334 -207 -338.001zM713 996.001c0 34.667 -8.66699 62.665 -26 83.998c-18 21.333 -42.667 32 -74 32c-37.333 0 -74.666 -14 -111.999 -42c-36 -28 -65.667 -65 -89 -111c-23.333 -45.333 -35 -91.666 -35 -138.999
c0 -36.667 8.66699 -65.667 26 -87s41.333 -32 72 -32c37.333 0 74.666 14.667 111.999 44c36.667 28.667 67 66.667 91 114c23.333 46.667 35 92.334 35 137.001zM812 1032l-259 -411.999c54 0 102.333 13 145 39c42 24.667 75.667 59.667 101 105
c24.667 43.333 37 92.666 37 147.999c0 37.333 -8 77.333 -24 120zM131 370l183 52.002c6.66699 -34.667 15 -58.667 25 -72c9.33301 -12 25.333 -20 48 -24l-17 -36l62 54c8 -59.333 39.667 -89 95 -89c60 0 115 29.333 165 88s88.333 139.334 115 242.001
c-55.333 -53.333 -109 -92 -161 -116c-49.333 -22.667 -105 -34 -167 -34h-28l57 102c-44 -21.333 -81.667 -32 -113 -32c-60 0 -109 24.333 -147 73c-38 48 -59 113.333 -63 196l-93 -120c-16 67.333 -24 121.666 -24 162.999c0 78 18 155.333 54 232
c35.333 75.333 83 140 143 194c37.333 33.333 77.333 61 120 83c39.333 19.333 91 36.666 155 51.999l-67 -137c84 41.333 154 62 210 62c35.333 0 66 -6 92 -18c26 -12.667 48.333 -31 67 -55c18.667 -24.667 33 -55.334 43 -92.001l47 64c33.333 -40 57.333 -82 72 -126
c14 -44.667 21 -99 21 -163c0 -48.667 -5 -102 -15 -160c-10.667 -61.333 -27 -128.333 -49 -201l-12 -38l209 293c-11.333 -81.333 -24.666 -155 -39.999 -221c-12 -52 -28.333 -105.333 -49 -160c-19.333 -49.333 -43 -97.333 -71 -144
c-44.667 -74.667 -92.667 -133 -144 -175c-50 -41.333 -119 -78.666 -207 -111.999l100 190c-52.667 -38.667 -100.667 -66.667 -144 -84c-44 -17.333 -88.333 -26 -133 -26c-74.667 0 -131.334 24.333 -170.001 73l36 80l-73 -70c-47.333 24 -80.333 51.333 -99 82
c-19.333 31.333 -30.333 74.666 -33 129.999z" />
    <glyph glyph-name="colon" unicode=":" horiz-adv-x="573" 
d="M281 384l-42 -225l-185 -44l39 220zM405 308l-38 -217l-174 -48l136 238zM388 982l-43 -225l-184 -45l39 221zM512 905l-38 -216l-174 -48l136 238z" />
    <glyph glyph-name="semicolon" unicode=";" horiz-adv-x="573" 
d="M384 296l25.999 8l-39 -217c-12 -68 -37 -128 -75 -180c-39.333 -52.667 -89 -93.667 -149 -123l10 68c38 32.667 67.333 65.667 88 99c20.667 34 34.334 71.667 41.001 113l-65 -19l1 15zM55.999 118l37.999 219l192 44l-64 -320c-72.667 -114 -140.667 -185 -204 -213
l9 79c36.667 19.333 66.334 47.333 89.001 84c24 38 38.333 80.667 43 128zM387.998 982l-43 -225l-184 -45l39 221zM511.998 905l-38 -216l-174 -48l136 238z" />
    <glyph glyph-name="less" unicode="&#x3c;" horiz-adv-x="1077" 
d="M794 1132l-148 -26l34 189l181 34l-29 -145l22 44l129 24l-35 -187l-175 -36zM748 913l179 31.001l-98 -525l203 284c-12.667 -42.667 -24.667 -91.334 -36 -146.001l-104 -479l-174 -34l23 117c10 51.333 28.667 116.333 56 195l12 33l-177 -265l-38 -1zM64 800.001
l-91 -17.001l22 145l94 21c16 60 30.667 107.667 44 143c12 29.333 27 56.666 45 81.999c45.333 61.333 118.333 109.333 219 144c-20 -41.333 -44 -86.166 -72 -134.499s-59 -98.166 -93 -149.499c-52.667 -80.667 -108.667 -158.667 -168 -234zM497 679l-134.001 -647.001
l-187 -37l56 311l-146 -213l-34 -11l125 638l-91 -10l30 147l92 19c28 128.667 72.333 220 133 274c25.333 23.333 57 41.666 95 54.999c38.667 12.667 92 23.334 160 32.001l-36 -167c-50 -6 -86.333 -20.667 -109 -44c-22 -23.333 -37.667 -62.666 -47 -117.999l129 22
l-36 -146l-124 -30l-27 -120c-11.333 -53.333 -32.666 -132 -63.999 -236l-9 -29l323 476l53 8l-25 -143z" />
    <glyph glyph-name="equal" unicode="=" horiz-adv-x="532" 
d="M563 1431l193 46l-377 -339h-28zM-51 8l-195 -44l409 552l-157 -100l667 948l179 47l-621 -873l142 90z" />
    <glyph glyph-name="greater" unicode="&#x3e;" horiz-adv-x="1084" 
d="M988 597l-85.001 -529.003l-182 -44l62 384l-185 -296l112 622c8 44 23.333 115.333 46 214c18.667 80.667 36.667 148.334 54 203.001l-214 -305l78 434l179 40l-36 -165l58 74l105 11c-12 -53.333 -21.667 -100.333 -29 -141
c-1.33301 -7.33301 -2.66602 -15.166 -3.99902 -23.499s-2.66602 -14.833 -3.99902 -19.5l-107 -539c26 45.333 57 94.333 93 147c38 56.667 73.333 105.667 106 147c-20.667 -79.333 -36.334 -150.666 -47.001 -213.999zM63.999 799.997l-91 -17.001l22 145l94 21
c16 60 30.667 107.667 44 143c12 29.333 27 56.666 45 81.999c45.333 61.333 118.333 109.333 219 144c-20 -41.333 -44 -86.166 -72 -134.499s-59 -98.166 -93 -149.499c-52.667 -80.667 -108.667 -158.667 -168 -234zM496.999 678.996l-134.001 -647.001l-187 -37l56 311
l-146 -213l-34 -11l125 638l-91 -10l30 147l92 19c28 128.667 72.333 220 133 274c25.333 23.333 57 41.666 95 54.999c38.667 12.667 92 23.334 160 32.001l-36 -167c-50 -6 -86.333 -20.667 -109 -44c-22 -23.333 -37.667 -62.666 -47 -117.999l129 22l-36 -146l-124 -30
l-27 -120c-11.333 -53.333 -32.666 -132 -63.999 -236l-9 -29l323 476l53 8l-25 -143z" />
    <glyph glyph-name="question" unicode="?" horiz-adv-x="1000" 
d="M705 998l-219 -345.999l27.5 25l13.5 13c48.667 44 81 74.333 97 91c18.667 21.333 34 40.666 46 57.999c27.333 41.333 41 81 41 119c0 8.66699 -2 22 -6 40zM598 429.001l-187.999 -31.002c4 36.667 7 60.334 9 71.001c0.666992 7.33301 4 23 10 47
c8.66699 32 16.334 59 23.001 81l-81 -123l-57 -17l6 28c9.33301 51.333 19.333 92 30 122s23.667 56.333 39 79c16.667 24 40 50 70 78c64.667 60.667 104 101.667 118 123c29.333 44.667 44 86.667 44 126c0 30.667 -11.333 56.334 -34 77.001s-50.667 31 -84 31
c-32.667 0 -64.667 -8 -96 -24c-32 -17.333 -59 -41 -81 -71c-24.667 -34 -42.667 -81 -54 -141l-104 -8l14 44l166 256c-84 -34.667 -141.667 -113.334 -173 -236.001l-175 -20c45.333 273.333 200.333 425.333 465 456l-47 -84c57.333 16 108.666 24 153.999 24
c119.333 0 197 -56.333 233 -169l35 51c52 -56.667 78 -125.667 78 -207c0 -100.667 -41.667 -192.667 -125 -276l-112 -114c-28.667 -30 -48.334 -56.333 -59.001 -79c-12 -25.333 -20 -56.666 -24 -93.999zM697.001 223.999l-28.999 -183l-107 -23
c23.333 49.333 44.333 88 63 116c17.333 26.667 41.666 56.667 72.999 90zM574.002 98.999l-211 -38l26 237l219 38z" />
    <glyph glyph-name="at" unicode="@" 
d="M82 1351v-1337h655v1337h-655zM751 0h-683v1365h683v-1365z" />
    <glyph glyph-name="A" unicode="A" horiz-adv-x="1225" 
d="M636 439l175 40l-20 209zM451 505l233 53l-29 426zM263 58l-199 -44l434 988l-561 -892h-12l16 32l17 33.5l35 69.5l119 252l87 189l13 28l259 583l200 44l9 -38l-46 -77l171 37l53 -465l100 147l73 -638l100 143l46 -403l-208 -46l-18 181l-45 -81l-57 -16l-21 220
l-311 -70l67 122l-216 -49z" />
    <glyph glyph-name="B" unicode="B" horiz-adv-x="1287" 
d="M977 988l-153 -246.999c49.333 16 88.333 43 117 81c28.667 37.333 43 78.666 43 123.999c0 11.333 -2.33301 25.333 -7 42zM418 1117l-50 -251l60 12l171 274zM542 1042l-50.999 -254.999l131 27c74 15.333 127 32.666 159 51.999c23.333 15.333 40.666 34 51.999 56
c12 22 18 46.667 18 74c0 56 -27 84 -81 84c-20 0 -46.667 -3 -80 -9zM455.001 610.002l-61.999 -307l146 28v-21l21 21l-21 -96l128 25c35.333 6 65.666 13.333 90.999 22c22 7.33301 42 18 60 32c26 20 46.667 44.667 62 74s23 59.333 23 90s-7.66699 54.667 -23 72
c-16 16 -38.333 24 -67 24c-22.667 0 -52.667 -6.33301 -90 -19c-1.33301 0 -4 -0.666992 -8 -2c-6.66699 -2 -11.667 -3.33301 -15 -4l57 86c-22 8 -43 12 -63 12c-29.333 0 -73.333 -5.66699 -132 -17l-77 -15zM131.002 1353l117 23.001l-248 -371l10 18l22 43
c29.333 56 51.333 105.333 66 148c14 41.333 25 87.666 33 138.999zM407.002 118.003l-254.999 -51l113 561l-194 -255l188 904l465 91l-63 -116l118 23l31 6c28.667 4.66699 54 7 76 7c103.333 0 163.333 -52 180 -156l51 64c41.333 -45.333 62 -100 62 -164
c0 -36.667 -7.33301 -74.667 -22 -114c-15.333 -41.333 -35 -77 -59 -107c-22 -28.667 -57.667 -61 -107 -97c44 -19.333 75.667 -45 95 -77c19.333 -33.333 29 -75.333 29 -126c0 -11.333 -0.666992 -27 -2 -47l97 124c14.667 -40 22 -78.667 22 -116
c0 -34 -4.66699 -70.667 -14 -110c-8.66699 -38 -21.334 -74 -38.001 -108c-16.667 -34.667 -37 -66.334 -61 -95.001c-29.333 -36 -64 -66.667 -104 -92c-44.667 -27.333 -101 -53.666 -169 -78.999l-31 -11l91 170c-32.667 -20.667 -62.667 -36 -90 -46
c-30.667 -11.333 -66 -21.333 -106 -30l-376 -82z" />
    <glyph glyph-name="C" unicode="C" horiz-adv-x="1375" 
d="M20 628c18 82 39.667 159.666 65 232.999c26.667 78.667 55 144.334 85 197.001c36.667 66.667 83.5 129.5 140.5 188.5s123.833 112.5 200.5 160.5l-17 -34c-36 -71.333 -75.667 -144.666 -119 -219.999c-37.333 -62.667 -93.333 -150.334 -168 -263.001
c-76 -114.667 -138.333 -202 -187 -262zM1032 401.999l194.999 16c-30 -64.667 -64.667 -122.334 -104 -173.001c-40 -50 -84.667 -92.667 -134 -128c-50.667 -36.667 -102.667 -63.334 -156 -80.001c-55.333 -17.333 -113 -26 -173 -26c-16 0 -27 0.333008 -33 1l47 94
c-46.667 -18 -86.334 -27 -119.001 -27c-113.333 0 -196 70.333 -248 211l-57 -70c-24.667 55.333 -42.667 108 -54 158c-11.333 50.667 -17 103.334 -17 158.001c0 101.333 17.333 200 52 296s82.667 182.667 144 260c59.333 75.333 128.666 136 207.999 182
c77.333 44 156.333 66 237 66c38.667 0 79.667 -6.66699 123 -20l-18 -48h12c54.667 0 102.334 -12 143.001 -36c42 -26 73.333 -61.333 94 -106c21.333 -46.667 32 -101 32 -163l87 109c18.667 -42.667 31.334 -81.667 38.001 -117s10 -81 10 -137v-17
c-0.666992 -4 -1 -10.667 -1 -20l-194 -21c-5.33301 50.667 -14 87.667 -26 111l-104 -20c-6 66.667 -15.333 112 -28 136c-26 52.667 -67.333 79 -124 79c-11.333 0 -28 -1.66699 -50 -5l21 36c-30 26 -62.667 39 -98 39c-59.333 0 -117.666 -27.667 -174.999 -83
c-58 -56 -104.333 -128 -139 -216c-36 -88.667 -54 -179 -54 -271c0 -30.667 2 -58 6 -82c3.33301 -21.333 10 -46.666 20 -75.999l92 129c-0.666992 -6 -1 -15.667 -1 -29c0 -68.667 15.667 -124.667 47 -168s71.666 -65 120.999 -65c48.667 0 98.334 18.333 149.001 55
l-77 -134c42.667 0 82 7 118 21c36 14.667 68.667 36 98 64s59.333 67 90 117z" />
    <glyph glyph-name="D" unicode="D" horiz-adv-x="1274" 
d="M1026 812l-343.999 -575.999c56.667 17.333 104.667 40 144 68c40 28.667 73.667 65 101 109c26 42 47.667 97.667 65 167c15.333 65.333 26.666 142.666 33.999 231.999zM439.001 1081l-120.003 -647l186 288l-74 -433l27 6c88 17.333 153.333 35 196 53
c36.667 14.667 69 36.667 97 66c28.667 28.667 53.334 65.667 74.001 111c45.333 98 68 198.333 68 301c0 68 -11.333 119.667 -34 155c-23.333 35.333 -57.666 53 -102.999 53c-16.667 0 -36 -3.33301 -58 -10l33 53c-38.667 24.667 -76.667 37 -114 37
c-41.333 0 -100.666 -11 -177.999 -33zM247.998 1088l-227.999 -337.994c28 77.333 49 154.333 63 231l60 335l270 59l-66 -126c4.66699 1.33301 10 2.66602 16 3.99902s11.667 2.66602 17 3.99902l122 33c36.667 9.33301 75 17.333 115 24c39.333 6.66699 74 10 104 10
c47.333 0 96.666 -13.667 147.999 -41l-20 -34c75.333 0 133.333 -25 174 -75c42 -50.667 68.333 -129.334 79 -236.001l88 118c17.333 -84.667 26 -157.334 26 -218.001c0 -66 -7.33301 -132.667 -22 -200c-14.667 -68 -36.334 -133.667 -65.001 -197
c-30 -64.667 -63.667 -120.334 -101 -167.001c-64.667 -84 -140.667 -147 -228 -189c-30.667 -14.667 -78 -30.334 -142 -47.001c-55.333 -16 -97.666 -32.333 -126.999 -49l72 136c-64 -18 -137.333 -35.333 -220 -52c-78 -16.667 -142.667 -28 -194 -34l24 137
c4 24 8.33301 46 13 66l11 48l6 24l-135 -197l-44 2z" />
    <glyph glyph-name="E" unicode="E" horiz-adv-x="1107" 
d="M320 1130l-38 -209l146 233zM219 821l-198.999 -281.999l132 749l399 77l-57 -107l479 97l-25 -121c48.667 21.333 97.334 38 146.001 50l-34 -197l-110 -22c-38.667 -8 -85.667 -27 -141 -57l84 138l-455 -91l-40 -229l340 69l-81 -134c48 19.333 90.333 33 127 41
l166 36l-31 -191l-196 -41l-20 -4c-64.667 -12.667 -124.334 -32.334 -179.001 -59.001l79 129l-242 -47l-52 -302l88 17l94 150c-10 -27.333 -18.333 -54.333 -25 -81c-8 -30 -17.667 -73.333 -29 -130l-4 -21l427 85l-76 -125l20 7c36.667 12 67.334 20.667 92.001 26
l155 35l-36 -204l-214 -45c-52.667 -10.667 -100.667 -23 -144 -37l67 122l-387 -77c-50.667 -10 -98.334 -22 -143.001 -36l70 118l-195 -41l86 470c17.333 92 38.666 180.333 63.999 265z" />
    <glyph glyph-name="F" unicode="F" horiz-adv-x="1071" 
d="M334 1126l-35 -180l128 203zM267 135l-194 -35.999l84 424c14 69.333 28.5 132 43.5 188s28.833 102 41.5 138l-222 -326l141 772l396 74l-71 -122l475 105l-21 -150l26 39l116 42l-38 -207l-210 -51l66 113l-451 -84l-42 -240l330 60l-76 -125l22 7
c36 10.667 67.333 19 94 25l153 33l-39 -195l-364 -83l70 117l-228 -42l-82 -444l199 300c-39.333 -136.667 -65 -270.334 -77 -401.001l-214 -52z" />
    <glyph glyph-name="G" unicode="G" horiz-adv-x="1380" 
d="M292 807l237 373c-126 -84 -205 -208.333 -237 -373zM1106 481l-79 -16.001l-163 -263c38 16.667 74 39.334 108 68.001c33.333 28.667 61.333 61 84 97c22 34 38.667 72 50 114zM674 645.999l-39 -21l49 153l112 68zM1168 676.999l164.003 34.999l-111 -596l-161 -30
l13 112c-33.333 -41.333 -67 -76.333 -101 -105c-31.333 -27.333 -66.333 -51 -105 -71c-34 -17.333 -75.667 -32 -125 -44l94 178c-56 -34 -104.333 -57.667 -145 -71c-40 -13.333 -79 -20 -117 -20c-44.667 0 -83.334 8.66699 -116.001 26s-63.667 45.333 -93 84l-14 -21
c-56.667 34.667 -97.334 77 -122.001 127c-25.333 50.667 -38 114.667 -38 192c0 32.667 2 64 6 94c2.66699 26.667 9.33398 67 20.001 121l-159 -231c-2 30 -3 52.667 -3 68c0 72 8 144 24 216c16.667 74 40 144.333 70 211c32 71.333 67.667 133.333 107 186
c61.333 84 125 147.667 191 191c66.667 43.333 139.334 69 218.001 77l-91 -153c55.333 32 104.333 54.667 147 68c44 13.333 89.667 20 137 20c40.667 0 76 -6.66699 106 -20c28.667 -14 55.667 -36.667 81 -68l10 11c67.333 -29.333 113.666 -66 138.999 -110
c26 -44.667 40 -111.667 42 -201l-190 -53c-10.667 48.667 -24.334 85.334 -41.001 110.001c-18 24 -43 42.333 -75 55l-37 -54c0 40 -10.333 71.333 -31 94s-48.667 34 -84 34c-59.333 0 -118 -27 -176 -81c-59.333 -55.333 -107.333 -125.666 -144 -210.999
c-37.333 -86.667 -56 -173.667 -56 -261c0 -50 7.33301 -93 22 -129c14 -38 35.333 -71.333 64 -100l46 68c4.66699 -33.333 11.334 -59 20.001 -77c11.333 -22 27.666 -39.667 48.999 -53s43 -20 65 -20c41.333 0 83.333 13 126 39
c43.333 25.333 82.666 59.666 117.999 102.999c34 42 59.333 89.333 76 142l-215 -36l29 182l402 83c-2 -26.667 -6 -51 -12 -73z" />
    <glyph glyph-name="H" unicode="H" horiz-adv-x="1339" 
d="M822 756l143 44l47 269zM34 1092l50 261l136 38c-46.667 -102 -108.667 -201.667 -186 -299zM523 259l-58 -239.001l-119 -33c55.333 104.667 114.333 195.334 177 272.001zM341 92.999l-203 -39.999l61 331c9.33301 52 16.666 87.333 21.999 106
c4.66699 20 13.334 46 26.001 78c10.667 25.333 30.334 69 59.001 131l12 26l-291 -433l8 31c13.333 53.333 24.666 105.666 33.999 156.999l12 64l5 25l128 706l206 42l-73 -440l85 21l114 180l-10 -25c-36.667 -96 -60 -182.667 -70 -260l367 78l88 450l194 43l-31 -194
l76 93l85 24l-160 -906l213 316l-130 -637l-202 -40l50 247l-99 -151l-76 -17l87 491l-225 -47l71 126l-347 -81z" />
    <glyph glyph-name="I" unicode="I" horiz-adv-x="543" 
d="M20 936l62 392l211 49c-16 -38 -31 -70.667 -45 -98c-17.333 -31.333 -44.333 -76 -81 -134c-60 -96 -109 -165.667 -147 -209zM236 459l-205 -308l197 1090l191 50l-128 -742l204 307l-146 -783l-197 -52z" />
    <glyph glyph-name="J" unicode="J" horiz-adv-x="1042" 
d="M743 685l-273.001 -452c21.333 -19.333 46 -29 74 -29c58.667 0 101.334 30 128.001 90c13.333 26 24.333 71.333 33 136zM526.999 1158l50.001 196l84 12c-30.667 -56.667 -75.334 -126 -134.001 -208zM0 289l44 246.999l152 56
c-25.333 -53.333 -55 -106.666 -89 -159.999c-38 -57.333 -73.667 -105 -107 -143zM805 794.999l203 297.998l-88 -558l-6 -38c-14.667 -91.333 -31 -159.666 -49 -204.999c-19.333 -49.333 -47 -95.333 -83 -138c-43.333 -51.333 -92 -90.666 -146 -117.999
c-54.667 -28 -110 -42 -166 -42c-39.333 0 -79 9.66699 -119 29l33 62c-34 -10.667 -62 -16 -84 -16c-48.667 0 -86.667 19 -114 57c-26.667 37.333 -40 91.666 -40 162.999c0 10 1 25.333 3 46c0.666992 9.33301 4 43.333 10 102c0.666992 2 1.16699 4.5 1.5 7.5
s0.5 5.5 0.5 7.5c0.666992 4 1.66699 10.667 3 20l195 33l-5 -28c-10.667 -61.333 -16 -105.333 -16 -132c0 -24.667 6 -43.667 18 -57c11.333 -13.333 27.333 -20 48 -20c45.333 0 84 28 116 84c32 58 57.333 144.333 76 259l110 673l197 38l-37 -248
c-5.33301 -33.333 -14 -77.666 -26 -132.999c-10 -45.333 -21.667 -94 -35 -146z" />
    <glyph glyph-name="K" unicode="K" horiz-adv-x="1231" 
d="M495 393l-67 -375l-204 -31c20.667 38 45 79.667 73 125c30.667 48 61 93 91 135zM286 112l-181.003 -50.002l4 25l27 147c20.667 118.667 31 178.334 31 179.001l55 340l-188 -258l158 782l191 38c-3.33301 -29.333 -10.666 -76 -21.999 -140
c-15.333 -89.333 -32 -175.666 -50 -258.999l-8 -35l190 290l-49 -363l430 497l202 43l-16 -22c-121.333 -169.333 -251.666 -335 -390.999 -497l34 -92l314 504l224 32l-453 -516l175 -388l55 81l180 -386l-245 -44l-98 201l-59 -76c-6.66699 21.333 -18.667 54.333 -36 99
c-19.333 46.667 -44 103 -74 169l-68 148l-11 24l-57 -92c-11.333 49.333 -29.666 97 -54.999 143l-110 -127z" />
    <glyph glyph-name="L" unicode="L" horiz-adv-x="965" 
d="M231 418l-196 -312l179 1082c-64 -108 -128.667 -204.667 -194 -290l59 403l202 52v-29l-45 -97l185 49l-126 -748l195 294l-93 -557l258 62l-59 -123l348 83l-25 -201l-458 -114l68 126l-369 -85z" />
    <glyph glyph-name="M" unicode="M" horiz-adv-x="1579" 
d="M803 568l2 -198l309 675l-111.5 -145l-116.5 -161l-117 -176l-13 -21zM348 889l-65 -292l76 116zM40 1009l61 304.001l177 44c-32 -60 -69.667 -122.333 -113 -187c-42 -60.667 -83.667 -114.334 -125 -161.001zM231 514.001l-210.999 -301l221 1024l279 53l9 -176l2 -27
c0.666992 -8.66699 1 -30.334 1 -65.001c0 -25.333 -0.333008 -43.666 -1 -54.999l131 177l11 -707l368 848l221 44l-42 -124l228 45l-149 -651l260 388l-226 -944l-187 -32l75 323c11.333 49.333 22.666 93 33.999 131l26 84l9 32l-273 -442l8 25
c17.333 56 34.333 121.333 51 196l102 485l-357 -798l-188 -36v339l-139 -177l-18 632l-169 -754l-183 -34z" />
    <glyph glyph-name="N" unicode="N" horiz-adv-x="1326" 
d="M935 559l37 -98l39 221zM1298 378l-71.999 -339l-163 -44c34 66 72 133.333 114 202c41.333 68 81.666 128.333 120.999 181zM151.001 112l-81.001 -23.9971l157 908l-200 -285l110 588l207 43l32 -97l89 25l107 -270l10 -27l17 -45l16 -44
c0.666992 0 1.16699 -0.5 1.5 -1.5s0.5 -1.83301 0.5 -2.5s0.666992 -3 2 -7c0.666992 -0.666992 1.16699 -1.66699 1.5 -3s0.5 -2.66602 0.5 -3.99902c1.33301 -2 2.33301 -5 3 -9l65 109c18.667 -64.667 37.334 -120 56.001 -166l105 -268l123 744l190 43l-4 -30
c-25.333 -168 -53.333 -326.667 -84 -476l-6 -30l205 330l-176 -1005l-189 -40l-112 283l-69 -85c-19.333 64 -39 120.667 -59 170l-92 230c0 1.33301 -0.833008 4.16602 -2.5 8.49902s-3.5 8.83301 -5.5 13.5l-12 32c-0.666992 2.66699 -1.5 5.66699 -2.5 9
s-2.5 6.66602 -4.5 9.99902l-64 -89c-9.33301 31.333 -18.666 57.666 -27.999 78.999l-59 148l-56 -317c-12.667 -66.667 -21.334 -108.334 -26.001 -125.001l-23 -98l-6 -26l200 312l-96 -562l-197 -46l39 210z" />
    <glyph glyph-name="O" unicode="O" horiz-adv-x="1382" 
d="M258 568l378.001 619.001c-52.667 -10.667 -99 -29 -139 -55c-38.667 -24.667 -73.667 -59.334 -105 -104.001c-40.667 -56.667 -73.334 -123.667 -98.001 -201c-25.333 -79.333 -38 -152.333 -38 -219c0 5.33301 0.666992 -8 2 -40zM557.001 303.001l-13.002 -22.999
c37.333 -34 79 -51 125 -51c58.667 0 117 27 175 81c57.333 54.667 104 124.667 140 210c36 86 54 172.667 54 260c0 74.667 -15.667 145 -47 211l-81 -125c-2 81.333 -15.667 140.666 -41 177.999c-26 36.667 -66 55 -120 55c-41.333 0 -83.666 -16 -126.999 -48
c-45.333 -34.667 -84.666 -78.334 -117.999 -131.001c-35.333 -55.333 -63.333 -116 -84 -182c-21.333 -68 -32 -133.667 -32 -197c0 -77.333 14 -135.666 42 -174.999c26.667 -40 69 -61 127 -63zM180.999 447.002l-87.001 -113.001c-19.333 90.667 -29 167.667 -29 231
c0 74 11 150.333 33 229c22 79.333 54 155.333 96 228c42.667 74 91 138 145 192c58 59.333 119.667 103 185 131s140.333 43.667 225 47l-56 -105c52 18.667 97 28 135 28c112.667 0 201 -59.667 265 -179l36 47c26 -32.667 47.333 -66.667 64 -102
c16 -34.667 28 -71.667 36 -111c7.33301 -42 11 -84 11 -126c0 -71.333 -9 -139.666 -27 -204.999c-18 -64.667 -48 -139.667 -90 -225l255 377c-12 -104 -28.667 -193.333 -50 -268c-22.667 -74.667 -54 -145.334 -94 -212.001c-44.667 -74 -94 -136 -148 -186
c-56 -52 -129 -103.667 -219 -155l190 339c-39.333 -50 -77.5 -93.167 -114.5 -129.5s-74.167 -66.833 -111.5 -91.5c-71.333 -46.667 -146.333 -70 -225 -70c-59.333 0 -118.666 16.667 -177.999 50l12 26c-46 6.66699 -83.333 18.334 -112 35.001
c-27.333 16 -53.333 40.667 -78 74c-46 62 -69 137 -69 225v19z" />
    <glyph glyph-name="P" unicode="P" horiz-adv-x="1077" 
d="M528 579l-172 -53l-52 -294zM421 1177l-95 -33l-53 -215zM787 1016l-212.999 -365.001l16 6c1.33301 0.666992 4.66602 2 9.99902 4s9.33301 3.33301 12 4c6 2.66699 9.66699 4 11 4c53.333 18.667 92.333 34.334 117 47.001c20.667 10.667 40.334 24.334 59.001 41.001
c20 18 37.333 42.667 52 74c14 29.333 21 57.333 21 84c0 30 -7.66699 54.333 -23 73c-14.667 17.333 -35.334 26.666 -62.001 27.999zM456.001 1065l-63.001 -337l74 19c74.667 19.333 129.334 42.333 164.001 69c20.667 15.333 38.667 34.666 54 57.999
c16 24.667 28.333 49.334 37 74.001c8.66699 24 13 48.333 13 73c0 26 -8 48 -24 66s-36 27 -60 27s-59 -7 -105 -21zM248 123.999l-187.998 -78.999l173 817l-213 -292l142 718l367 94l-78 -152l40 15l67.5 24l47 17l18.5 7c41.333 14 82.666 21 123.999 21
c35.333 0 64.666 -6.66699 87.999 -20c22.667 -12.667 45 -35.667 67 -69c58.667 -16.667 100 -41 124 -73c24 -32.667 36 -78.334 36 -137.001c0 -78 -16 -151.667 -48 -221c-34 -71.333 -79.667 -131.666 -137 -180.999c-60 -52.667 -126.333 -90.334 -199 -113.001
l-100 -31c-28.667 -9.33301 -57.667 -23 -87 -41l-77 -370l-195 -73z" />
    <glyph glyph-name="Q" unicode="Q" horiz-adv-x="1354" 
d="M630 417l123.001 149.002l46 -51l-173 -294c26.667 -1.33301 38 -2 34 -2c57.333 0 107.666 17.333 150.999 52l-64 71l123 155l71 -72c61.333 102.667 92 216 92 340c0 30 -3 64 -9 102l-143 -219c15.333 45.333 26.333 84.333 33 117c6.66699 31.333 10 64.333 10 99
c0 68 -14.667 121.667 -44 161c-30 38.667 -70.667 58 -122 58c-22.667 0 -43.667 -4 -63 -12l38 68c-24 10 -48 15 -72 15c-48 0 -95.667 -15 -143 -45c-46.667 -30.667 -88.334 -73.334 -125.001 -128.001c-37.333 -55.333 -66.333 -117 -87 -185
c-21.333 -70 -32 -140 -32 -210c0 -42 4 -88.667 12 -140l101 142l2 -32c2.66699 -48.667 7.33398 -87 14.001 -115c4.66699 -24.667 14 -49.334 28 -74.001c28 -49.333 68.667 -74 122 -74c45.333 0 87.333 20.333 126 61zM1261 140.002l-128.997 -154.999l-106 112
l-28 -29l-75 81c-42 -32.667 -79.333 -57.667 -112 -75c-33.333 -18 -68.666 -31.667 -105.999 -41s-76.333 -14 -117 -14c-21.333 0 -44 2 -68 6l45 90c-42 -15.333 -78.333 -23 -109 -23c-58 0 -107.333 18.333 -148 55c-41.333 37.333 -77.333 95 -108 173l-52 -73
c-16.667 36.667 -29.334 69.334 -38.001 98.001c-10.667 31.333 -18 63.666 -22 96.999c-4 31.333 -6 65.333 -6 102c0 102 17.333 201.667 52 299c35.333 98.667 83.666 186.667 144.999 264c60.667 76 130 137 208 183c77.333 44 157.666 66 240.999 66
c34 0 71.333 -6 112 -18l-24 -49c87.333 0 157.666 -24.667 210.999 -74c52 -50 78 -117 78 -201c0 -12.667 -0.333008 -21.334 -1 -26.001l80 110c35.333 -74 53 -154 53 -240c0 -94.667 -14 -186.667 -42 -276c-30 -91.333 -75.667 -184.333 -137 -279l62 -70
c24 42.667 62 104 114 184c36.667 56.667 69.667 105 99 145c-32.667 -114.667 -83.667 -225.667 -153 -333z" />
    <glyph glyph-name="R" unicode="R" horiz-adv-x="1185" 
d="M900 1000l-179 -286.002c46.667 14.667 83 31 109 49c27.333 19.333 49 44 65 74c15.333 30.667 23 61.334 23 92.001c0 22.667 -6 46.334 -18 71.001zM637 1081l-158.999 -38l-58 -290l205 43c49.333 11.333 88.666 34.666 117.999 69.999s44 77 44 125
c0 32.667 -7 57.334 -21 74.001s-34 25 -60 25c-22 0 -45 -3 -69 -9zM522.001 1154l-177 -35l-65 -370zM338.001 82.998l160 268l-73 -293l-102 -35zM966.001 323.998l145.001 216.003c1.33301 -52 2 -74 2 -66c0 -50.667 -4.66699 -117.334 -14 -200.001
c-8.66699 -66.667 -13 -110.667 -13 -132c0 -14.667 1.33301 -31.334 4 -50.001l-190 -45c-2 18 -3 30.667 -3 38c0 37.333 7.66699 80.666 23 129.999c13.333 34 28.666 70.333 45.999 109zM301.002 125.001l-191.001 -32.002l100 545l-190 -280l167 913l444 85l-62 -113
l160 34c29.333 6.66699 56.333 10 81 10c46.667 0 84.667 -13.167 114 -39.5s50 -65.833 62 -118.5l44 63c27.333 -26 46.333 -52 57 -78c10.667 -25.333 16 -57.666 16 -96.999c0 -72 -16.333 -136.667 -49 -194c-32.667 -58 -85 -113.667 -157 -167
c36 -20.667 60.333 -41.667 73 -63s19 -50 19 -86c0 -50 -12 -116.667 -36 -200l-96 -165l-82 -18c-2 28 -3 47.333 -3 58c0 30.667 5 82 15 154c4 32 6 61 6 87c0 34.667 -9 61.334 -27 80.001c-18.667 18.667 -44.667 28 -78 28c-28 0 -60.667 -10.667 -98 -32l43 72
c-19.333 19.333 -44.666 29 -75.999 29c-30.667 0 -87.667 -10 -171 -30z" />
    <glyph glyph-name="S" unicode="S" horiz-adv-x="1144" 
d="M871 411l-137 -224.001c50 22 86.667 47.667 110 77c22.667 28.667 34 63.334 34 104.001c0 14.667 -2.33301 29 -7 43zM258 920.999l153 253c-50 -16.667 -90 -43 -120 -79c-30 -34.667 -45 -74 -45 -118c0 -13.333 4 -32 12 -56zM61 409.999l192.004 49.001
c-0.666992 -6.66699 -1 -20 -1 -40c0 -79.333 25.667 -119 77 -119c-0.666992 0 6.33301 0.666992 21 2l22 33c6 -40 19.667 -69.667 41 -89s51.666 -29 90.999 -29c42.667 0 84 10 124 30c39.333 18.667 71.666 44.667 96.999 78c24.667 32.667 37 66 37 100
c0 25.333 -7 44.333 -21 57c-14.667 14 -39.334 24.333 -74.001 31c-38 7.33301 -96.667 15 -176 23l33 66h-45c-54 0 -100 3 -138 9s-68.667 16 -92 30c-21.333 12 -39 30.333 -53 55c-13.333 24 -23 53.667 -29 89l-55 -66c-22.667 26.667 -39 52 -49 76
s-15 52.333 -15 85c0 48.667 11.667 102 35 160c23.333 57.333 54.666 108 93.999 152c37.333 41.333 78.666 75.333 123.999 102c42 25.333 103.667 52 185 80l36 12l-78 -153c95.333 46.667 182.333 70 261 70c46.667 0 85.334 -10.333 116.001 -31s52 -52 64 -94l24 36
c86 -42 129 -115 129 -219c0 -19.333 -1.33301 -41 -4 -65l-188 -43c-0.666992 37.333 -5.66699 66.333 -15 87c-9.33301 20 -26 37.667 -50 53l-23 -37l-37 -17c-1.33301 45.333 -10.333 78 -27 98c-17.333 19.333 -44.333 29 -81 29c-54.667 0 -107.667 -19.667 -159 -59
c-51.333 -40 -77 -81 -77 -123c0 -14.667 5 -29 15 -43c8.66699 -14 20 -24.333 34 -31c14.667 -6 36.667 -10.667 66 -14c27.333 -3.33301 67 -5.33301 119 -6l39 -1l-33 -55l26 -2c78 -7.33301 131 -14 159 -20c33.333 -6.66699 60.666 -15.667 81.999 -27
c53.333 -27.333 80 -71 80 -131c0 -0.666992 -0.666992 -12.334 -2 -35.001l69 89c44 -56.667 66 -115 66 -175c0 -72.667 -21.667 -147.667 -65 -225s-98.666 -138.666 -165.999 -183.999c-34.667 -24 -72 -42.667 -112 -56c-37.333 -12.667 -84.666 -23 -141.999 -31
l79 146c-38.667 -24 -73.334 -43 -104.001 -57c-34 -15.333 -63.667 -26.333 -89 -33c-26 -6.66699 -52.667 -10 -80 -10c-41.333 0 -77.666 7.33301 -108.999 22c-32.667 15.333 -64.667 38.666 -96 69.999c-54.667 15.333 -94.334 41 -119.001 77
c-25.333 36.667 -38 86.667 -38 150c0 7.33301 1.66699 32 5 74z" />
    <glyph glyph-name="T" unicode="T" horiz-adv-x="1038" 
d="M579 113l-190.999 -40.999l57 286c10 49.333 31.333 110 64 182l-248 -370l168 881c-32 -10 -58.667 -21 -80 -33c-25.333 -14 -54 -32.333 -86 -55l36 164l-272 -56l29 199l333 62c45.333 8 85.333 19 120 33c-6.66699 -24.667 -15.667 -49.667 -27 -75l-21 -44
c-0.666992 -1.33301 -1.83398 -4.16602 -3.50098 -8.49902s-3.83398 -9.5 -6.50098 -15.5c46 26 92.667 44 140 54l330 69l-31 -151c2.66699 2 5.33398 4.33301 8.00098 7c0.666992 1.33301 1.16699 2.16602 1.5 2.49902l5.5 5.5c24.667 26 46 43.333 64 52
c15.333 8 43 13.667 83 17l-35 -198l-125 -27c-40.667 -9.33301 -74 -25 -100 -47l80 152c-44 -14.667 -71 -23.334 -81 -26.001l-47 -12.5c-16.667 -4.33301 -26 -6.83301 -28 -7.5l-97 -20l-96 -533l236 388c-27.333 -70 -47.333 -140.333 -60 -211z" />
    <glyph glyph-name="U" unicode="U" horiz-adv-x="1278" 
d="M217 667l-196.996 -285.005c33.333 127.333 56.666 231 69.999 311l7 36l98 536l201 38l-46 -248c-4.66699 -27.333 -13.334 -63.666 -26.001 -108.999c-14 -56.667 -30 -111.667 -48 -165l-10 -30l215 327l-102 -601c-4.66699 -26 -7 -49.667 -7 -71
c0 -31.333 7 -57 21 -77s32.667 -30 56 -30c9.33301 0 19.333 2 30 6l9 16c10 -35.333 23.667 -60.666 41 -75.999s41.333 -23 72 -23c40.667 0 80.667 12.667 120 38c40 26 70.333 58.333 91 97c22.667 40.667 42.667 109.334 60 206.001l102 561l-217 -356
c23.333 66 43.333 144 60 234l55 293l186 37l-26 -110l23 20l137 17l-102 -542c-6.66699 -42 -16.667 -89 -30 -141c-12 -51.333 -24.667 -97.333 -38 -138l208 299l-70 -333c-10.667 -52 -28 -102 -52 -150c-22.667 -45.333 -51.667 -86.666 -87 -123.999
s-74.666 -68.666 -117.999 -93.999c-44.667 -26 -94.334 -46.333 -149.001 -61l107 205c-52.667 -46.667 -110.334 -83 -173.001 -109c-62 -26.667 -122.667 -40 -182 -40c-37.333 0 -68.333 4.66699 -93 14c-22.667 8.66699 -49.667 26 -81 52l13 19
c-4.66699 -0.666992 -12.334 -1 -23.001 -1c-43.333 0 -80 18.333 -110 55c-30 36 -45 80.333 -45 133c0 41.333 3 80 9 116z" />
    <glyph glyph-name="V" unicode="V" horiz-adv-x="1069" 
d="M829 379l-138 -321.002l-140 -38c32.667 66 61.334 120.333 86.001 163c31.333 53.333 79.333 129.333 144 228c16 24 27.667 42 35 54l19 29.5c6.66699 10.333 11.667 18.5 15 24.5c18.667 28 34 52 46 72c11.333 16 18.666 27 21.999 33
c4.66699 7.33301 11.667 19 21 35c9.33301 14.667 16.333 25.334 21 32.001c26.667 42.667 48.667 76.334 66 101.001c-48 -90 -91.667 -178.667 -131 -266l-53 -118zM535 818.998l213 518.001l117 28c-45.333 -90.667 -100.333 -190.334 -165 -299.001
c-42.667 -72 -97.667 -154.333 -165 -247zM57 960.999l-33 326l205 43l7 -79c3.33301 -33.333 5 -68.666 5 -105.999c0 -28.667 -1 -55 -3 -79l120 192l43 -695l111 171l18 -313l334 846l211 42l-508 -1178l-186 -34l-37 380l-108 -156l-61 647l-108 -144
c-0.666992 5.33301 -1 12.666 -1 21.999l-3 44c0 -3.33301 -0.666992 9 -2 37c-2 20.667 -3.33301 32 -4 34z" />
    <glyph glyph-name="W" unicode="W" horiz-adv-x="1684" 
d="M633 1289l7.99902 28l162 28l-1 -25l-17 -30c-44.667 -80 -93.667 -163 -147 -249s-110 -172.667 -170 -260l-18 -26l12 30c54.667 143.333 93.334 252.333 116.001 327zM523.999 130l-178.999 -37.9951l-12 206l-2 30c-0.666992 8.66699 -1 28 -1 58
c0 64.667 8 124.334 24 179.001l-151 -216c2 43.333 3 74.666 3 93.999c0 26 -0.333008 46.333 -1 61c0 18.667 -0.333008 29.334 -1 32.001l-19 349c-2 31.333 -3 51.666 -3 60.999c0 49.333 10.333 106.333 31 171c-36 -47.333 -65.333 -91.333 -88 -132l-58 -104
c0 1.33301 -5.66699 -8.66699 -17 -30c2 29.333 3 61.666 3 96.999c0 36 -0.666992 70.667 -2 104l-17 231l191 45l-2 -194c1.33301 2 3.16602 4.33301 5.49902 7s4.5 5 6.5 7c2.66699 3.33301 5.66699 6.66602 9 9.99902l37 42.5c6 7 10.667 12.167 14 15.5
c8.66699 8.66699 25 23.667 49 45l25 -469c1.33301 -58.667 2 -106.667 2 -144v-58l143 226c-12.667 -40 -19 -84.333 -19 -133c0 -22.667 0.333008 -37 1 -43l9 -176l175 514l11 31c31.333 90 62.333 169 93 237l176 38l-4 -332c0 -2 -1 -24 -3 -66l-6 -86l-2 -33l160 269
c-5.33301 -25.333 -9.5 -50.333 -12.5 -75s-5.33301 -47.667 -7 -69s-2.5 -42.333 -2.5 -63l-6 -330l309 774l190 44l-301 -775l415 683l21 2l-478 -1139l-183 -46c0.666992 1.33301 1.16699 3.16602 1.5 5.49902s0.5 4.5 0.5 6.5v9c2.66699 32 6 59.667 10 83
c3.33301 20.667 8.66602 43.667 15.999 69l-47 -76l-103 -26c-2.66699 48 -4 106 -4 174c0 29.333 0.333008 55.166 1 77.499s1 47.166 1 74.499c0.666992 50 2.33398 97.333 5.00098 142c2 36 6 90.667 12 164c-42.667 -68.667 -80.667 -139.667 -114 -213
c-54.667 -120 -111 -268.667 -169 -446l-11 -34l-151 -40c26.667 58 61 122.667 103 194l36.5 60.5l25.5 42.5l42 70l51 84c51.333 85.333 77 128.333 77 129l25 39l-61 -66l-1 326z" />
    <glyph glyph-name="X" unicode="X" horiz-adv-x="1130" 
d="M1100 185l51 -159.999l-172 -42c30 77.333 70.333 144.666 121 201.999zM567 497.001l-261 -437l-217 -43l408 641l-25 86l-383 -623l-120 -30l407 638l-138 393l-73 -85l-88 244l218 43l12 -42c-1.33301 -20 -5 -40 -11 -60l120 29l101 -315l230 378l88 23l-233 -382h17
l18 -93l234 383l209 41l-366 -587l75 -223l72 105l161 -477l-218 -48l-53 168l-10 29c-8.66699 30 -15.667 69.667 -21 119l-83 -114z" />
    <glyph glyph-name="Y" unicode="Y" horiz-adv-x="1094" 
d="M421 111l-103.001 -33.001l70 432l-68 214l-77 -113c-10.667 72 -27.667 143 -51 213l-95 301l-77 -106c-5.33301 36.667 -12.666 72 -21.999 106l-39 143l207 49l12 -65l-24 -40l142 28l61 -242c8.66699 -38 14 -63 16 -75c4 -25.333 7.66699 -58.666 11 -99.999l85 125
l58 -217l280 518l198 47l-421 -755l-44 -247l535 919h50l-412 -724l-77 -437l-196 -44l29 174z" />
    <glyph glyph-name="Z" unicode="Z" horiz-adv-x="1207" 
d="M1175 1217l18 6.00098l-5 -21c-8.66699 -30.667 -14.667 -54.334 -18 -71.001l-7 -34l-2 -10c0 -0.666992 -0.666992 -3.66699 -2 -9s-2.33301 -9.66602 -3 -12.999l-545 -700l22 33l105 162l46.5 70.5l31.5 48.5l101 154c34 53.333 58.667 90.666 74 111.999l117 173
l49 74c0.666992 0.666992 6.66699 9 18 25zM171 1162l-99 -25.999l30 196l188 36c-16.667 -38.667 -34 -74.334 -52 -107.001c-20 -34.667 -42.333 -67.667 -67 -99zM-31 152.002l43 185.999l461 576l-17 -29c-1.33301 -2 -7.5 -12.167 -18.5 -30.5l-37.5 -61.5l-111 -179
l-43.5 -69l-66.5 -103c-48.667 -74.667 -79.667 -121 -93 -139c-36 -53.333 -75 -103.666 -117 -150.999zM468 143.001l-371 -70.999l27 169l662 835l-209 -45l77 124l-466 -98l52 192l530 111l-61 -124l358 78l-28 -175l-646 -822l194 36l-50 -119
c54.667 16 97 26.667 127 32l351 66l-29 -113l148 38l-34 -193l-224 -44l54 109l-422 -76c-40.667 -6.66699 -77.667 -17.334 -111 -32.001z" />
    <glyph glyph-name="bracketleft" unicode="[" 
d="M766 1549l-41 -82l126 26l-44 -205l-187 -37l44 100l-202 -26l-110 -663l204 308l-135 -731l162 48l-29 -115l159 33l-57 -206l-198 -40c-37.333 -7.33301 -78 -16.333 -122 -27l62 119l-209 -51l108 573l-205 -309l211 1227z" />
    <glyph glyph-name="backslash" unicode="\" horiz-adv-x="615" 
d="M539 184l13 -158l-156 -62zM255 1401l39 -622.001l23 38l69 102l68 -839l-156 -61l-30 414c-2.66699 26.667 -4 89.334 -4 188.001v64l1 43l-103 -167l-66 791l-78 -110l-18 197l155 30l3 -28l-47 -67z" />
    <glyph glyph-name="bracketright" unicode="]" 
d="M13 -68l41 82l-126 -26l44 206l187 36l-44 -100l202 26l110 663l-204 -307l135 730l-162 -47l29 114l-159 -33l57 206l198 40l122 27l-62 -118l208 50l-107 -572l205 308l-211 -1227z" />
    <glyph glyph-name="asciicircum" unicode="^" 
d="M82 1351v-1337h655v1337h-655zM751 0h-683v1365h683v-1365z" />
    <glyph glyph-name="underscore" unicode="_" horiz-adv-x="1024" 
d="M0 -452v179h1024v-179h-1024z" />
    <glyph glyph-name="grave" unicode="`" horiz-adv-x="639" 
d="M480 1308l22 -215l-138 -22l-33 79l-63 -14l-131 201l247 40l13 -144z" />
    <glyph glyph-name="a" unicode="a" horiz-adv-x="984" 
d="M597 546c-39.333 -22 -71.334 -38.667 -96.001 -50c-73.333 -35.333 -121.333 -61 -144 -77c-19.333 -14 -35.333 -31.333 -48 -52c-13.333 -21.333 -20 -41.333 -20 -60c0 -19.333 7.33301 -35.333 22 -48c14.667 -13.333 32.334 -20 53.001 -20
c57.333 0 107 27.333 149 82c42 55.333 70 130.333 84 225zM713.999 472c-4 -2.66699 -6.99902 -4.33398 -8.99902 -5.00098c-4.66699 -3.33301 -7.33398 -5 -8.00098 -5c-35.333 -21.333 -68.666 -39 -99.999 -53l-142 -238c40 0.666992 77 9.33398 111 26.001
c33.333 16 60.666 37.667 81.999 65c31.333 41.333 53.333 111.333 66 210zM271 658l-277 -436c-5.33301 28.667 -8 51.667 -8 69c0 77.333 23.667 146.666 71 207.999c19.333 26.667 44 51.334 74 74.001c24 18 70.667 46.333 140 85zM834 103l-177.996 -35
c-2.66699 26 -4 46.667 -4 62v15c-44 -50 -85.333 -84.333 -124 -103c-37.333 -18.667 -92 -31 -164 -37l81 149c-41.333 -30 -75 -50.333 -101 -61c-24 -10 -51 -15 -81 -15c-48.667 0 -87 14.667 -115 44s-42 69.333 -42 120c0 39.333 9 79.333 27 120
c17.333 41.333 40 75 68 101c46 43.333 126.333 87.333 241 132c78 29.333 125.333 50.333 142 63c26 17.333 39 41 39 71c0 40 -23.333 60 -70 60c-42 0 -80.667 -11.667 -116 -35c-17.333 -11.333 -31 -25 -41 -41c-9.33301 -14 -20 -37 -32 -69l-85 -9l143 240
c-86.667 -20 -144.334 -71.333 -173.001 -154l-157 -26c20 66 47.667 122 83 168c35.333 45.333 79.666 81.333 132.999 108s118.666 46 195.999 58l-64 -119c73.333 26 137.666 39 192.999 39c51.333 0 91.333 -11.333 120 -34s43 -55 43 -97c0 -30 -10 -81 -30 -153
l117 164c22 -40 33 -81.333 33 -124c0 -24 -4.66699 -61 -14 -111l-63 -313c-11.333 -56.667 -17 -95.667 -17 -117c0 -16.667 4 -37 12 -61z" />
    <glyph glyph-name="b" unicode="b" horiz-adv-x="1013" 
d="M742 744l-71.001 -113c0 39.333 -3 70 -9 92c-5.33301 21.333 -15 38 -29 50c-14.667 12 -31.334 18 -50.001 18c-36.667 0 -71.667 -16.667 -105 -50s-60.666 -78.333 -81.999 -135c-20.667 -56 -31 -114 -31 -174c0 -89.333 30.333 -134 91 -134
c4.66699 0 8 0.333008 10 1h12l14 26c8.66699 -37.333 19.334 -63.333 32.001 -78c12 -14.667 30.333 -22 55 -22c35.333 0 70.666 17.667 105.999 53c34.667 36 62.334 80.667 83.001 134c20.667 54 31 111 31 171c0 61.333 -19 115 -57 161zM13.999 1094l58 231l105 32
l-9 -17c-27.333 -52.667 -50 -92.667 -68 -120c-26 -40.667 -54.667 -82.667 -86 -126zM76.999 610l109.998 645.003l187 38l-58 -330l154 54l-43 -183c52.667 53.333 98.334 91.333 137.001 114c38.667 21.333 78.334 32 119.001 32c33.333 0 61.666 -7.66699 84.999 -23
c22.667 -16 43 -42.333 61 -79l24 36c30.667 -23.333 55.334 -48.333 74.001 -75s32 -56.334 40 -89.001s12 -70.334 12 -113.001c0 -155.333 -47.667 -295.333 -143 -420c-39.333 -52 -83.666 -93.667 -132.999 -125c-48.667 -30.667 -95.667 -46 -141 -46
c-22.667 0 -44.667 5.66699 -66 17c-19.333 10 -40.333 26.333 -63 49l-21 -72l-96 -26l65 119c-24 12.667 -45.667 29.667 -65 51l-24 -77l-177 -27l72 374l5 26c1.33301 9.33301 12.666 63.666 33.999 162.999l-196 -272c7.33301 29.333 14.333 59.333 21 90
c8 42 14.667 79.333 20 112z" />
    <glyph glyph-name="c" unicode="c" horiz-adv-x="999" 
d="M225 449l240.001 389.999c-56 -10 -104 -40.667 -144 -92c-30.667 -39.333 -54.334 -82.666 -71.001 -129.999c-17.333 -50 -26 -96 -26 -138c0 -14 0.333008 -24 1 -30zM761.001 555.999l166 239c25.333 -54 38 -110 38 -168v-8l-126 -30
c-26.667 -6.66699 -52.667 -17.667 -78 -33zM754.001 345.999l165.999 24c-35.333 -115.333 -92.666 -206.333 -171.999 -273c-81.333 -67.333 -172.333 -101 -273 -101c-20 0 -34.333 0.333008 -43 1l50 93c-50 -17.333 -90 -26 -120 -26c-58 0 -105 22.667 -141 68
s-54 104.333 -54 177c0 20.667 1 40 3 58l-106 -141c-20 69.333 -30 131 -30 185c0 87.333 21 176.333 63 267c42 90 97 165 165 225c38.667 34.667 82.334 61 131.001 79c49.333 18 106.666 29 171.999 33l-72 -125c66 31.333 120.333 47 163 47c35.333 0 68 -10 98 -30
s52 -46.333 66 -79c14.667 -32.667 23.667 -77 27 -133l-183 -43c-8.66699 70 -37.667 105 -87 105c-40 0 -77.333 -17.333 -112 -52c-35.333 -35.333 -63 -82 -83 -140c-20.667 -58 -31 -119.333 -31 -184c0 -86 31.667 -129 95 -129c53.333 0 98.333 26 135 78
c14 19.333 30.333 48.333 49 87l46 8l-150 -253c58 3.33301 106 19.333 144 48s66 70.667 84 126z" />
    <glyph glyph-name="d" unicode="d" horiz-adv-x="1119" 
d="M198 511l221.999 358.001c-39.333 -22 -68.666 -43.333 -87.999 -64c-24 -24.667 -46.667 -56.334 -68 -95.001c-34 -62.667 -56 -129 -66 -199zM764.999 671.001l-273.002 -436.001c22.667 -18.667 47.334 -28 74.001 -28c36.667 0 72.334 16 107.001 48
c34 30.667 61 72.334 81 125.001c20 51.333 30 107 30 167c0 42 -6.33301 83.333 -19 124zM571.997 775c-58 0 -111.333 -37.333 -160 -112c-49.333 -75.333 -74 -155.666 -74 -240.999c0 -45.333 8.33301 -81.333 25 -108s40 -40 70 -40c46 0 93.667 40.667 143 122
c58 95.333 87 181.666 87 258.999c0 22.667 -3.66699 43.334 -11 62.001c-8 17.333 -19 31.666 -33 42.999c-14 10 -29.667 15 -47 15zM1066 351l-51 -307l-164 -29c31.333 65.333 61.333 120 90 164c30 46.667 71.667 104 125 172zM851.997 805l219 325.999l-187 -1003
l-172 -45l3 66c-36 -38.667 -66.667 -67 -92 -85c-26 -18.667 -51.667 -32.667 -77 -42c-24 -8.66699 -51 -13 -81 -13c-25.333 0 -54 5.66699 -86 17l45 90c-32.667 -24 -65.667 -36 -99 -36c-34.667 0 -64.667 11 -90 33c-26 22.667 -45.333 54.334 -58 95.001
c-13.333 42 -20 89.667 -20 143c0 29.333 1.33301 63 4 101l-121 -170c-4 33.333 -6 66 -6 98c0 98 15 189.333 45 274c29.333 84 73.333 159.667 132 227c41.333 48 85.333 83.667 132 107c44.667 22.667 99 36.667 163 42l-60 -117c25.333 15.333 47.666 26.333 66.999 33
c18 6.66699 38.667 10 62 10c28.667 0 52.334 -6.33301 71.001 -19c17.333 -12 39 -35 65 -69l74 401l184 39l-42 -215l-22 -96c-14 -58.667 -29 -113.667 -45 -165z" />
    <glyph glyph-name="e" unicode="e" horiz-adv-x="993" 
d="M218 360l101 154l-120 -24c-0.666992 -4 -1 -10.667 -1 -20c0 -26 6.66699 -62.667 20 -110zM232 653l166.001 27.001l-39 -102l305 54c-2.66699 38.667 -7.66699 67 -15 85c-6.66699 16 -18.334 29 -35.001 39c-16.667 9.33301 -35 14 -55 14
c-31.333 0 -66.333 -16.333 -105 -49l56 102c-24.667 10 -48 15 -70 15c-46 0 -87 -16 -123 -48c-36.667 -32.667 -65 -78.334 -85 -137.001zM157.001 276.001l-63.0029 -77c-40 65.333 -60 133.333 -60 204c0 63.333 9.83301 126.666 29.5 189.999
s49.167 126.666 88.5 189.999c28.667 46.667 62.667 87.334 102 122.001c39.333 35.333 81.333 62.333 126 81c44 18 87.333 27 130 27c30 0 62 -5 96 -15l-34 -65c26 7.33301 48.667 11 68 11c44.667 0 81.334 -12.333 110.001 -37s50 -63.667 64 -117
c14 -52.667 21 -121.334 21 -206.001l112 146c8 -58 12 -108.333 12 -151c0 -44.667 -4 -92.667 -12 -144l-221 -45l42 94l14 22l-450 -88v-18c-0.666992 -3.33301 -1 -8 -1 -14c0 -39.333 9.66699 -70.666 29 -93.999c19.333 -24 44 -36 74 -36c72 0 134 43 186 129l84 9
l-135 -224c40 14.667 70.667 31 92 49c21.333 19.333 45.333 49.333 72 90l180 21c-40 -103.333 -109.667 -188.666 -209 -255.999c-55.333 -37.333 -132.666 -64.333 -231.999 -81l72 133c-78 -29.333 -140 -44 -186 -44c-39.333 0 -72 7 -98 21
c-25.333 12.667 -46.666 33.667 -63.999 63s-30.333 66 -39 110z" />
    <glyph glyph-name="f" unicode="f" horiz-adv-x="649" 
d="M64 800l-91 -17.001l22 145l94 21c16 60 30.667 107.667 44 143c12 29.333 27 56.666 45 81.999c45.333 61.333 118.333 109.333 219 144c-20 -41.333 -44 -86.166 -72 -134.499s-59 -98.166 -93 -149.499c-52.667 -80.667 -108.667 -158.667 -168 -234zM497 678.999
l-134.001 -647.001l-187 -37l56 311l-146 -213l-34 -11l125 638l-91 -10l30 147l92 19c28 128.667 72.333 220 133 274c25.333 23.333 57 41.666 95 54.999c38.667 12.667 92 23.334 160 32.001l-36 -167c-50 -6 -86.333 -20.667 -109 -44
c-22 -23.333 -37.667 -62.666 -47 -117.999l129 22l-36 -146l-124 -30l-27 -120c-11.333 -53.333 -32.666 -132 -63.999 -236l-9 -29l323 476l53 8l-25 -143z" />
    <glyph glyph-name="g" unicode="g" horiz-adv-x="1092" 
d="M231 336l270.999 424.001c-52.667 0 -100.667 -14 -144 -42c-43.333 -28.667 -77.666 -67.667 -102.999 -117c-24.667 -48.667 -37 -104.334 -37 -167.001c0 -30 4.33301 -62.667 13 -98zM439.999 249.001c28.667 0 56.333 7.33203 83 21.999
c27.333 15.333 49.666 35 66.999 59c24 33.333 42.333 70 55 110c13.333 42 20 81 20 117c0 41.333 -8 74 -24 98c-17.333 23.333 -40.666 35 -69.999 35c-50 0 -98 -33.667 -144 -101c-54.667 -78.667 -82 -151.667 -82 -219c0 -37.333 8.66699 -66.666 26 -87.999
c17.333 -22 40.333 -33 69 -33zM109.998 -92l0.00195312 25.0039l194 48c8 -31.333 17 -52 27 -62s26.333 -15 49 -15l26 2v-39l28 29c2 -28.667 7 -46.334 15 -53.001c7.33301 -7.33301 24.333 -11 51 -11c61.333 0 111 23.333 149 70
c37.333 45.333 63.666 116.666 78.999 213.999c-40 -40.667 -77.667 -70.667 -113 -90c-36.667 -20 -80.667 -36 -132 -48l112 188c126 59.333 193 162.666 201 309.999l-190 -293c-59.333 -44.667 -107 -75.334 -143 -92.001c-38.667 -18 -77.334 -27 -116.001 -27
c-48.667 0 -88.667 14.667 -120 44c-32 29.333 -54 71 -66 125l-56 -67c-47.333 72.667 -71 142.667 -71 210c0 65.333 15.333 135 46 209c29.333 74 68.333 139.667 117 197c85.333 97.333 177.333 146 276 146c34.667 0 71 -8.33301 109 -25l-23 -42h25
c30 0 55.333 -5.66699 76 -17c20 -12 40 -32 60 -60l21 77l172 36l-64 -338l165 251l24 1l-137 -695c-12.667 -71.333 -27.667 -127.666 -45 -168.999c-16.667 -40.667 -40 -78.334 -70 -113.001c-44 -48.667 -100.333 -89 -169 -121c-68.667 -31.333 -134.667 -47 -198 -47
c-38 0 -78.667 7 -122 21l26 47c-28 -1.33301 -42.333 -2 -43 -2c-54 0 -95.667 15.667 -125 47c-30 30.667 -45 73.667 -45 129z" />
    <glyph glyph-name="h" unicode="h" horiz-adv-x="1046" 
d="M251 436l240.999 385c-41.333 -8 -76.666 -23.667 -105.999 -47c-29.333 -24 -53.333 -60.333 -72 -109c-20 -48.667 -39 -114.667 -57 -198zM870.999 82l-184 -33l79 437l-180 -252l65 350c4 23.333 6 45.666 6 66.999c0 24.667 -5.66699 44.667 -17 60
c-10.667 14.667 -27 22 -49 22c-24.667 0 -48.667 -7 -72 -21c-24.667 -15.333 -44.334 -34.666 -59.001 -57.999c-13.333 -20.667 -24 -43.667 -32 -69c-8.66699 -26.667 -16.667 -59.667 -24 -99l-77 -411l-183 -32l52 308l-150 -217l-30 -9c18 68.667 34.667 144 50 226
l17 92l6 34l116 646c-7.33301 -12 -11.666 -18.667 -12.999 -20l-52 -80c-36 -57.333 -78 -115.666 -126 -174.999c25.333 86.667 44 165 56 235l4 26l34 189l179 37l-10 -62l-15 -36l151 24l-64 -386c36.667 45.333 72.667 78.666 108 99.999
c33.333 20 83.333 37.667 150 53l-90 -166c37.333 29.333 71.333 51 102 65c29.333 12 59 18 89 18c46.667 0 83 -14 109 -42s39 -68 39 -120c0 -23.333 -3 -50.666 -9 -81.999l-26 -127l148 214c5.33301 -30.667 8 -56.334 8 -77.001c0 -38.667 -6.33301 -92 -19 -160z" />
    <glyph glyph-name="i" unicode="i" horiz-adv-x="495" 
d="M10 824l34 159l98 22zM212 1132l-147 -26l34 189l181 34l-30 -145l23 44l128 24l-34 -187l-176 -36zM167 913l177.999 31.001l-98 -525l204 284c-9.33301 -30.667 -21.666 -79.334 -36.999 -146.001l-103 -479l-175 -34l23 117c8 42 27 107 57 195l11 33l-177 -265
l-38 -1z" />
    <glyph glyph-name="j" unicode="j" horiz-adv-x="495" 
d="M44 794l36 172l142 40l-7 -27l-207 -300c14.667 34 26.667 72.333 36 115zM140 1282l178 39l-52 -192l-161 -34zM373 1238l62 10l-28 -183l-162 -38zM248 294l206.001 302.999l-81 -474c-12.667 -72.667 -25 -128 -37 -166c-12.667 -41.333 -28.667 -75.333 -48 -102
c-18.667 -26.667 -42.334 -47.667 -71.001 -63c-28 -15.333 -63 -26.333 -105 -33l-88 -15l25 174c46 11.333 77 25 93 41s27.667 44.333 35 85l32 185l-240 -383l-71 -25l36 167c36 10.667 61.667 20.667 77 30s26.333 23.333 33 42c8 20.667 15.333 51.334 22 92.001
l133 752l185 34l-57 -317c-14.667 -86 -38 -185 -70 -297z" />
    <glyph glyph-name="k" unicode="k" horiz-adv-x="989" 
d="M364 487l-81 -96l-20 -132l119 185zM168 118l-119 -34l151 847l-186 -270l112 609l184 40l-15 -105l-48 -192l131 213l50 6l-103 -599l287 338l80 26l-160 -296l-50 -116l246 316l223 46l-300 -359l115 -275l59 89l126 -317l-216 -51l-60 150l-60 -75l-124 307l-89 -103
l-43 -259l-187 -37l43 167z" />
    <glyph glyph-name="l" unicode="l" horiz-adv-x="495" 
d="M398 327l-40.998 -259.001l-182 -44l21 111l-147 -36l115 635c7.33301 45.333 24.666 118.333 51.999 219l-202 -304l6 31c2.66699 10.667 7 33 13 67l10 55l5 30l71 446l188 42l-24 -145l-6 -33l-8 -47l-12 -55l-8 -33l148 222l37 11
c-0.666992 -6.66699 -2 -14.167 -4 -22.5s-3.83301 -16.333 -5.5 -24l-4 -18c-1 -4.33301 -2.16699 -9.83301 -3.5 -16.5l-10.5 -55c-3.66699 -20 -6.83398 -36 -9.50098 -48l-150 -808c66 110 132.333 207.667 199 293c-21.333 -83.333 -37.333 -154.666 -48 -213.999z" />
    <glyph glyph-name="m" unicode="m" horiz-adv-x="1634" 
d="M996 24l-147.999 -41.002l12 49l212 374c-8.66699 -27.333 -16 -56 -22 -86c0 0.666992 -5.33301 -25.666 -16 -78.999c-4.66699 -25.333 -8.33398 -44.666 -11.001 -57.999l-23 -136zM473.001 3.99805l-114 -48.999c38.667 85.333 79.334 167.666 122.001 246.999
l66 121c1.33301 2 3.5 6 6.5 12l10.5 21c-28 -74 -47.667 -132 -59 -174c-12.667 -48.667 -23.334 -108 -32.001 -178zM28.001 -1.00098l-130 -48.001c64.667 136.667 139.334 264.334 224.001 383.001c-24.667 -52.667 -45.334 -108 -62.001 -166
c-15.333 -54.667 -26 -111 -32 -169zM129.001 589.998l41.998 311l180 45l-10 -133l134 63l-3 -80l24 28c38.667 44.667 74.667 76.334 108 95.001c34.667 19.333 71.334 29 110.001 29c30 0 54.333 -7 73 -21c18.667 -14.667 35 -38 49 -70l26 36
c25.333 -14 45.333 -30.333 60 -49c14 -17.333 25.667 -42.333 35 -75c45.333 67.333 90.333 117.333 135 150c45.333 32 91.666 48 138.999 48c30.667 0 56 -8 76 -24c19.333 -17.333 38 -46.333 56 -87l29 37c31.333 -10 54 -24.667 68 -44
c13.333 -20.667 20 -48.667 20 -84c0 -26 -3.33301 -62.667 -10 -110l-64 -469l18 29l82 133c40.667 64.667 80 123.334 118 176.001c-19.333 -50.667 -37 -114.334 -53 -191.001l-57 -278l-165 -54c8.66699 44 16.334 77.667 23.001 101l6 19l-169 -43l71 432
c8 46 12 80.667 12 104c0 39.333 -13.333 67.333 -40 84l-93 -144c8.66699 45.333 13 83.666 13 114.999c0 64 -22.667 96 -68 96c-79.333 0 -133.666 -85 -162.999 -255l-71 -412l-179 -39l72 433c8.66699 52.667 13 90 13 112c0 31.333 -8.33301 57.666 -25 78.999
l-129 -218c17.333 76.667 26 134.667 26 174c0 66.667 -22 100 -66 100c-80.667 0 -135 -91.333 -163 -274l-59 -389l-186 -39l64 368c8.66699 50 18.667 94.333 30 133s30.333 87.334 57 146.001l12 27l-196 -316l-63 -72c23.333 97.333 40.333 186.333 51 267z" />
    <glyph glyph-name="n" unicode="n" horiz-adv-x="1021" 
d="M0 104l142.998 797l170 38l-7 -84c30 37.333 55 65 75 83c20.667 18.667 44.334 33.667 71.001 45c22.667 9.33301 56.667 19 102 29l-108 -201c-51.333 -15.333 -91.666 -41 -120.999 -77c-29.333 -38 -51 -87.333 -65 -148l-30 -143l180 299
c40 52 71.333 89.333 94 112c50.667 50.667 108.667 76 174 76c44.667 0 79.334 -14.333 104.001 -43c25.333 -29.333 38 -68 38 -116c0 -16.667 -1.66699 -37.334 -5 -62.001l-15 -102l128 195c10 -40.667 15 -76.334 15 -107.001c0 -36.667 -5.33301 -85.667 -16 -147
l-83 -471l-179 -36l64 333l6 28c5.33301 28.667 18 82 38 160l-199 -298l52 310c4.66699 24 7 49 7 75c0 26.667 -5 46.334 -15 59.001c-10.667 12.667 -26.334 19 -47.001 19c-18.667 0 -37.667 -4.33301 -57 -13c-20 -8.66699 -37.333 -21 -52 -37
c-34.667 -35.333 -60 -94 -76 -176l-7 -42l-75 -391l-179 -42l31 172c7.33301 42.667 20.333 100.334 39 173.001l8 29z" />
    <glyph glyph-name="o" unicode="o" horiz-adv-x="1019" 
d="M814 537l-227 -379c142 90.667 217.667 217 227 379zM228 330l125.002 195.999c-14 -46.667 -21 -89.667 -21 -129c0 -48 9 -84.667 27 -110c18 -26 43.667 -39 77 -39c39.333 0 78.666 17.667 117.999 53c38 34.667 69 81.334 93 140.001c24 58 36 116.667 36 176
c0 50 -9.66699 88.667 -29 116s-47 41 -83 41c-20.667 0 -44.667 -7.66699 -72 -23c-3.33301 -1.33301 -6.66602 -3 -9.99902 -5c-2.66699 -1.33301 -7.33398 -4 -14.001 -8l44 79c-22 16 -45 24 -69 24c-40.667 0 -80.334 -17.667 -119.001 -53
c-38.667 -36 -69.667 -83 -93 -141c-24 -58.667 -36 -120 -36 -184c0 -50 8.66699 -94.333 26 -133zM171.002 240.999l-51.0029 -70.002c-30.667 42.667 -52.667 83.334 -66 122.001c-13.333 38 -20 80.667 -20 128c0 73.333 13.333 145 40 215s63.667 134.667 111 194
c46.667 58.667 99.334 104.667 158.001 138s116.334 50 173.001 50c30 0 64.333 -6 103 -18l-33 -61c25.333 4 46.333 6 63 6c64.667 0 116.334 -25.333 155.001 -76c39.333 -51.333 59 -116.666 59 -195.999c0 -14.667 -1 -36.667 -3 -66l103 146
c14.667 -48.667 22 -97.667 22 -147c0 -57.333 -8.66699 -116 -26 -176c-18 -60 -43.333 -116 -76 -168c-34.667 -55.333 -73.334 -103 -116.001 -143c-32 -30 -68.333 -54.667 -109 -74c-42.667 -20 -94.667 -37.333 -156 -52l74 145c-47.333 -24 -86.666 -41 -117.999 -51
c-32 -10 -63 -15 -93 -15c-49.333 0 -89.333 13.333 -120 40c-30 25.333 -54.667 68.333 -74 129z" />
    <glyph glyph-name="p" unicode="p" horiz-adv-x="981" 
d="M227 -6l96 149l-13 12l-25 24l-12 12zM674 725l-28.998 -51.999c-7.33301 79.333 -41 119 -101 119c-36 0 -71.667 -17.667 -107 -53c-34.667 -34.667 -62.667 -80.334 -84 -137.001c-21.333 -58 -32 -116.333 -32 -175c0 -82 32 -127 96 -135l27 42
c3.33301 -33.333 13.666 -59.333 30.999 -78c17.333 -19.333 39.666 -29 66.999 -29c38 0 74 17.333 108 52c34 35.333 61.333 80.333 82 135c21.333 56 32 113.333 32 172c0 78.667 -30 125 -90 139zM113.002 -185.999l-88 2.99902l127 671
c16 85.333 31.333 156.333 46 213l7 30l-205 -301l102 525l174 31l-4 -103l127 33l-5 -82c52 56 95.333 94.333 130 115c34 20 72.667 30 116 30c30 0 55.333 -5.33301 76 -16c20.667 -11.333 41.667 -29.666 63 -54.999c58.667 -12.667 101.667 -39 129 -79
c26 -40 39 -99 39 -177c0 -96.667 -20 -192 -60 -286c-40.667 -94.667 -92.667 -171.667 -156 -231s-127.666 -89 -192.999 -89c-26.667 0 -50.667 5 -72 15c-22.667 9.33301 -47.334 27.333 -74.001 54l-65 -343l-182 -34c4 25.333 9.33301 51 16 77
c5.33301 18 19.333 60 42 126l8 23z" />
    <glyph glyph-name="q" unicode="q" horiz-adv-x="1034" 
d="M275 261l67.998 102.999v-17c-0.666992 -2.66699 -1 -7 -1 -13c0 -82.667 28.667 -124 86 -124c29.333 0 57.333 10 84 30c26 18.667 51 46 75 82c22 34.667 39.333 73.334 52 116.001c12.667 40.667 19 83.667 19 129s-8 80 -24 104
c-17.333 23.333 -39.666 35 -66.999 35c-8 0 -17.667 -1 -29 -3l10 19l-24 -18c-8 24 -17.667 41.333 -29 52c-12 10 -29.667 15 -53 15c-57.333 0 -108.666 -36 -153.999 -108c-44.667 -72.667 -67 -154.667 -67 -246c0 -33.333 4.33301 -62 13 -86
c9.33301 -26 23 -49.333 41 -70zM954.998 445.999l-126.998 -674l-179 -33l62 352l-159 -102l40 169c-50 -52 -96.333 -90 -139 -114c-42.667 -23.333 -85.334 -35 -128.001 -35c-70.667 0 -118.667 38.667 -144 116l-36 -44c-40 34 -68.667 70.667 -86 110
c-16.667 37.333 -25 83.666 -25 138.999c0 80.667 14 161.334 42 242.001c28 82 66.333 152 115 210c40.667 50.667 85 91.334 133 122.001c47.333 29.333 90.666 44 129.999 44c43.333 0 85 -23.333 125 -70l27 72l71 25l-51 -105c25.333 -15.333 50.333 -37 75 -65l24 77
l177 36l-106 -572l200 308c-2.66699 -12.667 -5.66699 -27.667 -9 -45c-2.66699 -10.667 -4.5 -18.334 -5.5 -23.001l-3.5 -17c-0.666992 -4.66699 -1.5 -9.5 -2.5 -14.5s-2.16699 -10.167 -3.5 -15.5l-11 -60z" />
    <glyph glyph-name="r" unicode="r" horiz-adv-x="638" 
d="M451 296l-50 -223l-114 -40zM54 584l78.999 394.999l171 33l-5 -91c20.667 30 40.334 55.667 59.001 77c15.333 17.333 35.333 35.333 60 54l-12 -23c-38 -72.667 -81.333 -150 -130 -232c-50 -84.667 -99 -161.667 -147 -231l-95 -140l-20 -29
c16.667 72.667 28 125.334 34 158.001zM328.999 408.999l-54.999 -268.001l-169 -31l52 287c22.667 124 52 227.333 88 310c35.333 80.667 82.666 153.667 141.999 219l43 11l-10 -108c27.333 52.667 58.333 93.334 93 122.001c35.333 29.333 71 44 107 44h8
c1.33301 -0.666992 4 -1 8 -1l-36 -185c-84 -12.667 -148.333 -61 -193 -145c-28 -52.667 -54 -137.667 -78 -255z" />
    <glyph glyph-name="s" unicode="s" horiz-adv-x="903" 
d="M742 431l35 45.001c24 -20.667 42 -42.667 54 -66c11.333 -24 17 -50 17 -78c0 -50.667 -16.333 -102.667 -49 -156c-32.667 -54.667 -75.667 -100 -129 -136c-33.333 -22.667 -67.333 -40 -102 -52c-36.667 -13.333 -82.667 -24.333 -138 -33l78 137
c48 18.667 85.333 40.667 112 66c27.333 25.333 41 51.333 41 78c0 16.667 -8.33301 33 -25 49l-116 -174c-52.667 -28.667 -94 -48 -124 -58c-35.333 -11.333 -70.333 -17 -105 -17c-52.667 0 -95.334 15.333 -128.001 46c-33.333 30 -50 69.667 -50 119
c0 16.667 0.333008 28 1 34l-76 -83c-20.667 31.333 -34 57 -40 77c-8 22 -12 49.333 -12 82c0 16 1.33301 33.333 4 52l161 25c-2.66699 -12.667 -4 -24 -4 -34c0 -25.333 8.33301 -48.333 25 -69l108 24v-15c-0.666992 -2.66699 -1 -7 -1 -13
c0 -27.333 8.33301 -49.333 25 -66s38.334 -25 65.001 -25c42 0 81.333 13.333 118 40s55 54.667 55 84c0 24 -9.66699 41 -29 51c-21.333 9.33301 -63.333 18 -126 26c-49.333 6 -93.666 15.667 -132.999 29l26 38c-130 11.333 -195 61.666 -195 150.999
c0 46 10.667 92 32 138c21.333 44.667 50 83 86 115s78.333 57.667 127 77c46 18.667 96.667 28 152 28c34.667 0 73.667 -5.33301 117 -16l-36 -64c2 0.666992 4.83301 1.16699 8.5 1.5s7.16699 0.5 10.5 0.5c8 0 13 0.333008 15 1h12c54.667 0 97 -17 127 -51
s45 -81.667 45 -143v-29l-159 -30c-2 38 -10.333 64.667 -25 80c-14.667 16 -37.667 24 -69 24c-18 0 -37 -4.33301 -57 -13l27 43c-24 28.667 -55 43 -93 43c-36.667 0 -70.334 -10.667 -101.001 -32c-30 -22 -45 -46.667 -45 -74c0 -15.333 4.66699 -27.666 14 -36.999
s25 -16 47 -20c20.667 -4.66699 50.667 -7 90 -7l-23 -35c6 -12.667 14.333 -22 25 -28c12 -6.66699 29 -11.334 51 -14.001l108 -13c46.667 -6 82.667 -17.667 108 -35c24 -18 45 -47.333 63 -88z" />
    <glyph glyph-name="t" unicode="t" horiz-adv-x="657" 
d="M633 239l-25 -170.001c-8.66699 -1.33301 -14.334 -2.33301 -17.001 -3c-2 0 -4.16699 -0.166992 -6.5 -0.5s-4.5 -0.833008 -6.5 -1.5c-42.667 -7.33301 -72.334 -13.333 -89.001 -18c-19.333 -6.66699 -39.666 -15.667 -60.999 -27
c42.667 84.667 81.334 150.334 116.001 197.001zM229 1229l-216 -342l-61 -19l33 141l84 27l59 247l139 37zM244 1211l184.001 30.002l-42 -249l120 21l-32 -145l-117 -31l-6 -28l-14 -64c-12.667 -54 -24.667 -102 -36 -144l-9 -33l217 352l118 23l-21 -148l-130 -32
l-67 -373l-5 -25c-2 -10.667 -3 -21.334 -3 -32.001c0 -24 11.333 -36 34 -36h6c2.66699 0.666992 6.66699 1 12 1l66 9l-41 -159c-66.667 -22 -122.334 -33 -167.001 -33c-32 0 -56.667 9 -74 27c-18 17.333 -27 42.666 -27 75.999c0 27.333 7.66699 82 23 164l19 96l8 39
l-186 -254l96 539l-89 -12l20 150l97 19z" />
    <glyph glyph-name="u" unicode="u" horiz-adv-x="1021" 
d="M754 571l7 33l-256 -390c55.333 11.333 96.333 27 123 47c27.333 21.333 50.333 54.333 69 99c18 44 37 114.333 57 211zM976 906l10.0029 2.00098l-153 -787l-173 -34l5 75c-48 -54 -88.667 -90.667 -122 -110c-34 -19.333 -82 -33 -144 -41l77 151
c-34 -24.667 -65.333 -43.334 -94 -56.001c-26.667 -11.333 -54.334 -17 -83.001 -17c-44.667 0 -80.334 15.333 -107.001 46c-28 30 -42 69.333 -42 118c0 25.333 4 57.333 12 96c1.33301 3.33301 2.66602 8 3.99902 14s2.66602 11.667 3.99902 17l9 43l7 31l-143 -206
c-6 33.333 -9 62.333 -9 87c0 43.333 9.66699 115.333 29 216l77 393l180 39l-77 -443l190 274c-18.667 -74 -33 -135.667 -43 -185l-30 -157c-6 -38.667 -9 -68 -9 -88c0 -55.333 22 -83 66 -83c32.667 0 63.334 12 92.001 36c28 22 50.667 52.667 68 92
c9.33301 24 21 70.333 35 139l72 385l179 38l-48 -308z" />
    <glyph glyph-name="v" unicode="v" horiz-adv-x="849" 
d="M869 833l-303 -767l-177 -39l12 25c56.667 111.333 127 235 211 371l114 184l115 181zM73 552l-53 365.999l188 42l17 -166c4 -32.667 6 -66.667 6 -102c0 -34 -3 -78 -9 -132l126 206c0 -23.333 2.66699 -55.666 8 -96.999l35 -271l216 556l179 44l-362 -855l-167 -47
l-46 312c-6.66699 44.667 -10.667 82 -12 112l-114 -163c1.33301 41.333 2 57.333 2 48c0 34 -3 71.333 -9 112z" />
    <glyph glyph-name="w" unicode="w" horiz-adv-x="1358" 
d="M1378 871l-333 -815l-163 -38v38l16 30l44 81c23.333 43.333 50 90 80 140l75 126l46.5 74.5l57.5 93.5c74 117.333 133 207.333 177 270zM55 495l-35.001 401.999l185 39l14 -147c4.66699 -51.333 7 -96 7 -134c0 -4.66699 -0.166992 -14.667 -0.5 -30
s-0.833008 -31.666 -1.5 -48.999l-1 -37l124 195l22 -315l190 500l156 36l13 -152c3.33301 -38.667 5 -71.667 5 -99c0 -30 -1.33301 -62.667 -4 -98l131 191l19 -376l193 514l184 42l-349 -846l-156 -40l-24 313c-2 23.333 -3 51.333 -3 84c0 26 0.333008 46 1 60
l-214 -512l-129 -38l-6 15l274 461l-43 -44l-15 201l-205 -527l-175 -36l-28 406l-119 -161c-1.33301 50 -2.66602 81 -3.99902 93l-4 59z" />
    <glyph glyph-name="x" unicode="x" horiz-adv-x="882" 
d="M748 345l93.999 -230.999l-213 -43c-13.333 33.333 -24.666 66.666 -33.999 99.999c-10 34 -18.667 67 -26 99l-71 -92l-74 185l-184 -272l-202 -40l323 472l-45 115l-322 -498l-76 -16l323 472l-137 329l208 50l72 -186l141 226l20 3l-124 -208l36 29l51 -131l146 235
l188 34l-276 -409l82 -189l64 86c9.33301 -46 21.333 -86 36 -120z" />
    <glyph glyph-name="y" unicode="y" horiz-adv-x="926" 
d="M382 73l-114 -177c63.333 30.667 101.333 89.667 114 177zM14 -206l34.999 169c50 11.333 83.333 21 100 29c18.667 8 34.667 20.667 48 38c25.333 31.333 38 75.666 38 132.999c0 25.333 -2.66699 65.333 -8 120l-12 117c-2.66699 24 -4 42.667 -4 56
c0 30 6 67.333 18 112l-133 -170c0 42 -1 71.333 -3 88l-50 428l186 41l19 -189c3.33301 -32 5 -63.667 5 -95v-30l-1 -35l127 204c-3.33301 -48 -5 -82.667 -5 -104c0 -13.333 0.333008 -22.666 1 -27.999v-24l1 -19l12 -227l238 522l188 33l-341 -742l421 649l46 12
l-365 -768l-15 -32c-47.333 -98.667 -82.666 -167.667 -105.999 -207c-24 -40.667 -48.333 -70 -73 -88c-22.667 -16.667 -58 -31.667 -106 -45c-57.333 -15.333 -92 -25.333 -104 -30l52 134c-28 -12.667 -53.667 -22 -77 -28c-22.667 -6 -66.667 -14 -132 -24z" />
    <glyph glyph-name="z" unicode="z" horiz-adv-x="887" 
d="M832 278l-34.0029 -175l-241 -51c-45.333 -10 -87.666 -25.667 -126.999 -47l82 147c-48.667 -14.667 -92.667 -25.667 -132 -33l-283 -53l38 165l424 513c-45.333 -5.33301 -75 -10 -89 -14c-17.333 -5.33301 -35.666 -14.666 -54.999 -27.999l8 38l-386 -587l-57 -5
l27 161l430 510l-294 -54l31 173l429 92l-91 -154c50 29.333 114 52.666 192 69.999l122 27l-34 -173l-430 -510l256 56l-84 -153c38.667 20.667 88.334 38 149.001 52z" />
    <glyph glyph-name="braceleft" unicode="{" 
d="M82 1351v-1337h655v1337h-655zM751 0h-683v1365h683v-1365z" />
    <glyph glyph-name="bar" unicode="|" 
d="M82 1351v-1337h655v1337h-655zM751 0h-683v1365h683v-1365z" />
    <glyph glyph-name="braceright" unicode="}" 
d="M82 1351v-1337h655v1337h-655zM751 0h-683v1365h683v-1365z" />
    <glyph glyph-name="asciitilde" unicode="~" 
d="M82 1351v-1337h655v1337h-655zM751 0h-683v1365h683v-1365z" />
    <glyph glyph-name="nonbreakingspace" unicode="&#xa0;" horiz-adv-x="441" 
 />
    <glyph glyph-name="exclamdown" unicode="&#xa1;" horiz-adv-x="601" 
d="M128 764l62.999 254l89 16l-16 -190l-17 -32c-41.333 -78 -87.333 -158.667 -138 -242c-30 -48.667 -63 -95.667 -99 -141c28.667 57.333 53.334 119 74.001 185c20 62 34.667 112 44 150zM494.999 415l-55.999 -305l-149 -36l1 29l17 28
c55.333 94 117.666 188.667 186.999 284zM347 950l54 12.999c-2.66699 -56 -6.66699 -111.333 -12 -166l-8 -82c-4.66699 -41.333 -7.66699 -69 -9 -83l-57 -447l-194 -41l9 40c21.333 100.667 37 170.334 47 209.001l16 65.5l20 77l23 88.5c30 113.333 54.333 199 73 257z
M402 1044l93 131l-25 -106zM164 1094l31 226l192 44l-39 -224z" />
    <glyph glyph-name="cent" unicode="&#xa2;" horiz-adv-x="985" 
d="M245 654l240.001 389.999c-54.667 -10 -102.667 -40.667 -144 -92c-30.667 -39.333 -54.334 -82.666 -71.001 -129.999c-17.333 -50 -26 -96 -26 -138c0 -5.33301 0.333008 -9.33301 1 -12v-18zM781.001 760.999l166 239c25.333 -52 38 -108 38 -168v-8l-125 -31
c-24.667 -5.33301 -51 -16 -79 -32zM506.001 1211l23.0029 84.9951l87 15l-31 -91l-71 -126c36.667 18.667 69.334 31.667 98.001 39l26 83l85 15l-27 -90c49.333 -7.33301 89.666 -30.666 120.999 -69.999c28 -35.333 44.667 -92.666 50 -171.999l-182 -42
c-8.66699 70 -37.667 105 -87 105c-38.667 0 -75.667 -17 -111 -51c-35.333 -35.333 -63.333 -81.666 -84 -138.999c-21.333 -60 -32 -122 -32 -186c0 -86 31.667 -129 95 -129c54 0 99.333 26 136 78c12.667 18.667 29 47.334 49 86.001l46 9l-150 -253
c58 3.33301 106 19.333 144 48s66 70.667 84 126l166 23c-16 -52 -35.667 -97.667 -59 -137c-24 -40.667 -53.333 -78 -88 -112c-32.667 -32 -68 -57.667 -106 -77c-38 -20 -79 -34 -123 -42l-31 -101l-84 -13l31 109h-7l-22 1l50 92
c-20.667 -7.33301 -37.334 -12.666 -50.001 -15.999l-31 -105l-85 -13l32 110c-54.667 4 -98.334 28.333 -131.001 73c-33.333 45.333 -50 102.333 -50 171c0 11.333 1 30.333 3 57l-105 -140c-20 66 -30 127.333 -30 184c0 87.333 21 176.333 63 267c42 90 97 165 165 225
c59.333 53.333 133.666 88 222.999 104z" />
    <glyph glyph-name="sterling" unicode="&#xa3;" horiz-adv-x="1094" 
d="M356 943l163 264c-116.667 -42.667 -175 -112 -175 -208c0 -16 4 -34.667 12 -56zM1016 306l51.0029 -159.001c-65.333 -57.333 -118 -95.666 -158 -114.999c-42.667 -22 -88 -33 -136 -33c-17.333 0 -41 1.66699 -71 5l55 102c-38.667 -20.667 -74.667 -31 -108 -31
c-21.333 0 -40.666 3 -57.999 9l-75 26c-16.667 6 -34.334 9 -53.001 9c-48 0 -98.667 -19 -152 -57l-9 44l49 87c-12.667 6.66699 -23.334 10 -32.001 10c-12 0 -26.333 -4.33301 -43 -13c-15.333 -8 -44.333 -27.667 -87 -59l-48 126l18 18c55.333 57.333 92 102 110 134
c30 52 45 104.667 45 158c0 14.667 -1.33301 30.334 -4 47.001l-121 -19l23 101l76 19l-22 94l-80 -110l-118 -36l19 111l79 24c-17.333 55.333 -26 102.333 -26 141c0 68.667 19.333 135.667 58 201c38.667 66 90 119.667 154 161c34.667 22 72 40 112 54
c41.333 13.333 91.666 24.333 150.999 33l-68 -132c66 30.667 125.333 46 178 46c64 0 112.667 -16.667 146 -50c33.333 -34.667 54 -89 62 -163l67 95c20 -29.333 34 -56.666 42 -81.999c7.33301 -28 11 -60.333 11 -97c0 -29.333 -3 -62 -9 -98l-182 -42
c6.66699 37.333 10 69.666 10 96.999c0 -4 -0.666992 7.33301 -2 34l-125 -63l2 46c0 92 -33 138 -99 138c-32.667 0 -62.334 -7.33301 -89.001 -22c-27.333 -15.333 -49 -36 -65 -62c-16.667 -26.667 -25 -55 -25 -85c0 -30.667 11 -82 33 -154l10 -35l152 21l-31 -96
l-114 -29c-3.33301 -47.333 -12.333 -89 -27 -125c-14.667 -34.667 -42 -79.334 -82 -134.001l69 6l183 284l124 26l-16 -104l-130 -23c-12 -66.667 -26 -118 -42 -154c-16.667 -38 -42 -77 -76 -117c32 1.33301 43.667 2 35 2c22.667 0 57.667 -4.33301 105 -13
c32 -5.33301 54 -8 66 -8c54 0 109 28 165 84l13 -30l-89 -145c25.333 2 46.333 6 63 12c16 6 35.333 16 58 30c21.333 14 47.333 34 78 60z" />
    <glyph glyph-name="currency" unicode="&#xa4;" 
d="M82 1351v-1337h655v1337h-655zM751 0h-683v1365h683v-1365z" />
    <glyph glyph-name="yen" unicode="&#xa5;" horiz-adv-x="1111" 
d="M476 111l-103 -33.001l42 256h-103l18 108h102l11 68l-68 214l-77 -113c-12.667 78 -29.667 149 -51 213l-95 301l-78 -106c-5.33301 40 -12.333 75.333 -21 106l-39 143l207 49l11 -65l-24 -40l142 28l62 -242c11.333 -49.333 20 -107.666 26 -174.999l85 125l59 -217
l280 518l198 47l-421 -755l-45 -247l535 919h50l-412 -724l-15 -87h102l-13 -108h-108l-43 -242l-196 -44l29 174z" />
    <glyph glyph-name="section" unicode="&#xa7;" 
d="M82 1351v-1337h655v1337h-655zM751 0h-683v1365h683v-1365z" />
    <glyph glyph-name="dieresis" unicode="&#xa8;" horiz-adv-x="1003" 
d="M827 1116c-38 -5.33301 -63.002 -10 -75.002 -14c-16 -4.66699 -35 -13.667 -57 -27c26.667 50 52.334 90.667 77.001 122c23.333 31.333 55 67 95 107c-17.333 -59.333 -30.666 -122 -39.999 -188zM733.998 1184l-195 -29l35 197l188 25zM136.998 1166l24 196l197 33
l-13 -93c34.667 11.333 69 21 103 29l-24 -195l-189 -41l9 17c31.333 55.333 52.333 90.333 63 105c-36.667 -16.667 -63.667 -27.334 -81 -32.001c-16 -5.33301 -45.667 -11.666 -89 -18.999z" />
    <glyph glyph-name="copyright" unicode="&#xa9;" 
d="M82 1351v-1337h655v1337h-655zM751 0h-683v1365h683v-1365z" />
    <glyph glyph-name="ordfeminine" unicode="&#xaa;" 
d="M82 1351v-1337h655v1337h-655zM751 0h-683v1365h683v-1365z" />
    <glyph glyph-name="guillemotleft" unicode="&#xab;" horiz-adv-x="816" 
d="M246 490l101 -98l-34 -204l-195 196l32 167l-107 -120l-16 15l37 202l251 257l-4 -75l36 23l-125 -209l188 203l-27 -216zM624 467l98 -92l-25 -211l-188 179l-10 -14l-94 89l30 208l262 262l-28 -211l-143 -145l60 -58l203 292l-36 -160z" />
    <glyph glyph-name="logicalnot" unicode="&#xac;" 
d="M82 1351v-1337h655v1337h-655zM751 0h-683v1365h683v-1365z" />
    <glyph glyph-name="registered" unicode="&#xae;" 
d="M82 1351v-1337h655v1337h-655zM751 0h-683v1365h683v-1365z" />
    <glyph glyph-name="macron" unicode="&#xaf;" 
d="M82 1351v-1337h655v1337h-655zM751 0h-683v1365h683v-1365z" />
    <glyph glyph-name="degree" unicode="&#xb0;" 
d="M82 1351v-1337h655v1337h-655zM751 0h-683v1365h683v-1365z" />
    <glyph glyph-name="plusminus" unicode="&#xb1;" 
d="M82 1351v-1337h655v1337h-655zM751 0h-683v1365h683v-1365z" />
    <glyph glyph-name="acute" unicode="&#xb4;" horiz-adv-x="720" 
d="M369 1090l-137 -18l112 230l239 49zM229 1154l-92 -18l94 231l155 35c-20 -45.333 -43.667 -89.333 -71 -132c-29.333 -46 -58 -84.667 -86 -116z" />
    <glyph glyph-name="mu" unicode="&#xb5;" 
d="M82 1351v-1337h655v1337h-655zM751 0h-683v1365h683v-1365z" />
    <glyph glyph-name="paragraph" unicode="&#xb6;" 
d="M82 1351v-1337h655v1337h-655zM751 0h-683v1365h683v-1365z" />
    <glyph glyph-name="periodcentered" unicode="&#xb7;" horiz-adv-x="469" 
d="M295 932l-23 -227l-180 -61l19 223zM425 867l-19 -218l-169 -63l114 248z" />
    <glyph glyph-name="periodcentered" unicode="&#x2219;" horiz-adv-x="469" 
d="M295 932l-23 -227l-180 -61l19 223zM425 867l-19 -218l-169 -63l114 248z" />
    <glyph glyph-name="cedilla" unicode="&#xb8;" 
d="M82 1351v-1337h655v1337h-655zM751 0h-683v1365h683v-1365z" />
    <glyph glyph-name="ordmasculine" unicode="&#xba;" 
d="M82 1351v-1337h655v1337h-655zM751 0h-683v1365h683v-1365z" />
    <glyph glyph-name="guillemotright" unicode="&#xbb;" horiz-adv-x="816" 
d="M27 773l26 142l62 -57c-26.667 -30 -56 -58.333 -88 -85zM116 639l36 208l186 -184l-39 -199l-256 -265l32 207l141 141zM418 600l15 20.999l-34 -232l-265 -252c44 90.667 86 168.334 126 233.001c39.333 65.333 92 142 158 230zM714 643.999l-30 -215l-268 -255l33 201
l144 148l-103 102l-5 -18l-85 79l27 210l126 -120l18 21z" />
    <glyph glyph-name="questiondown" unicode="&#xbf;" horiz-adv-x="1000" 
d="M261 398l219 345.999l-24 -22.5c-8 -7.66699 -13.667 -12.834 -17 -15.501c-74 -68.667 -121.667 -118.667 -143 -150c-27.333 -41.333 -41 -80.666 -41 -117.999c0 -9.33301 2 -22.666 6 -39.999zM368 966.999l188 30c-6.66699 -62 -20.667 -128 -42 -198l81 123l57 16
l-6 -27c-14 -74.667 -30 -129.667 -48 -165c-18 -36.667 -48.333 -74.667 -91 -114l-86 -83c-9.33301 -9.33301 -20 -23 -32 -41c-29.333 -44.667 -44 -86.334 -44 -125.001c0 -29.333 11.667 -54.666 35 -75.999s51 -32 83 -32c32.667 0 65.334 8.66699 98.001 26
c31.333 16.667 57.666 39.667 78.999 69c24.667 32.667 42.667 79.334 54 140.001l104 9l-14 -45l-166 -255c84 34 141.667 112.667 173 236l175 19c-44.667 -272 -199.667 -424 -465 -456l47 84c-60.667 -16 -112 -24 -154 -24c-119.333 0 -197 56.333 -233 169l-35 -50
c-26 28 -45.667 59 -59 93c-12.667 32 -19 69.667 -19 113c0 101.333 41.667 193.666 125 276.999l112 113c25.333 25.333 45 51.333 59 78c12 25.333 20 57.333 24 96zM269 1172l29 182.002l107 23c-18 -38.667 -38.333 -75.334 -61 -110.001
c-20 -30.667 -45 -62.334 -75 -95.001zM392 1297l211 38l-26 -238l-219 -38z" />
    <glyph glyph-name="Agrave" unicode="&#xc0;" horiz-adv-x="1225" 
d="M636 439l175 40l-20 209zM451 505l233 53l-29 426zM263 58l-199 -44l434 988l-561 -892h-12l16 32l17 33.5l35 69.5l119 252l87 189l13 28l259 583l200 44l9 -38l-46 -77l171 37l53 -465l100 147l73 -638l100 143l46 -403l-208 -46l-18 181l-45 -81l-57 -16l-21 220
l-311 -70l67 122l-216 -49zM746 1690l22 -215l-138 -22l-33 79l-63 -14l-131 201l247 40l13 -144z" />
    <glyph glyph-name="Aacute" unicode="&#xc1;" horiz-adv-x="1225" 
d="M636 439l175 40l-20 209zM451 505l233 53l-29 426zM263 58l-199 -44l434 988l-561 -892h-12l16 32l17 33.5l35 69.5l119 252l87 189l13 28l259 583l200 44l9 -38l-46 -77l171 37l53 -465l100 147l73 -638l100 143l46 -403l-208 -46l-18 181l-45 -81l-57 -16l-21 220
l-311 -70l67 122l-216 -49zM772 1459l-137 -18l112 230l239 49zM632 1523l-92 -18l94 231l155 35c-20 -45.333 -43.667 -89.333 -71 -132c-29.333 -46 -58 -84.667 -86 -116z" />
    <glyph glyph-name="Acircumflex" unicode="&#xc2;" horiz-adv-x="1225" 
d="M636 439l175 40l-20 209zM451 505l233 53l-29 426zM263 58l-199 -44l434 988l-561 -892h-12l16 32l17 33.5l35 69.5l119 252l87 189l13 28l259 583l200 44l9 -38l-46 -77l171 37l53 -465l100 147l73 -638l100 143l46 -403l-208 -46l-18 181l-45 -81l-57 -16l-21 220
l-311 -70l67 122l-216 -49zM516 1514l-166 -26l163 229l226 36l58 -114l43 42l95 -191l-174 -27l-44 93l-60 -17l-48 92z" />
    <glyph glyph-name="Atilde" unicode="&#xc3;" horiz-adv-x="1225" 
d="M636 439l175 40l-20 209zM451 505l233 53l-29 426zM263 58l-199 -44l434 988l-561 -892h-12l16 32l17 33.5l35 69.5l119 252l87 189l13 28l259 583l200 44l9 -38l-46 -77l171 37l53 -465l100 147l73 -638l100 143l46 -403l-208 -46l-18 181l-45 -81l-57 -16l-21 220
l-311 -70l67 122l-216 -49zM292 1562c8 57.333 21.332 96.667 39.999 118c18.667 22 53.334 40.333 104.001 55c-40 -65.333 -88 -123 -144 -173zM510.999 1474l-137.002 -17.001c10.667 76.667 30.334 131.334 59.001 164.001c28 32 70 48 126 48
c22.667 0 45.334 -2 68.001 -6c30.667 -5.33301 52.667 -8 66 -8c26.667 0 45 13.333 55 40l126 17v-28l-72 -107c2 -0.666992 4.66699 -1 8 -1c10.667 0 18.667 2.33301 24 7c6 5.33301 11 13.333 15 24l116 15c-1.33301 -36 -8 -67.333 -20 -94
c-12.667 -28 -30.667 -49.667 -54 -65s-49 -23 -77 -23c-9.33301 0 -23 1.66699 -41 5l11 78c-32.667 -16.667 -63.667 -25 -93 -25c-10.667 0 -24.334 1.66699 -41.001 5l-58 11c-2 0.666992 -7.66699 1 -17 1c-31.333 0 -52.666 -13.667 -63.999 -41z" />
    <glyph glyph-name="Adieresis" unicode="&#xc4;" horiz-adv-x="1225" 
d="M636 439l175 40l-20 209zM451 505l233 53l-29 426zM263 58l-199 -44l434 988l-561 -892h-12l16 32l17 33.5l35 69.5l119 252l87 189l13 28l259 583l200 44l9 -38l-46 -77l171 37l53 -465l100 147l73 -638l100 143l46 -403l-208 -46l-18 181l-45 -81l-57 -16l-21 220
l-311 -70l67 122l-216 -49zM1003 1457c-38 -5.33301 -63.002 -10 -75.002 -14c-16 -4.66699 -35 -13.667 -57 -27c26.667 50 52.334 90.667 77.001 122c23.333 31.333 55 67 95 107c-17.333 -59.333 -30.666 -122 -39.999 -188zM909.998 1525l-195 -29l35 197l188 25z
M312.998 1507l24 196l197 33l-13 -93c34.667 11.333 69 21 103 29l-24 -195l-189 -41l9 17c31.333 55.333 52.333 90.333 63 105c-36.667 -16.667 -63.667 -27.334 -81 -32.001c-16 -5.33301 -45.667 -11.666 -89 -18.999z" />
    <glyph glyph-name="Aring" unicode="&#xc5;" horiz-adv-x="1225" 
d="M636 439l175 40l-20 209zM451 505l233 53l-29 426zM263 58l-199 -44l434 988l-561 -892h-12l16 32l17 33.5l35 69.5l119 252l87 189l13 28l259 583l200 44l9 -38l-46 -77l171 37l53 -465l100 147l73 -638l100 143l46 -403l-208 -46l-18 181l-45 -81l-57 -16l-21 220
l-311 -70l67 122l-216 -49zM767 1594c0 13.333 -3.66699 24.333 -11 33c-6.66699 8 -17 12 -31 12c-18.667 0 -35.667 -8.66699 -51 -26s-23 -36.333 -23 -57c0 -30 12.667 -45 38 -45c19.333 0 37.333 9 54 27c16 17.333 24 36 24 56zM838 1617
c0 -29.333 -8.33301 -58.333 -25 -87c-16.667 -29.333 -38.334 -53.333 -65.001 -72c-25.333 -18.667 -52.666 -28 -81.999 -28c-26.667 0 -48.667 9 -66 27c-17.333 18.667 -26 42 -26 70c0 30.667 8.66699 61.667 26 93c16.667 29.333 39 54.333 67 75
c27.333 20 55 30 83 30c26.667 0 48 -9.66699 64 -29c16 -20 24 -46.333 24 -79zM560 1605l-71 -73c-6.66699 22 -10 43 -10 63c0 53.333 18 99.333 54 138c34.667 38.667 76.667 58 126 58h9l-45 -91h-5c-16.667 0 -31.667 -6.66699 -45 -20
c-13.333 -14.667 -20 -31.334 -20 -50.001c0 -7.33301 2.33301 -15.666 7 -24.999z" />
    <glyph glyph-name="AE" unicode="&#xc6;" horiz-adv-x="1646" 
d="M1013 655l-112 -32l-11 -76l-4 -21l-7 -45l-7 -38c-0.666992 -4 -1.66699 -10.667 -3 -20zM275 331l-99 -233l164 252zM548 1072l-198.001 -543.001l118 29l-29 -84l236 40l32 397l-125 -174c26.667 96.667 44.334 213.334 53.001 350.001zM1549 748.999h13l-13 -148
l-107 -20zM168.999 83.999l-196.001 -41l412 1096l-283 -406l240 581l152 34l-41 -86l514 86l-34 -74l521 87l-54 -85l197 33l-19 -206l-318 -51l58 92l-377 -77l-19 -239l221 44l-49 -82l393 61l-33 -201l-466 -79l-30 -304l139 22c62.667 9.33301 120.334 24 173.001 44
l-52 -89l381 64l-36 -210l-477 -83l53 94c-62.667 -18.667 -115.667 -31.667 -159 -39l-264 -42l15 173l-71 -104l-38 -13l30 233l-286 -43l-84 -250l-152 -31z" />
    <glyph glyph-name="Ccedilla" unicode="&#xc7;" horiz-adv-x="1375" 
d="M491 -327l-41 8l42 87c14 -8.66699 33.333 -16.667 58 -24zM20 628c18 82 39.667 159.666 65 232.999c26.667 78.667 55 144.334 85 197.001c36.667 66.667 83.5 129.5 140.5 188.5s123.833 112.5 200.5 160.5l-17 -34c-36 -71.333 -75.667 -144.666 -119 -219.999
c-37.333 -62.667 -93.333 -150.334 -168 -263.001c-76 -114.667 -138.333 -202 -187 -262zM1032 401.999l195 15.998c-34.667 -76 -77.334 -143 -128.001 -201c-51.333 -58 -106.333 -103.333 -165 -136c-60.667 -33.333 -126.667 -55 -198 -65l-20 -39
c65.333 -19.333 98 -58.333 98 -117c0 -18.667 -5.66699 -46 -17 -82l57 77c2 -15.333 3 -27.333 3 -36c0 -58 -16.333 -106.667 -49 -146c-33.333 -40 -80 -68 -140 -84l50 78c-16 -17.333 -34.667 -30 -56 -38c-22 -8 -49 -12 -81 -12c-28.667 0 -57 5 -85 15l37 88
c22 -6.66699 40 -10 54 -10c35.333 0 64.666 11.667 87.999 35s35 52.333 35 87c0 36.667 -17.667 58.667 -53 66l5 16c-11.333 9.33301 -25.666 14 -42.999 14c-6 0 -18.333 -1.66699 -37 -5l92 183c-46.667 -18 -86.334 -27 -119.001 -27c-113.333 0 -196 70.333 -248 211
l-57 -70c-24.667 55.333 -42.667 108 -54 158c-11.333 50.667 -17 103.334 -17 158.001c0 101.333 17.333 200 52 296s82.667 182.667 144 260c59.333 75.333 128.666 136 207.999 182c77.333 44 156.333 66 237 66c38.667 0 79.667 -6.66699 123 -20l-18 -48h12
c54.667 0 102.334 -12 143.001 -36c42 -26 73.333 -61.333 94 -106c21.333 -46.667 32 -101 32 -163l87 109c18.667 -42.667 31.334 -81.667 38.001 -117s10 -81 10 -137v-17c-0.666992 -4 -1 -10.667 -1 -20l-194 -21c-5.33301 50.667 -14 87.667 -26 111l-104 -20
c-6 66.667 -15.333 112 -28 136c-26 52.667 -67.333 79 -124 79c-11.333 0 -28 -1.66699 -50 -5l21 36c-30 26 -62.667 39 -98 39c-59.333 0 -117.666 -27.667 -174.999 -83c-58 -56 -104.333 -128 -139 -216c-36 -88.667 -54 -179 -54 -271c0 -30.667 2 -58 6 -82
c3.33301 -21.333 10 -46.666 20 -75.999l92 129c-0.666992 -6 -1 -15.667 -1 -29c0 -68.667 15.667 -124.667 47 -168s71.666 -65 120.999 -65c48.667 0 98.334 18.333 149.001 55l-77 -134c42.667 0 82 7 118 21c36 14.667 68.667 36 98 64s59.333 67 90 117z" />
    <glyph glyph-name="Egrave" unicode="&#xc8;" horiz-adv-x="1107" 
d="M320 1130l-38 -209l146 233zM219 821l-198.999 -281.999l132 749l399 77l-57 -107l479 97l-25 -121c48.667 21.333 97.334 38 146.001 50l-34 -197l-110 -22c-38.667 -8 -85.667 -27 -141 -57l84 138l-455 -91l-40 -229l340 69l-81 -134c48 19.333 90.333 33 127 41
l166 36l-31 -191l-196 -41l-20 -4c-64.667 -12.667 -124.334 -32.334 -179.001 -59.001l79 129l-242 -47l-52 -302l88 17l94 150c-10 -27.333 -18.333 -54.333 -25 -81c-8 -30 -17.667 -73.333 -29 -130l-4 -21l427 85l-76 -125l20 7c36.667 12 67.334 20.667 92.001 26
l155 35l-36 -204l-214 -45c-52.667 -10.667 -100.667 -23 -144 -37l67 122l-387 -77c-50.667 -10 -98.334 -22 -143.001 -36l70 118l-195 -41l86 470c17.333 92 38.666 180.333 63.999 265zM703.001 1690l22 -215l-138 -22l-33 79l-63 -14l-131 201l247 40l13 -144z" />
    <glyph glyph-name="Eacute" unicode="&#xc9;" horiz-adv-x="1107" 
d="M320 1130l-38 -209l146 233zM219 821l-198.999 -281.999l132 749l399 77l-57 -107l479 97l-25 -121c48.667 21.333 97.334 38 146.001 50l-34 -197l-110 -22c-38.667 -8 -85.667 -27 -141 -57l84 138l-455 -91l-40 -229l340 69l-81 -134c48 19.333 90.333 33 127 41
l166 36l-31 -191l-196 -41l-20 -4c-64.667 -12.667 -124.334 -32.334 -179.001 -59.001l79 129l-242 -47l-52 -302l88 17l94 150c-10 -27.333 -18.333 -54.333 -25 -81c-8 -30 -17.667 -73.333 -29 -130l-4 -21l427 85l-76 -125l20 7c36.667 12 67.334 20.667 92.001 26
l155 35l-36 -204l-214 -45c-52.667 -10.667 -100.667 -23 -144 -37l67 122l-387 -77c-50.667 -10 -98.334 -22 -143.001 -36l70 118l-195 -41l86 470c17.333 92 38.666 180.333 63.999 265zM750.001 1459l-137 -18l112 230l239 49zM610.001 1523l-92 -18l94 231l155 35
c-20 -45.333 -43.667 -89.333 -71 -132c-29.333 -46 -58 -84.667 -86 -116z" />
    <glyph glyph-name="Ecircumflex" unicode="&#xca;" horiz-adv-x="1107" 
d="M320 1130l-38 -209l146 233zM219 821l-198.999 -281.999l132 749l399 77l-57 -107l479 97l-25 -121c48.667 21.333 97.334 38 146.001 50l-34 -197l-110 -22c-38.667 -8 -85.667 -27 -141 -57l84 138l-455 -91l-40 -229l340 69l-81 -134c48 19.333 90.333 33 127 41
l166 36l-31 -191l-196 -41l-20 -4c-64.667 -12.667 -124.334 -32.334 -179.001 -59.001l79 129l-242 -47l-52 -302l88 17l94 150c-10 -27.333 -18.333 -54.333 -25 -81c-8 -30 -17.667 -73.333 -29 -130l-4 -21l427 85l-76 -125l20 7c36.667 12 67.334 20.667 92.001 26
l155 35l-36 -204l-214 -45c-52.667 -10.667 -100.667 -23 -144 -37l67 122l-387 -77c-50.667 -10 -98.334 -22 -143.001 -36l70 118l-195 -41l86 470c17.333 92 38.666 180.333 63.999 265zM522.001 1514l-166 -26l163 229l226 36l58 -114l43 42l95 -191l-174 -27l-44 93
l-60 -17l-48 92z" />
    <glyph glyph-name="Edieresis" unicode="&#xcb;" horiz-adv-x="1107" 
d="M320 1130l-38 -209l146 233zM219 821l-198.999 -281.999l132 749l399 77l-57 -107l479 97l-25 -121c48.667 21.333 97.334 38 146.001 50l-34 -197l-110 -22c-38.667 -8 -85.667 -27 -141 -57l84 138l-455 -91l-40 -229l340 69l-81 -134c48 19.333 90.333 33 127 41
l166 36l-31 -191l-196 -41l-20 -4c-64.667 -12.667 -124.334 -32.334 -179.001 -59.001l79 129l-242 -47l-52 -302l88 17l94 150c-10 -27.333 -18.333 -54.333 -25 -81c-8 -30 -17.667 -73.333 -29 -130l-4 -21l427 85l-76 -125l20 7c36.667 12 67.334 20.667 92.001 26
l155 35l-36 -204l-214 -45c-52.667 -10.667 -100.667 -23 -144 -37l67 122l-387 -77c-50.667 -10 -98.334 -22 -143.001 -36l70 118l-195 -41l86 470c17.333 92 38.666 180.333 63.999 265zM974.001 1457c-38 -5.33301 -63.002 -10 -75.002 -14
c-16 -4.66699 -35 -13.667 -57 -27c26.667 50 52.334 90.667 77.001 122c23.333 31.333 55 67 95 107c-17.333 -59.333 -30.666 -122 -39.999 -188zM880.999 1525l-195 -29l35 197l188 25zM283.999 1507l24 196l197 33l-13 -93c34.667 11.333 69 21 103 29l-24 -195
l-189 -41l9 17c31.333 55.333 52.333 90.333 63 105c-36.667 -16.667 -63.667 -27.334 -81 -32.001c-16 -5.33301 -45.667 -11.666 -89 -18.999z" />
    <glyph glyph-name="Igrave" unicode="&#xcc;" horiz-adv-x="543" 
d="M20 936l62 392l211 49c-16 -38 -31 -70.667 -45 -98c-17.333 -31.333 -44.333 -76 -81 -134c-60 -96 -109 -165.667 -147 -209zM236 459l-205 -308l197 1090l191 50l-128 -742l204 307l-146 -783l-197 -52zM408 1690l22 -215l-138 -22l-33 79l-63 -14l-131 201l247 40
l13 -144z" />
    <glyph glyph-name="Iacute" unicode="&#xcd;" horiz-adv-x="543" 
d="M20 936l62 392l211 49c-16 -38 -31 -70.667 -45 -98c-17.333 -31.333 -44.333 -76 -81 -134c-60 -96 -109 -165.667 -147 -209zM236 459l-205 -308l197 1090l191 50l-128 -742l204 307l-146 -783l-197 -52zM420 1459l-137 -18l112 230l239 49zM280 1523l-92 -18l94 231
l155 35c-20 -45.333 -43.667 -89.333 -71 -132c-29.333 -46 -58 -84.667 -86 -116z" />
    <glyph glyph-name="Icircumflex" unicode="&#xce;" horiz-adv-x="543" 
d="M20 936l62 392l211 49c-16 -38 -31 -70.667 -45 -98c-17.333 -31.333 -44.333 -76 -81 -134c-60 -96 -109 -165.667 -147 -209zM236 459l-205 -308l197 1090l191 50l-128 -742l204 307l-146 -783l-197 -52zM230 1514l-166 -26l163 229l226 36l58 -114l43 42l95 -191
l-174 -27l-44 93l-60 -17l-48 92z" />
    <glyph glyph-name="Idieresis" unicode="&#xcf;" horiz-adv-x="543" 
d="M711 1457c-38 -5.33301 -63.002 -10 -75.002 -14c-16 -4.66699 -35 -13.667 -57 -27c26.667 50 52.334 90.667 77.001 122c23.333 31.333 55 67 95 107c-17.333 -59.333 -30.666 -122 -39.999 -188zM617.998 1525l-195 -29l35 197l188 25zM20.998 1507l24 196l197 33
l-13 -93c34.667 11.333 69 21 103 29l-24 -195l-189 -41l9 17c31.333 55.333 52.333 90.333 63 105c-36.667 -16.667 -63.667 -27.334 -81 -32.001c-16 -5.33301 -45.667 -11.666 -89 -18.999zM19.998 936l62 392l211 49c-16 -38 -31 -70.667 -45 -98
c-17.333 -31.333 -44.333 -76 -81 -134c-60 -96 -109 -165.667 -147 -209zM235.998 459l-205 -308l197 1090l191 50l-128 -742l204 307l-146 -783l-197 -52z" />
    <glyph glyph-name="Ntilde" unicode="&#xd1;" horiz-adv-x="1326" 
d="M935 559l37 -98l39 221zM1298 378l-71.999 -339l-163 -44c34 66 72 133.333 114 202c41.333 68 81.666 128.333 120.999 181zM151.001 112l-81.001 -23.9971l157 908l-200 -285l110 588l207 43l32 -97l89 25l107 -270l10 -27l17 -45l16 -44
c0.666992 0 1.16699 -0.5 1.5 -1.5s0.5 -1.83301 0.5 -2.5s0.666992 -3 2 -7c0.666992 -0.666992 1.16699 -1.66699 1.5 -3s0.5 -2.66602 0.5 -3.99902c1.33301 -2 2.33301 -5 3 -9l65 109c18.667 -64.667 37.334 -120 56.001 -166l105 -268l123 744l190 43l-4 -30
c-25.333 -168 -53.333 -326.667 -84 -476l-6 -30l205 330l-176 -1005l-189 -40l-112 283l-69 -85c-19.333 64 -39 120.667 -59 170l-92 230c0 1.33301 -0.833008 4.16602 -2.5 8.49902s-3.5 8.83301 -5.5 13.5l-12 32c-0.666992 2.66699 -1.5 5.66699 -2.5 9
s-2.5 6.66602 -4.5 9.99902l-64 -89c-9.33301 31.333 -18.666 57.666 -27.999 78.999l-59 148l-56 -317c-12.667 -66.667 -21.334 -108.334 -26.001 -125.001l-23 -98l-6 -26l200 312l-96 -562l-197 -46l39 210zM353 1562c8 57.333 21.332 96.667 39.999 118
c18.667 22 53.334 40.333 104.001 55c-40 -65.333 -88 -123 -144 -173zM571.999 1474l-137.002 -17.001c10.667 76.667 30.334 131.334 59.001 164.001c28 32 70 48 126 48c22.667 0 45.334 -2 68.001 -6c30.667 -5.33301 52.667 -8 66 -8c26.667 0 45 13.333 55 40l126 17
v-28l-72 -107c2 -0.666992 4.66699 -1 8 -1c10.667 0 18.667 2.33301 24 7c6 5.33301 11 13.333 15 24l116 15c-1.33301 -36 -8 -67.333 -20 -94c-12.667 -28 -30.667 -49.667 -54 -65s-49 -23 -77 -23c-9.33301 0 -23 1.66699 -41 5l11 78
c-32.667 -16.667 -63.667 -25 -93 -25c-10.667 0 -24.334 1.66699 -41.001 5l-58 11c-2 0.666992 -7.66699 1 -17 1c-31.333 0 -52.666 -13.667 -63.999 -41z" />
    <glyph glyph-name="Ograve" unicode="&#xd2;" horiz-adv-x="1382" 
d="M258 568l378.001 619.001c-52.667 -10.667 -99 -29 -139 -55c-38.667 -24.667 -73.667 -59.334 -105 -104.001c-40.667 -56.667 -73.334 -123.667 -98.001 -201c-25.333 -79.333 -38 -152.333 -38 -219c0 5.33301 0.666992 -8 2 -40zM557.001 303.001l-13.002 -22.999
c37.333 -34 79 -51 125 -51c58.667 0 117 27 175 81c57.333 54.667 104 124.667 140 210c36 86 54 172.667 54 260c0 74.667 -15.667 145 -47 211l-81 -125c-2 81.333 -15.667 140.666 -41 177.999c-26 36.667 -66 55 -120 55c-41.333 0 -83.666 -16 -126.999 -48
c-45.333 -34.667 -84.666 -78.334 -117.999 -131.001c-35.333 -55.333 -63.333 -116 -84 -182c-21.333 -68 -32 -133.667 -32 -197c0 -77.333 14 -135.666 42 -174.999c26.667 -40 69 -61 127 -63zM180.999 447.002l-87.001 -113.001c-19.333 90.667 -29 167.667 -29 231
c0 74 11 150.333 33 229c22 79.333 54 155.333 96 228c42.667 74 91 138 145 192c58 59.333 119.667 103 185 131s140.333 43.667 225 47l-56 -105c52 18.667 97 28 135 28c112.667 0 201 -59.667 265 -179l36 47c26 -32.667 47.333 -66.667 64 -102
c16 -34.667 28 -71.667 36 -111c7.33301 -42 11 -84 11 -126c0 -71.333 -9 -139.666 -27 -204.999c-18 -64.667 -48 -139.667 -90 -225l255 377c-12 -104 -28.667 -193.333 -50 -268c-22.667 -74.667 -54 -145.334 -94 -212.001c-44.667 -74 -94 -136 -148 -186
c-56 -52 -129 -103.667 -219 -155l190 339c-39.333 -50 -77.5 -93.167 -114.5 -129.5s-74.167 -66.833 -111.5 -91.5c-71.333 -46.667 -146.333 -70 -225 -70c-59.333 0 -118.666 16.667 -177.999 50l12 26c-46 6.66699 -83.333 18.334 -112 35.001
c-27.333 16 -53.333 40.667 -78 74c-46 62 -69 137 -69 225v19zM827.998 1690l22 -215l-138 -22l-33 79l-63 -14l-131 201l247 40l13 -144z" />
    <glyph glyph-name="Oacute" unicode="&#xd3;" horiz-adv-x="1382" 
d="M258 568l378.001 619.001c-52.667 -10.667 -99 -29 -139 -55c-38.667 -24.667 -73.667 -59.334 -105 -104.001c-40.667 -56.667 -73.334 -123.667 -98.001 -201c-25.333 -79.333 -38 -152.333 -38 -219c0 5.33301 0.666992 -8 2 -40zM557.001 303.001l-13.002 -22.999
c37.333 -34 79 -51 125 -51c58.667 0 117 27 175 81c57.333 54.667 104 124.667 140 210c36 86 54 172.667 54 260c0 74.667 -15.667 145 -47 211l-81 -125c-2 81.333 -15.667 140.666 -41 177.999c-26 36.667 -66 55 -120 55c-41.333 0 -83.666 -16 -126.999 -48
c-45.333 -34.667 -84.666 -78.334 -117.999 -131.001c-35.333 -55.333 -63.333 -116 -84 -182c-21.333 -68 -32 -133.667 -32 -197c0 -77.333 14 -135.666 42 -174.999c26.667 -40 69 -61 127 -63zM180.999 447.002l-87.001 -113.001c-19.333 90.667 -29 167.667 -29 231
c0 74 11 150.333 33 229c22 79.333 54 155.333 96 228c42.667 74 91 138 145 192c58 59.333 119.667 103 185 131s140.333 43.667 225 47l-56 -105c52 18.667 97 28 135 28c112.667 0 201 -59.667 265 -179l36 47c26 -32.667 47.333 -66.667 64 -102
c16 -34.667 28 -71.667 36 -111c7.33301 -42 11 -84 11 -126c0 -71.333 -9 -139.666 -27 -204.999c-18 -64.667 -48 -139.667 -90 -225l255 377c-12 -104 -28.667 -193.333 -50 -268c-22.667 -74.667 -54 -145.334 -94 -212.001c-44.667 -74 -94 -136 -148 -186
c-56 -52 -129 -103.667 -219 -155l190 339c-39.333 -50 -77.5 -93.167 -114.5 -129.5s-74.167 -66.833 -111.5 -91.5c-71.333 -46.667 -146.333 -70 -225 -70c-59.333 0 -118.666 16.667 -177.999 50l12 26c-46 6.66699 -83.333 18.334 -112 35.001
c-27.333 16 -53.333 40.667 -78 74c-46 62 -69 137 -69 225v19zM883.998 1459l-137 -18l112 230l239 49zM743.998 1523l-92 -18l94 231l155 35c-20 -45.333 -43.667 -89.333 -71 -132c-29.333 -46 -58 -84.667 -86 -116z" />
    <glyph glyph-name="Ocircumflex" unicode="&#xd4;" horiz-adv-x="1382" 
d="M258 568l378.001 619.001c-52.667 -10.667 -99 -29 -139 -55c-38.667 -24.667 -73.667 -59.334 -105 -104.001c-40.667 -56.667 -73.334 -123.667 -98.001 -201c-25.333 -79.333 -38 -152.333 -38 -219c0 5.33301 0.666992 -8 2 -40zM557.001 303.001l-13.002 -22.999
c37.333 -34 79 -51 125 -51c58.667 0 117 27 175 81c57.333 54.667 104 124.667 140 210c36 86 54 172.667 54 260c0 74.667 -15.667 145 -47 211l-81 -125c-2 81.333 -15.667 140.666 -41 177.999c-26 36.667 -66 55 -120 55c-41.333 0 -83.666 -16 -126.999 -48
c-45.333 -34.667 -84.666 -78.334 -117.999 -131.001c-35.333 -55.333 -63.333 -116 -84 -182c-21.333 -68 -32 -133.667 -32 -197c0 -77.333 14 -135.666 42 -174.999c26.667 -40 69 -61 127 -63zM180.999 447.002l-87.001 -113.001c-19.333 90.667 -29 167.667 -29 231
c0 74 11 150.333 33 229c22 79.333 54 155.333 96 228c42.667 74 91 138 145 192c58 59.333 119.667 103 185 131s140.333 43.667 225 47l-56 -105c52 18.667 97 28 135 28c112.667 0 201 -59.667 265 -179l36 47c26 -32.667 47.333 -66.667 64 -102
c16 -34.667 28 -71.667 36 -111c7.33301 -42 11 -84 11 -126c0 -71.333 -9 -139.666 -27 -204.999c-18 -64.667 -48 -139.667 -90 -225l255 377c-12 -104 -28.667 -193.333 -50 -268c-22.667 -74.667 -54 -145.334 -94 -212.001c-44.667 -74 -94 -136 -148 -186
c-56 -52 -129 -103.667 -219 -155l190 339c-39.333 -50 -77.5 -93.167 -114.5 -129.5s-74.167 -66.833 -111.5 -91.5c-71.333 -46.667 -146.333 -70 -225 -70c-59.333 0 -118.666 16.667 -177.999 50l12 26c-46 6.66699 -83.333 18.334 -112 35.001
c-27.333 16 -53.333 40.667 -78 74c-46 62 -69 137 -69 225v19zM655.998 1514l-166 -26l163 229l226 36l58 -114l43 42l95 -191l-174 -27l-44 93l-60 -17l-48 92z" />
    <glyph glyph-name="Otilde" unicode="&#xd5;" horiz-adv-x="1382" 
d="M258 568l378.001 619.001c-52.667 -10.667 -99 -29 -139 -55c-38.667 -24.667 -73.667 -59.334 -105 -104.001c-40.667 -56.667 -73.334 -123.667 -98.001 -201c-25.333 -79.333 -38 -152.333 -38 -219c0 5.33301 0.666992 -8 2 -40zM557.001 303.001l-13.002 -22.999
c37.333 -34 79 -51 125 -51c58.667 0 117 27 175 81c57.333 54.667 104 124.667 140 210c36 86 54 172.667 54 260c0 74.667 -15.667 145 -47 211l-81 -125c-2 81.333 -15.667 140.666 -41 177.999c-26 36.667 -66 55 -120 55c-41.333 0 -83.666 -16 -126.999 -48
c-45.333 -34.667 -84.666 -78.334 -117.999 -131.001c-35.333 -55.333 -63.333 -116 -84 -182c-21.333 -68 -32 -133.667 -32 -197c0 -77.333 14 -135.666 42 -174.999c26.667 -40 69 -61 127 -63zM180.999 447.002l-87.001 -113.001c-19.333 90.667 -29 167.667 -29 231
c0 74 11 150.333 33 229c22 79.333 54 155.333 96 228c42.667 74 91 138 145 192c58 59.333 119.667 103 185 131s140.333 43.667 225 47l-56 -105c52 18.667 97 28 135 28c112.667 0 201 -59.667 265 -179l36 47c26 -32.667 47.333 -66.667 64 -102
c16 -34.667 28 -71.667 36 -111c7.33301 -42 11 -84 11 -126c0 -71.333 -9 -139.666 -27 -204.999c-18 -64.667 -48 -139.667 -90 -225l255 377c-12 -104 -28.667 -193.333 -50 -268c-22.667 -74.667 -54 -145.334 -94 -212.001c-44.667 -74 -94 -136 -148 -186
c-56 -52 -129 -103.667 -219 -155l190 339c-39.333 -50 -77.5 -93.167 -114.5 -129.5s-74.167 -66.833 -111.5 -91.5c-71.333 -46.667 -146.333 -70 -225 -70c-59.333 0 -118.666 16.667 -177.999 50l12 26c-46 6.66699 -83.333 18.334 -112 35.001
c-27.333 16 -53.333 40.667 -78 74c-46 62 -69 137 -69 225v19zM420.998 1562c8 57.333 21.332 96.667 39.999 118c18.667 22 53.334 40.333 104.001 55c-40 -65.333 -88 -123 -144 -173zM639.997 1474l-137.002 -17.001c10.667 76.667 30.334 131.334 59.001 164.001
c28 32 70 48 126 48c22.667 0 45.334 -2 68.001 -6c30.667 -5.33301 52.667 -8 66 -8c26.667 0 45 13.333 55 40l126 17v-28l-72 -107c2 -0.666992 4.66699 -1 8 -1c10.667 0 18.667 2.33301 24 7c6 5.33301 11 13.333 15 24l116 15c-1.33301 -36 -8 -67.333 -20 -94
c-12.667 -28 -30.667 -49.667 -54 -65s-49 -23 -77 -23c-9.33301 0 -23 1.66699 -41 5l11 78c-32.667 -16.667 -63.667 -25 -93 -25c-10.667 0 -24.334 1.66699 -41.001 5l-58 11c-2 0.666992 -7.66699 1 -17 1c-31.333 0 -52.666 -13.667 -63.999 -41z" />
    <glyph glyph-name="Odieresis" unicode="&#xd6;" horiz-adv-x="1382" 
d="M258 568l378.001 619.001c-52.667 -10.667 -99 -29 -139 -55c-38.667 -24.667 -73.667 -59.334 -105 -104.001c-40.667 -56.667 -73.334 -123.667 -98.001 -201c-25.333 -79.333 -38 -152.333 -38 -219c0 5.33301 0.666992 -8 2 -40zM557.001 303.001l-13.002 -22.999
c37.333 -34 79 -51 125 -51c58.667 0 117 27 175 81c57.333 54.667 104 124.667 140 210c36 86 54 172.667 54 260c0 74.667 -15.667 145 -47 211l-81 -125c-2 81.333 -15.667 140.666 -41 177.999c-26 36.667 -66 55 -120 55c-41.333 0 -83.666 -16 -126.999 -48
c-45.333 -34.667 -84.666 -78.334 -117.999 -131.001c-35.333 -55.333 -63.333 -116 -84 -182c-21.333 -68 -32 -133.667 -32 -197c0 -77.333 14 -135.666 42 -174.999c26.667 -40 69 -61 127 -63zM180.999 447.002l-87.001 -113.001c-19.333 90.667 -29 167.667 -29 231
c0 74 11 150.333 33 229c22 79.333 54 155.333 96 228c42.667 74 91 138 145 192c58 59.333 119.667 103 185 131s140.333 43.667 225 47l-56 -105c52 18.667 97 28 135 28c112.667 0 201 -59.667 265 -179l36 47c26 -32.667 47.333 -66.667 64 -102
c16 -34.667 28 -71.667 36 -111c7.33301 -42 11 -84 11 -126c0 -71.333 -9 -139.666 -27 -204.999c-18 -64.667 -48 -139.667 -90 -225l255 377c-12 -104 -28.667 -193.333 -50 -268c-22.667 -74.667 -54 -145.334 -94 -212.001c-44.667 -74 -94 -136 -148 -186
c-56 -52 -129 -103.667 -219 -155l190 339c-39.333 -50 -77.5 -93.167 -114.5 -129.5s-74.167 -66.833 -111.5 -91.5c-71.333 -46.667 -146.333 -70 -225 -70c-59.333 0 -118.666 16.667 -177.999 50l12 26c-46 6.66699 -83.333 18.334 -112 35.001
c-27.333 16 -53.333 40.667 -78 74c-46 62 -69 137 -69 225v19zM1151 1457c-38 -5.33301 -63.002 -10 -75.002 -14c-16 -4.66699 -35 -13.667 -57 -27c26.667 50 52.334 90.667 77.001 122c23.333 31.333 55 67 95 107c-17.333 -59.333 -30.666 -122 -39.999 -188z
M1058 1525l-195 -29l35 197l188 25zM460.996 1507l24 196l197 33l-13 -93c34.667 11.333 69 21 103 29l-24 -195l-189 -41l9 17c31.333 55.333 52.333 90.333 63 105c-36.667 -16.667 -63.667 -27.334 -81 -32.001c-16 -5.33301 -45.667 -11.666 -89 -18.999z" />
    <glyph glyph-name="multiply" unicode="&#xd7;" horiz-adv-x="0" 
 />
    <glyph glyph-name="multiply" unicode="&#xfd;" horiz-adv-x="0" 
 />
    <glyph glyph-name="Oslash" unicode="&#xd8;" horiz-adv-x="1382" 
d="M293 694l285 455c-54.667 -28 -102 -64.333 -142 -109c-40.667 -46 -73.667 -99 -99 -159c-25.333 -60.667 -40 -123 -44 -187zM938 960l-510 -599c21.333 -31.333 48 -59 80 -83l12 21c24 -24.667 47.333 -43 70 -55c21.333 -11.333 45.666 -17 72.999 -17
c46.667 0 91.667 14.333 135 43c44.667 30 83.334 69.667 116.001 119c34 52.667 60.333 110.667 79 174c19.333 66 29 134.333 29 205c0 38.667 -4.33301 75 -13 109l-433 -506l9 31l254 402l142 167l-16 28zM392 450l495 574c-20.667 24.667 -43.667 43.167 -69 55.5
s-53 18.5 -83 18.5c-91.333 0 -173 -51.333 -245 -154c-36 -52 -64.667 -112 -86 -180c-20.667 -64.667 -31 -128 -31 -190c0 -40.667 6.33301 -82 19 -124zM142 28l-64 53.9951l140 162c-22.667 40.667 -37.334 76.334 -44.001 107.001
c-8 34.667 -13.333 79.334 -16 134.001l-76 -94c-11.333 53.333 -17 108 -17 164c0 80.667 10 160 30 238c19.333 78 48.333 152 87 222s82.334 129.333 131.001 178c36.667 36.667 74.667 67 114 91c40 25.333 83 45.333 129 60c44.667 14.667 96 25 154 31l-43 -79
c48 12 92 18 132 18c50.667 0 95 -6.66699 133 -20c36 -14 77 -38.667 123 -74l117 135l24 -19l-98 -140l40 -41l123 141l58 -53l-133 -158c40 -80 60 -168 60 -264c0 -17.333 -1 -36.666 -3 -57.999l-2 -32l-3 -33l106 127
c-2.66699 -115.333 -15.667 -216.666 -39 -303.999s-60 -170.666 -110 -249.999c-51.333 -81.333 -109.666 -146.333 -174.999 -195c-68 -49.333 -149 -88 -243 -116l64 125c-49.333 -24 -93.333 -41.333 -132 -52c-36.667 -10 -75.334 -15 -116.001 -15
c-72.667 0 -139.667 21.667 -201 65l9 17c-54 19.333 -97.333 45.333 -130 78z" />
    <glyph glyph-name="Ugrave" unicode="&#xd9;" horiz-adv-x="1278" 
d="M217 667l-196.996 -285.005c33.333 127.333 56.666 231 69.999 311l7 36l98 536l201 38l-46 -248c-4.66699 -27.333 -13.334 -63.666 -26.001 -108.999c-14 -56.667 -30 -111.667 -48 -165l-10 -30l215 327l-102 -601c-4.66699 -26 -7 -49.667 -7 -71
c0 -31.333 7 -57 21 -77s32.667 -30 56 -30c9.33301 0 19.333 2 30 6l9 16c10 -35.333 23.667 -60.666 41 -75.999s41.333 -23 72 -23c40.667 0 80.667 12.667 120 38c40 26 70.333 58.333 91 97c22.667 40.667 42.667 109.334 60 206.001l102 561l-217 -356
c23.333 66 43.333 144 60 234l55 293l186 37l-26 -110l23 20l137 17l-102 -542c-6.66699 -42 -16.667 -89 -30 -141c-12 -51.333 -24.667 -97.333 -38 -138l208 299l-70 -333c-10.667 -52 -28 -102 -52 -150c-22.667 -45.333 -51.667 -86.666 -87 -123.999
s-74.666 -68.666 -117.999 -93.999c-44.667 -26 -94.334 -46.333 -149.001 -61l107 205c-52.667 -46.667 -110.334 -83 -173.001 -109c-62 -26.667 -122.667 -40 -182 -40c-37.333 0 -68.333 4.66699 -93 14c-22.667 8.66699 -49.667 26 -81 52l13 19
c-4.66699 -0.666992 -12.334 -1 -23.001 -1c-43.333 0 -80 18.333 -110 55c-30 36 -45 80.333 -45 133c0 41.333 3 80 9 116zM766.004 1690l22 -215l-138 -22l-33 79l-63 -14l-131 201l247 40l13 -144z" />
    <glyph glyph-name="Uacute" unicode="&#xda;" horiz-adv-x="1278" 
d="M217 667l-196.996 -285.005c33.333 127.333 56.666 231 69.999 311l7 36l98 536l201 38l-46 -248c-4.66699 -27.333 -13.334 -63.666 -26.001 -108.999c-14 -56.667 -30 -111.667 -48 -165l-10 -30l215 327l-102 -601c-4.66699 -26 -7 -49.667 -7 -71
c0 -31.333 7 -57 21 -77s32.667 -30 56 -30c9.33301 0 19.333 2 30 6l9 16c10 -35.333 23.667 -60.666 41 -75.999s41.333 -23 72 -23c40.667 0 80.667 12.667 120 38c40 26 70.333 58.333 91 97c22.667 40.667 42.667 109.334 60 206.001l102 561l-217 -356
c23.333 66 43.333 144 60 234l55 293l186 37l-26 -110l23 20l137 17l-102 -542c-6.66699 -42 -16.667 -89 -30 -141c-12 -51.333 -24.667 -97.333 -38 -138l208 299l-70 -333c-10.667 -52 -28 -102 -52 -150c-22.667 -45.333 -51.667 -86.666 -87 -123.999
s-74.666 -68.666 -117.999 -93.999c-44.667 -26 -94.334 -46.333 -149.001 -61l107 205c-52.667 -46.667 -110.334 -83 -173.001 -109c-62 -26.667 -122.667 -40 -182 -40c-37.333 0 -68.333 4.66699 -93 14c-22.667 8.66699 -49.667 26 -81 52l13 19
c-4.66699 -0.666992 -12.334 -1 -23.001 -1c-43.333 0 -80 18.333 -110 55c-30 36 -45 80.333 -45 133c0 41.333 3 80 9 116zM789.004 1459l-137 -18l112 230l239 49zM649.004 1523l-92 -18l94 231l155 35c-20 -45.333 -43.667 -89.333 -71 -132
c-29.333 -46 -58 -84.667 -86 -116z" />
    <glyph glyph-name="Ucircumflex" unicode="&#xdb;" horiz-adv-x="1278" 
d="M217 667l-196.996 -285.005c33.333 127.333 56.666 231 69.999 311l7 36l98 536l201 38l-46 -248c-4.66699 -27.333 -13.334 -63.666 -26.001 -108.999c-14 -56.667 -30 -111.667 -48 -165l-10 -30l215 327l-102 -601c-4.66699 -26 -7 -49.667 -7 -71
c0 -31.333 7 -57 21 -77s32.667 -30 56 -30c9.33301 0 19.333 2 30 6l9 16c10 -35.333 23.667 -60.666 41 -75.999s41.333 -23 72 -23c40.667 0 80.667 12.667 120 38c40 26 70.333 58.333 91 97c22.667 40.667 42.667 109.334 60 206.001l102 561l-217 -356
c23.333 66 43.333 144 60 234l55 293l186 37l-26 -110l23 20l137 17l-102 -542c-6.66699 -42 -16.667 -89 -30 -141c-12 -51.333 -24.667 -97.333 -38 -138l208 299l-70 -333c-10.667 -52 -28 -102 -52 -150c-22.667 -45.333 -51.667 -86.666 -87 -123.999
s-74.666 -68.666 -117.999 -93.999c-44.667 -26 -94.334 -46.333 -149.001 -61l107 205c-52.667 -46.667 -110.334 -83 -173.001 -109c-62 -26.667 -122.667 -40 -182 -40c-37.333 0 -68.333 4.66699 -93 14c-22.667 8.66699 -49.667 26 -81 52l13 19
c-4.66699 -0.666992 -12.334 -1 -23.001 -1c-43.333 0 -80 18.333 -110 55c-30 36 -45 80.333 -45 133c0 41.333 3 80 9 116zM596.004 1514l-166 -26l163 229l226 36l58 -114l43 42l95 -191l-174 -27l-44 93l-60 -17l-48 92z" />
    <glyph glyph-name="Udieresis" unicode="&#xdc;" horiz-adv-x="1278" 
d="M217 667l-196.996 -285.005c33.333 127.333 56.666 231 69.999 311l7 36l98 536l201 38l-46 -248c-4.66699 -27.333 -13.334 -63.666 -26.001 -108.999c-14 -56.667 -30 -111.667 -48 -165l-10 -30l215 327l-102 -601c-4.66699 -26 -7 -49.667 -7 -71
c0 -31.333 7 -57 21 -77s32.667 -30 56 -30c9.33301 0 19.333 2 30 6l9 16c10 -35.333 23.667 -60.666 41 -75.999s41.333 -23 72 -23c40.667 0 80.667 12.667 120 38c40 26 70.333 58.333 91 97c22.667 40.667 42.667 109.334 60 206.001l102 561l-217 -356
c23.333 66 43.333 144 60 234l55 293l186 37l-26 -110l23 20l137 17l-102 -542c-6.66699 -42 -16.667 -89 -30 -141c-12 -51.333 -24.667 -97.333 -38 -138l208 299l-70 -333c-10.667 -52 -28 -102 -52 -150c-22.667 -45.333 -51.667 -86.666 -87 -123.999
s-74.666 -68.666 -117.999 -93.999c-44.667 -26 -94.334 -46.333 -149.001 -61l107 205c-52.667 -46.667 -110.334 -83 -173.001 -109c-62 -26.667 -122.667 -40 -182 -40c-37.333 0 -68.333 4.66699 -93 14c-22.667 8.66699 -49.667 26 -81 52l13 19
c-4.66699 -0.666992 -12.334 -1 -23.001 -1c-43.333 0 -80 18.333 -110 55c-30 36 -45 80.333 -45 133c0 41.333 3 80 9 116zM1045 1457c-38 -5.33301 -63.002 -10 -75.002 -14c-16 -4.66699 -35 -13.667 -57 -27c26.667 50 52.334 90.667 77.001 122
c23.333 31.333 55 67 95 107c-17.333 -59.333 -30.666 -122 -39.999 -188zM952.002 1525l-195 -29l35 197l188 25zM355.002 1507l24 196l197 33l-13 -93c34.667 11.333 69 21 103 29l-24 -195l-189 -41l9 17c31.333 55.333 52.333 90.333 63 105
c-36.667 -16.667 -63.667 -27.334 -81 -32.001c-16 -5.33301 -45.667 -11.666 -89 -18.999z" />
    <glyph glyph-name="germandbls" unicode="&#xdf;" horiz-adv-x="1032" 
d="M275 911l188 276c-56.667 -14.667 -100 -44 -130 -88c-30.667 -43.333 -50 -106 -58 -188zM183 103l-127.002 -26.999l104 671l-146 -187c14 49.333 23.667 87 29 113c6 30.667 18 99 36 205c9.33301 60.667 21 113.667 35 159c13.333 44 29 80.667 47 110
c19.333 30.667 43.333 59.334 72 86.001c40.667 38.667 86.334 67 137.001 85c51.333 18.667 115.333 29.334 192 32.001l-45 -76c37.333 6.66699 73 10 107 10c62.667 0 114.334 -15.667 155.001 -47c39.333 -32 59 -73 59 -123c0 -22.667 -6.66699 -55.667 -20 -99l88 106
c16.667 -40 25 -78.333 25 -115c0 -50 -11.667 -95.667 -35 -137c-22.667 -40 -60.667 -80.667 -114 -122c27.333 -13.333 50.666 -29 69.999 -47c18 -16.667 31 -36.334 39 -59.001s12 -49 12 -79c0 -32 -9 -82.667 -27 -152l110 135c3.33301 -31.333 5 -56.333 5 -75
c0 -80.667 -15.333 -153.667 -46 -219c-30.667 -66 -76 -122 -136 -168c-60.667 -45.333 -133 -79 -217 -101l76 136c-41.333 -28.667 -77 -48 -107 -58c-34 -11.333 -70.333 -17 -109 -17c4 0 -10 0.666992 -42 2l28 170h23c70.667 0 130 28 178 84
c47.333 55.333 71 124 71 206c0 43.333 -10.333 78.333 -31 105s-48 40 -82 40h-10h-8c-2 -0.666992 -4.66699 -1 -8 -1l9 20c-25.333 20.667 -54.333 31 -87 31c-20 0 -47.667 -4 -83 -12l27 146c66.667 9.33301 117.667 30.666 153 63.999c36 33.333 54 75.666 54 126.999
c0 59.333 -28.667 89 -86 89c-26 0 -50.333 -6.33301 -73 -19s-40.667 -28.667 -54 -48c-12.667 -16.667 -22.667 -36 -30 -58c-8 -26 -14.333 -55.333 -19 -88l-5 -29l-69 -434c-3.33301 -21.333 -8.33301 -48 -15 -80c0 -0.666992 -0.833008 -4.66699 -2.5 -12
s-3.16699 -14.333 -4.5 -21c-5.33301 -26 -11.666 -53 -18.999 -81l-6 -25l141 181l-53 -358l-213 -26c8 16.667 21 41 39 73z" />
    <glyph glyph-name="agrave" unicode="&#xe0;" horiz-adv-x="984" 
d="M597 546c-39.333 -22 -71.334 -38.667 -96.001 -50c-73.333 -35.333 -121.333 -61 -144 -77c-19.333 -14 -35.333 -31.333 -48 -52c-13.333 -21.333 -20 -41.333 -20 -60c0 -19.333 7.33301 -35.333 22 -48c14.667 -13.333 32.334 -20 53.001 -20
c57.333 0 107 27.333 149 82c42 55.333 70 130.333 84 225zM713.999 472c-4 -2.66699 -6.99902 -4.33398 -8.99902 -5.00098c-4.66699 -3.33301 -7.33398 -5 -8.00098 -5c-35.333 -21.333 -68.666 -39 -99.999 -53l-142 -238c40 0.666992 77 9.33398 111 26.001
c33.333 16 60.666 37.667 81.999 65c31.333 41.333 53.333 111.333 66 210zM271 658l-277 -436c-5.33301 28.667 -8 51.667 -8 69c0 77.333 23.667 146.666 71 207.999c19.333 26.667 44 51.334 74 74.001c24 18 70.667 46.333 140 85zM834 103l-177.996 -35
c-2.66699 26 -4 46.667 -4 62v15c-44 -50 -85.333 -84.333 -124 -103c-37.333 -18.667 -92 -31 -164 -37l81 149c-41.333 -30 -75 -50.333 -101 -61c-24 -10 -51 -15 -81 -15c-48.667 0 -87 14.667 -115 44s-42 69.333 -42 120c0 39.333 9 79.333 27 120
c17.333 41.333 40 75 68 101c46 43.333 126.333 87.333 241 132c78 29.333 125.333 50.333 142 63c26 17.333 39 41 39 71c0 40 -23.333 60 -70 60c-42 0 -80.667 -11.667 -116 -35c-17.333 -11.333 -31 -25 -41 -41c-9.33301 -14 -20 -37 -32 -69l-85 -9l143 240
c-86.667 -20 -144.334 -71.333 -173.001 -154l-157 -26c20 66 47.667 122 83 168c35.333 45.333 79.666 81.333 132.999 108s118.666 46 195.999 58l-64 -119c73.333 26 137.666 39 192.999 39c51.333 0 91.333 -11.333 120 -34s43 -55 43 -97c0 -30 -10 -81 -30 -153
l117 164c22 -40 33 -81.333 33 -124c0 -24 -4.66699 -61 -14 -111l-63 -313c-11.333 -56.667 -17 -95.667 -17 -117c0 -16.667 4 -37 12 -61zM641.004 1308l22 -215l-138 -22l-33 79l-63 -14l-131 201l247 40l13 -144z" />
    <glyph glyph-name="aacute" unicode="&#xe1;" horiz-adv-x="984" 
d="M597 546c-39.333 -22 -71.334 -38.667 -96.001 -50c-73.333 -35.333 -121.333 -61 -144 -77c-19.333 -14 -35.333 -31.333 -48 -52c-13.333 -21.333 -20 -41.333 -20 -60c0 -19.333 7.33301 -35.333 22 -48c14.667 -13.333 32.334 -20 53.001 -20
c57.333 0 107 27.333 149 82c42 55.333 70 130.333 84 225zM713.999 472c-4 -2.66699 -6.99902 -4.33398 -8.99902 -5.00098c-4.66699 -3.33301 -7.33398 -5 -8.00098 -5c-35.333 -21.333 -68.666 -39 -99.999 -53l-142 -238c40 0.666992 77 9.33398 111 26.001
c33.333 16 60.666 37.667 81.999 65c31.333 41.333 53.333 111.333 66 210zM271 658l-277 -436c-5.33301 28.667 -8 51.667 -8 69c0 77.333 23.667 146.666 71 207.999c19.333 26.667 44 51.334 74 74.001c24 18 70.667 46.333 140 85zM834 103l-177.996 -35
c-2.66699 26 -4 46.667 -4 62v15c-44 -50 -85.333 -84.333 -124 -103c-37.333 -18.667 -92 -31 -164 -37l81 149c-41.333 -30 -75 -50.333 -101 -61c-24 -10 -51 -15 -81 -15c-48.667 0 -87 14.667 -115 44s-42 69.333 -42 120c0 39.333 9 79.333 27 120
c17.333 41.333 40 75 68 101c46 43.333 126.333 87.333 241 132c78 29.333 125.333 50.333 142 63c26 17.333 39 41 39 71c0 40 -23.333 60 -70 60c-42 0 -80.667 -11.667 -116 -35c-17.333 -11.333 -31 -25 -41 -41c-9.33301 -14 -20 -37 -32 -69l-85 -9l143 240
c-86.667 -20 -144.334 -71.333 -173.001 -154l-157 -26c20 66 47.667 122 83 168c35.333 45.333 79.666 81.333 132.999 108s118.666 46 195.999 58l-64 -119c73.333 26 137.666 39 192.999 39c51.333 0 91.333 -11.333 120 -34s43 -55 43 -97c0 -30 -10 -81 -30 -153
l117 164c22 -40 33 -81.333 33 -124c0 -24 -4.66699 -61 -14 -111l-63 -313c-11.333 -56.667 -17 -95.667 -17 -117c0 -16.667 4 -37 12 -61zM675.004 1090l-137 -18l112 230l239 49zM535.004 1154l-92 -18l94 231l155 35c-20 -45.333 -43.667 -89.333 -71 -132
c-29.333 -46 -58 -84.667 -86 -116z" />
    <glyph glyph-name="acircumflex" unicode="&#xe2;" horiz-adv-x="984" 
d="M597 546c-39.333 -22 -71.334 -38.667 -96.001 -50c-73.333 -35.333 -121.333 -61 -144 -77c-19.333 -14 -35.333 -31.333 -48 -52c-13.333 -21.333 -20 -41.333 -20 -60c0 -19.333 7.33301 -35.333 22 -48c14.667 -13.333 32.334 -20 53.001 -20
c57.333 0 107 27.333 149 82c42 55.333 70 130.333 84 225zM713.999 472c-4 -2.66699 -6.99902 -4.33398 -8.99902 -5.00098c-4.66699 -3.33301 -7.33398 -5 -8.00098 -5c-35.333 -21.333 -68.666 -39 -99.999 -53l-142 -238c40 0.666992 77 9.33398 111 26.001
c33.333 16 60.666 37.667 81.999 65c31.333 41.333 53.333 111.333 66 210zM271 658l-277 -436c-5.33301 28.667 -8 51.667 -8 69c0 77.333 23.667 146.666 71 207.999c19.333 26.667 44 51.334 74 74.001c24 18 70.667 46.333 140 85zM834 103l-177.996 -35
c-2.66699 26 -4 46.667 -4 62v15c-44 -50 -85.333 -84.333 -124 -103c-37.333 -18.667 -92 -31 -164 -37l81 149c-41.333 -30 -75 -50.333 -101 -61c-24 -10 -51 -15 -81 -15c-48.667 0 -87 14.667 -115 44s-42 69.333 -42 120c0 39.333 9 79.333 27 120
c17.333 41.333 40 75 68 101c46 43.333 126.333 87.333 241 132c78 29.333 125.333 50.333 142 63c26 17.333 39 41 39 71c0 40 -23.333 60 -70 60c-42 0 -80.667 -11.667 -116 -35c-17.333 -11.333 -31 -25 -41 -41c-9.33301 -14 -20 -37 -32 -69l-85 -9l143 240
c-86.667 -20 -144.334 -71.333 -173.001 -154l-157 -26c20 66 47.667 122 83 168c35.333 45.333 79.666 81.333 132.999 108s118.666 46 195.999 58l-64 -119c73.333 26 137.666 39 192.999 39c51.333 0 91.333 -11.333 120 -34s43 -55 43 -97c0 -30 -10 -81 -30 -153
l117 164c22 -40 33 -81.333 33 -124c0 -24 -4.66699 -61 -14 -111l-63 -313c-11.333 -56.667 -17 -95.667 -17 -117c0 -16.667 4 -37 12 -61zM482.004 1132l-166 -26l163 229l226 36l58 -114l43 42l95 -191l-174 -27l-44 93l-60 -17l-48 92z" />
    <glyph glyph-name="atilde" unicode="&#xe3;" horiz-adv-x="984" 
d="M597 546c-39.333 -22 -71.334 -38.667 -96.001 -50c-73.333 -35.333 -121.333 -61 -144 -77c-19.333 -14 -35.333 -31.333 -48 -52c-13.333 -21.333 -20 -41.333 -20 -60c0 -19.333 7.33301 -35.333 22 -48c14.667 -13.333 32.334 -20 53.001 -20
c57.333 0 107 27.333 149 82c42 55.333 70 130.333 84 225zM713.999 472c-4 -2.66699 -6.99902 -4.33398 -8.99902 -5.00098c-4.66699 -3.33301 -7.33398 -5 -8.00098 -5c-35.333 -21.333 -68.666 -39 -99.999 -53l-142 -238c40 0.666992 77 9.33398 111 26.001
c33.333 16 60.666 37.667 81.999 65c31.333 41.333 53.333 111.333 66 210zM271 658l-277 -436c-5.33301 28.667 -8 51.667 -8 69c0 77.333 23.667 146.666 71 207.999c19.333 26.667 44 51.334 74 74.001c24 18 70.667 46.333 140 85zM834 103l-177.996 -35
c-2.66699 26 -4 46.667 -4 62v15c-44 -50 -85.333 -84.333 -124 -103c-37.333 -18.667 -92 -31 -164 -37l81 149c-41.333 -30 -75 -50.333 -101 -61c-24 -10 -51 -15 -81 -15c-48.667 0 -87 14.667 -115 44s-42 69.333 -42 120c0 39.333 9 79.333 27 120
c17.333 41.333 40 75 68 101c46 43.333 126.333 87.333 241 132c78 29.333 125.333 50.333 142 63c26 17.333 39 41 39 71c0 40 -23.333 60 -70 60c-42 0 -80.667 -11.667 -116 -35c-17.333 -11.333 -31 -25 -41 -41c-9.33301 -14 -20 -37 -32 -69l-85 -9l143 240
c-86.667 -20 -144.334 -71.333 -173.001 -154l-157 -26c20 66 47.667 122 83 168c35.333 45.333 79.666 81.333 132.999 108s118.666 46 195.999 58l-64 -119c73.333 26 137.666 39 192.999 39c51.333 0 91.333 -11.333 120 -34s43 -55 43 -97c0 -30 -10 -81 -30 -153
l117 164c22 -40 33 -81.333 33 -124c0 -24 -4.66699 -61 -14 -111l-63 -313c-11.333 -56.667 -17 -95.667 -17 -117c0 -16.667 4 -37 12 -61zM250.004 1207c8 57.333 21.332 96.667 39.999 118c18.667 22 53.334 40.333 104.001 55c-40 -65.333 -88 -123 -144 -173z
M469.003 1119l-137.002 -17.001c10.667 76.667 30.334 131.334 59.001 164.001c28 32 70 48 126 48c22.667 0 45.334 -2 68.001 -6c30.667 -5.33301 52.667 -8 66 -8c26.667 0 45 13.333 55 40l126 17v-28l-72 -107c2 -0.666992 4.66699 -1 8 -1
c10.667 0 18.667 2.33301 24 7c6 5.33301 11 13.333 15 24l116 15c-1.33301 -36 -8 -67.333 -20 -94c-12.667 -28 -30.667 -49.667 -54 -65s-49 -23 -77 -23c-9.33301 0 -23 1.66699 -41 5l11 78c-32.667 -16.667 -63.667 -25 -93 -25c-10.667 0 -24.334 1.66699 -41.001 5
l-58 11c-2 0.666992 -7.66699 1 -17 1c-31.333 0 -52.666 -13.667 -63.999 -41z" />
    <glyph glyph-name="adieresis" unicode="&#xe4;" horiz-adv-x="984" 
d="M597 546c-39.333 -22 -71.334 -38.667 -96.001 -50c-73.333 -35.333 -121.333 -61 -144 -77c-19.333 -14 -35.333 -31.333 -48 -52c-13.333 -21.333 -20 -41.333 -20 -60c0 -19.333 7.33301 -35.333 22 -48c14.667 -13.333 32.334 -20 53.001 -20
c57.333 0 107 27.333 149 82c42 55.333 70 130.333 84 225zM713.999 472c-4 -2.66699 -6.99902 -4.33398 -8.99902 -5.00098c-4.66699 -3.33301 -7.33398 -5 -8.00098 -5c-35.333 -21.333 -68.666 -39 -99.999 -53l-142 -238c40 0.666992 77 9.33398 111 26.001
c33.333 16 60.666 37.667 81.999 65c31.333 41.333 53.333 111.333 66 210zM271 658l-277 -436c-5.33301 28.667 -8 51.667 -8 69c0 77.333 23.667 146.666 71 207.999c19.333 26.667 44 51.334 74 74.001c24 18 70.667 46.333 140 85zM834 103l-177.996 -35
c-2.66699 26 -4 46.667 -4 62v15c-44 -50 -85.333 -84.333 -124 -103c-37.333 -18.667 -92 -31 -164 -37l81 149c-41.333 -30 -75 -50.333 -101 -61c-24 -10 -51 -15 -81 -15c-48.667 0 -87 14.667 -115 44s-42 69.333 -42 120c0 39.333 9 79.333 27 120
c17.333 41.333 40 75 68 101c46 43.333 126.333 87.333 241 132c78 29.333 125.333 50.333 142 63c26 17.333 39 41 39 71c0 40 -23.333 60 -70 60c-42 0 -80.667 -11.667 -116 -35c-17.333 -11.333 -31 -25 -41 -41c-9.33301 -14 -20 -37 -32 -69l-85 -9l143 240
c-86.667 -20 -144.334 -71.333 -173.001 -154l-157 -26c20 66 47.667 122 83 168c35.333 45.333 79.666 81.333 132.999 108s118.666 46 195.999 58l-64 -119c73.333 26 137.666 39 192.999 39c51.333 0 91.333 -11.333 120 -34s43 -55 43 -97c0 -30 -10 -81 -30 -153
l117 164c22 -40 33 -81.333 33 -124c0 -24 -4.66699 -61 -14 -111l-63 -313c-11.333 -56.667 -17 -95.667 -17 -117c0 -16.667 4 -37 12 -61zM934.004 1116c-38 -5.33301 -63.002 -10 -75.002 -14c-16 -4.66699 -35 -13.667 -57 -27c26.667 50 52.334 90.667 77.001 122
c23.333 31.333 55 67 95 107c-17.333 -59.333 -30.666 -122 -39.999 -188zM841.002 1184l-195 -29l35 197l188 25zM244.002 1166l24 196l197 33l-13 -93c34.667 11.333 69 21 103 29l-24 -195l-189 -41l9 17c31.333 55.333 52.333 90.333 63 105
c-36.667 -16.667 -63.667 -27.334 -81 -32.001c-16 -5.33301 -45.667 -11.666 -89 -18.999z" />
    <glyph glyph-name="aring" unicode="&#xe5;" horiz-adv-x="984" 
d="M597 546c-39.333 -22 -71.334 -38.667 -96.001 -50c-73.333 -35.333 -121.333 -61 -144 -77c-19.333 -14 -35.333 -31.333 -48 -52c-13.333 -21.333 -20 -41.333 -20 -60c0 -19.333 7.33301 -35.333 22 -48c14.667 -13.333 32.334 -20 53.001 -20
c57.333 0 107 27.333 149 82c42 55.333 70 130.333 84 225zM713.999 472c-4 -2.66699 -6.99902 -4.33398 -8.99902 -5.00098c-4.66699 -3.33301 -7.33398 -5 -8.00098 -5c-35.333 -21.333 -68.666 -39 -99.999 -53l-142 -238c40 0.666992 77 9.33398 111 26.001
c33.333 16 60.666 37.667 81.999 65c31.333 41.333 53.333 111.333 66 210zM271 658l-277 -436c-5.33301 28.667 -8 51.667 -8 69c0 77.333 23.667 146.666 71 207.999c19.333 26.667 44 51.334 74 74.001c24 18 70.667 46.333 140 85zM834 103l-177.996 -35
c-2.66699 26 -4 46.667 -4 62v15c-44 -50 -85.333 -84.333 -124 -103c-37.333 -18.667 -92 -31 -164 -37l81 149c-41.333 -30 -75 -50.333 -101 -61c-24 -10 -51 -15 -81 -15c-48.667 0 -87 14.667 -115 44s-42 69.333 -42 120c0 39.333 9 79.333 27 120
c17.333 41.333 40 75 68 101c46 43.333 126.333 87.333 241 132c78 29.333 125.333 50.333 142 63c26 17.333 39 41 39 71c0 40 -23.333 60 -70 60c-42 0 -80.667 -11.667 -116 -35c-17.333 -11.333 -31 -25 -41 -41c-9.33301 -14 -20 -37 -32 -69l-85 -9l143 240
c-86.667 -20 -144.334 -71.333 -173.001 -154l-157 -26c20 66 47.667 122 83 168c35.333 45.333 79.666 81.333 132.999 108s118.666 46 195.999 58l-64 -119c73.333 26 137.666 39 192.999 39c51.333 0 91.333 -11.333 120 -34s43 -55 43 -97c0 -30 -10 -81 -30 -153
l117 164c22 -40 33 -81.333 33 -124c0 -24 -4.66699 -61 -14 -111l-63 -313c-11.333 -56.667 -17 -95.667 -17 -117c0 -16.667 4 -37 12 -61zM700.004 1225c0 13.333 -3.66699 24.333 -11 33c-6.66699 8 -17 12 -31 12c-18.667 0 -35.667 -8.66699 -51 -26
s-23 -36.333 -23 -57c0 -30 12.667 -45 38 -45c19.333 0 37.333 9 54 27c16 17.333 24 36 24 56zM771.004 1248c0 -29.333 -8.33301 -58.333 -25 -87c-16.667 -29.333 -38.334 -53.333 -65.001 -72c-25.333 -18.667 -52.666 -28 -81.999 -28c-26.667 0 -48.667 9 -66 27
c-17.333 18.667 -26 42 -26 70c0 30.667 8.66699 61.667 26 93c16.667 29.333 39 54.333 67 75c27.333 20 55 30 83 30c26.667 0 48 -9.66699 64 -29c16 -20 24 -46.333 24 -79zM493.004 1236l-71 -73c-6.66699 22 -10 43 -10 63c0 53.333 18 99.333 54 138
c34.667 38.667 76.667 58 126 58h9l-45 -91h-5c-16.667 0 -31.667 -6.66699 -45 -20c-13.333 -14.667 -20 -31.334 -20 -50.001c0 -7.33301 2.33301 -15.666 7 -24.999z" />
    <glyph glyph-name="ae" unicode="&#xe6;" horiz-adv-x="1571" 
d="M606 811l-125 -193.999c48 18.667 85 35 111 49c20.667 10.667 35 21.667 43 33s12 25.666 12 42.999c0 24.667 -13.667 47.667 -41 69zM888 518.001l-74 -12c-0.666992 -4.66699 -1 -12.667 -1 -24c0 -16 2 -38.667 6 -68zM843 671.001l90.999 14.999
c21.333 4 51.333 11.333 90 22l-74 -100l297 49c-2.66699 42.667 -13.667 76 -33 100c-18.667 24 -43 36 -73 36c-14 0 -33 -3.66699 -57 -11l33 45c-25.333 16.667 -51.666 25 -78.999 25c-42.667 0 -81.667 -16 -117 -48c-35.333 -33.333 -61.333 -77.666 -78 -132.999z
M630.999 551c-32 -15.333 -70.666 -32.6699 -115.999 -52.0029c-46 -18.667 -79 -33.667 -99 -45s-41.667 -26.666 -65 -45.999l111 181l-25 -13c-48 -23.333 -83 -41.666 -105 -54.999c-24.667 -14.667 -43.667 -27.667 -57 -39c-35.333 -29.333 -53 -61.666 -53 -96.999
c0 -38 18.333 -65.333 55 -82l43 62c-2.66699 -11.333 -4 -25 -4 -41c0 -20.667 7.66699 -37.667 23 -51s36 -20 62 -20c39.333 0 77.333 13.667 114 41c35.333 26.667 62.666 63.667 81.999 111c16 38 27.333 86.667 34 146zM314 1090l-103.999 -176.004
c50 39.333 99.667 69 149 89c47.333 18 100 27 158 27c66.667 0 128.667 -16.667 186 -50l-11 -12c46.667 -17.333 83.334 -36 110.001 -56c92 84 188.667 126 290 126c47.333 0 100.333 -11.667 159 -35l-19 -25c66 -16 117 -48.667 153 -98
c35.333 -50.667 53 -114.667 53 -192c0 -16 -1 -37.667 -3 -65l-2 -28l110 144c0 -15.333 0.333008 -26 1 -32v-28c0 -74 -3.66699 -148.333 -11 -223l-206 -28l9 16l47 77l-483 -76c5.33301 -58 18.333 -100.333 39 -127c21.333 -28 51 -42 89 -42
c34.667 0 66.334 10.333 95.001 31c28.667 20 58 52.333 88 97l101 18l-163 -239c42.667 28 74 52 94 72s41.667 49.333 65 88l199 13c-77.333 -173.333 -193 -279 -347 -317l-57 -14c-27.333 -7.33301 -50.333 -15.666 -69 -24.999l81 133c-52.667 -30 -104 -45 -154 -45
c-44 0 -81.667 9 -113 27c-30.667 16.667 -64 47.334 -100 92.001c-36 -43.333 -82 -84.666 -138 -123.999l82 134c-14 16 -27.667 35 -41 57c-30 -38 -65 -72.333 -105 -103c-40.667 -31.333 -80.334 -54 -119.001 -68c-40.667 -16 -80.334 -24 -119.001 -24
c-24.667 0 -48 3.66699 -70 11s-46.333 20.333 -73 39l8 11c-99.333 22 -149 86 -149 192c0 74 25.667 139.667 77 197s125.333 101.333 222 132l108 34c36 10.667 65.333 26.334 88 47.001c21.333 20 32 42 32 66c0 18 -6.33301 32 -19 42s-32.334 15 -59.001 15
c-92 0 -153 -48 -183 -144l-181 -15l25 76l-114 -16c15.333 46 31 85 47 117c15.333 30.667 33 57 53 79c22 24 48.667 46 80 66c34.667 22 72.667 42.667 114 62z" />
    <glyph glyph-name="ccedilla" unicode="&#xe7;" horiz-adv-x="999" 
d="M225 449l240.001 389.999c-56 -10 -104 -40.667 -144 -92c-30.667 -39.333 -54.334 -82.666 -71.001 -129.999c-17.333 -50 -26 -96 -26 -138c0 -14 0.333008 -24 1 -30zM303.001 -327.001l-41 8l42 87c16 -8.66699 35.333 -16.667 58 -24zM761.001 555.999l166 239
c25.333 -54 38 -110 38 -168v-8l-126 -30c-26.667 -6.66699 -52.667 -17.667 -78 -33zM394.001 -77.001l83.002 165c-46 -16 -84.333 -24 -115 -24c-58 0 -105 22.667 -141 68s-54 104.333 -54 177c0 20.667 1 40 3 58l-106 -141c-20 69.333 -30 131 -30 185
c0 87.333 21 176.333 63 267c42 90 97 165 165 225c38.667 34.667 82.334 61 131.001 79c49.333 18 106.666 29 171.999 33l-72 -125c66 31.333 120.333 47 163 47c35.333 0 68 -10 98 -30s52 -46.333 66 -79c14.667 -32.667 23.667 -77 27 -133l-183 -43
c-8.66699 70 -37.667 105 -87 105c-40 0 -77.333 -17.333 -112 -52c-35.333 -35.333 -63 -82 -83 -140c-20.667 -58 -31 -119.333 -31 -184c0 -86 31.667 -129 95 -129c53.333 0 98.333 26 135 78c14 19.333 30.333 48.333 49 87l46 8l-150 -253
c58 3.33301 106 19.333 144 48s66 70.667 84 126l166 24c-30.667 -102 -79 -185 -145 -249s-144 -104 -234 -120l-12 -24c64.667 -18.667 97 -57.667 97 -117c0 -18.667 -5.66699 -46 -17 -82l57 77c2 -15.333 3 -27.333 3 -36c0 -58 -16.333 -106.667 -49 -146
c-33.333 -40 -80 -68 -140 -84l50 78c-16 -17.333 -34.667 -30 -56 -38c-22 -8 -49 -12 -81 -12c-28.667 0 -57 5 -85 15l38 88c22 -6.66699 39.667 -10 53 -10c35.333 0 64.666 11.667 87.999 35s35 52.333 35 87c0 36.667 -17.667 58.667 -53 66l6 16
c-12.667 9.33301 -27.334 14 -44.001 14c-6 0 -18.333 -1.66699 -37 -5z" />
    <glyph glyph-name="egrave" unicode="&#xe8;" horiz-adv-x="993" 
d="M218 360l101 154l-120 -24c-0.666992 -4 -1 -10.667 -1 -20c0 -26 6.66699 -62.667 20 -110zM232 653l166.001 27.001l-39 -102l305 54c-2.66699 38.667 -7.66699 67 -15 85c-6.66699 16 -18.334 29 -35.001 39c-16.667 9.33301 -35 14 -55 14
c-31.333 0 -66.333 -16.333 -105 -49l56 102c-24.667 10 -48 15 -70 15c-46 0 -87 -16 -123 -48c-36.667 -32.667 -65 -78.334 -85 -137.001zM157.001 276.001l-63.0029 -77c-40 65.333 -60 133.333 -60 204c0 63.333 9.83301 126.666 29.5 189.999
s49.167 126.666 88.5 189.999c28.667 46.667 62.667 87.334 102 122.001c39.333 35.333 81.333 62.333 126 81c44 18 87.333 27 130 27c30 0 62 -5 96 -15l-34 -65c26 7.33301 48.667 11 68 11c44.667 0 81.334 -12.333 110.001 -37s50 -63.667 64 -117
c14 -52.667 21 -121.334 21 -206.001l112 146c8 -58 12 -108.333 12 -151c0 -44.667 -4 -92.667 -12 -144l-221 -45l42 94l14 22l-450 -88v-18c-0.666992 -3.33301 -1 -8 -1 -14c0 -39.333 9.66699 -70.666 29 -93.999c19.333 -24 44 -36 74 -36c72 0 134 43 186 129l84 9
l-135 -224c40 14.667 70.667 31 92 49c21.333 19.333 45.333 49.333 72 90l180 21c-40 -103.333 -109.667 -188.666 -209 -255.999c-55.333 -37.333 -132.666 -64.333 -231.999 -81l72 133c-78 -29.333 -140 -44 -186 -44c-39.333 0 -72 7 -98 21
c-25.333 12.667 -46.666 33.667 -63.999 63s-30.333 66 -39 110zM624.998 1308l22 -215l-138 -22l-33 79l-63 -14l-131 201l247 40l13 -144z" />
    <glyph glyph-name="eacute" unicode="&#xe9;" horiz-adv-x="993" 
d="M218 360l101 154l-120 -24c-0.666992 -4 -1 -10.667 -1 -20c0 -26 6.66699 -62.667 20 -110zM232 653l166.001 27.001l-39 -102l305 54c-2.66699 38.667 -7.66699 67 -15 85c-6.66699 16 -18.334 29 -35.001 39c-16.667 9.33301 -35 14 -55 14
c-31.333 0 -66.333 -16.333 -105 -49l56 102c-24.667 10 -48 15 -70 15c-46 0 -87 -16 -123 -48c-36.667 -32.667 -65 -78.334 -85 -137.001zM157.001 276.001l-63.0029 -77c-40 65.333 -60 133.333 -60 204c0 63.333 9.83301 126.666 29.5 189.999
s49.167 126.666 88.5 189.999c28.667 46.667 62.667 87.334 102 122.001c39.333 35.333 81.333 62.333 126 81c44 18 87.333 27 130 27c30 0 62 -5 96 -15l-34 -65c26 7.33301 48.667 11 68 11c44.667 0 81.334 -12.333 110.001 -37s50 -63.667 64 -117
c14 -52.667 21 -121.334 21 -206.001l112 146c8 -58 12 -108.333 12 -151c0 -44.667 -4 -92.667 -12 -144l-221 -45l42 94l14 22l-450 -88v-18c-0.666992 -3.33301 -1 -8 -1 -14c0 -39.333 9.66699 -70.666 29 -93.999c19.333 -24 44 -36 74 -36c72 0 134 43 186 129l84 9
l-135 -224c40 14.667 70.667 31 92 49c21.333 19.333 45.333 49.333 72 90l180 21c-40 -103.333 -109.667 -188.666 -209 -255.999c-55.333 -37.333 -132.666 -64.333 -231.999 -81l72 133c-78 -29.333 -140 -44 -186 -44c-39.333 0 -72 7 -98 21
c-25.333 12.667 -46.666 33.667 -63.999 63s-30.333 66 -39 110zM671.998 1090l-137 -18l112 230l239 49zM531.998 1154l-92 -18l94 231l155 35c-20 -45.333 -43.667 -89.333 -71 -132c-29.333 -46 -58 -84.667 -86 -116z" />
    <glyph glyph-name="ecircumflex" unicode="&#xea;" horiz-adv-x="993" 
d="M218 360l101 154l-120 -24c-0.666992 -4 -1 -10.667 -1 -20c0 -26 6.66699 -62.667 20 -110zM232 653l166.001 27.001l-39 -102l305 54c-2.66699 38.667 -7.66699 67 -15 85c-6.66699 16 -18.334 29 -35.001 39c-16.667 9.33301 -35 14 -55 14
c-31.333 0 -66.333 -16.333 -105 -49l56 102c-24.667 10 -48 15 -70 15c-46 0 -87 -16 -123 -48c-36.667 -32.667 -65 -78.334 -85 -137.001zM157.001 276.001l-63.0029 -77c-40 65.333 -60 133.333 -60 204c0 63.333 9.83301 126.666 29.5 189.999
s49.167 126.666 88.5 189.999c28.667 46.667 62.667 87.334 102 122.001c39.333 35.333 81.333 62.333 126 81c44 18 87.333 27 130 27c30 0 62 -5 96 -15l-34 -65c26 7.33301 48.667 11 68 11c44.667 0 81.334 -12.333 110.001 -37s50 -63.667 64 -117
c14 -52.667 21 -121.334 21 -206.001l112 146c8 -58 12 -108.333 12 -151c0 -44.667 -4 -92.667 -12 -144l-221 -45l42 94l14 22l-450 -88v-18c-0.666992 -3.33301 -1 -8 -1 -14c0 -39.333 9.66699 -70.666 29 -93.999c19.333 -24 44 -36 74 -36c72 0 134 43 186 129l84 9
l-135 -224c40 14.667 70.667 31 92 49c21.333 19.333 45.333 49.333 72 90l180 21c-40 -103.333 -109.667 -188.666 -209 -255.999c-55.333 -37.333 -132.666 -64.333 -231.999 -81l72 133c-78 -29.333 -140 -44 -186 -44c-39.333 0 -72 7 -98 21
c-25.333 12.667 -46.666 33.667 -63.999 63s-30.333 66 -39 110zM427.998 1132l-166 -26l163 229l226 36l58 -114l43 42l95 -191l-174 -27l-44 93l-60 -17l-48 92z" />
    <glyph glyph-name="edieresis" unicode="&#xeb;" horiz-adv-x="993" 
d="M218 360l101 154l-120 -24c-0.666992 -4 -1 -10.667 -1 -20c0 -26 6.66699 -62.667 20 -110zM232 653l166.001 27.001l-39 -102l305 54c-2.66699 38.667 -7.66699 67 -15 85c-6.66699 16 -18.334 29 -35.001 39c-16.667 9.33301 -35 14 -55 14
c-31.333 0 -66.333 -16.333 -105 -49l56 102c-24.667 10 -48 15 -70 15c-46 0 -87 -16 -123 -48c-36.667 -32.667 -65 -78.334 -85 -137.001zM157.001 276.001l-63.0029 -77c-40 65.333 -60 133.333 -60 204c0 63.333 9.83301 126.666 29.5 189.999
s49.167 126.666 88.5 189.999c28.667 46.667 62.667 87.334 102 122.001c39.333 35.333 81.333 62.333 126 81c44 18 87.333 27 130 27c30 0 62 -5 96 -15l-34 -65c26 7.33301 48.667 11 68 11c44.667 0 81.334 -12.333 110.001 -37s50 -63.667 64 -117
c14 -52.667 21 -121.334 21 -206.001l112 146c8 -58 12 -108.333 12 -151c0 -44.667 -4 -92.667 -12 -144l-221 -45l42 94l14 22l-450 -88v-18c-0.666992 -3.33301 -1 -8 -1 -14c0 -39.333 9.66699 -70.666 29 -93.999c19.333 -24 44 -36 74 -36c72 0 134 43 186 129l84 9
l-135 -224c40 14.667 70.667 31 92 49c21.333 19.333 45.333 49.333 72 90l180 21c-40 -103.333 -109.667 -188.666 -209 -255.999c-55.333 -37.333 -132.666 -64.333 -231.999 -81l72 133c-78 -29.333 -140 -44 -186 -44c-39.333 0 -72 7 -98 21
c-25.333 12.667 -46.666 33.667 -63.999 63s-30.333 66 -39 110zM892.998 1116c-38 -5.33301 -63.002 -10 -75.002 -14c-16 -4.66699 -35 -13.667 -57 -27c26.667 50 52.334 90.667 77.001 122c23.333 31.333 55 67 95 107c-17.333 -59.333 -30.666 -122 -39.999 -188z
M799.996 1184l-195 -29l35 197l188 25zM202.996 1166l24 196l197 33l-13 -93c34.667 11.333 69 21 103 29l-24 -195l-189 -41l9 17c31.333 55.333 52.333 90.333 63 105c-36.667 -16.667 -63.667 -27.334 -81 -32.001c-16 -5.33301 -45.667 -11.666 -89 -18.999z" />
    <glyph glyph-name="igrave" unicode="&#xec;" horiz-adv-x="495" 
d="M10 824l34 159l98 22zM167 913l178.001 30.998l-98 -524l204 283c-9.33301 -30.667 -16 -55 -20 -73c-3.33301 -14.667 -5.33301 -25 -6 -31c-3.33301 -10.667 -5 -16.667 -5 -18l-3.5 -15.5c-1 -4.33301 -1.83301 -7.16602 -2.5 -8.49902l-103 -479l-175 -34l23 117
c7.33301 36.667 15.666 70 24.999 100c10.667 34.667 25 77.334 43 128.001l-177 -265l-38 -1zM362.001 1308l22 -215l-138 -22l-33 79l-63 -14l-131 201l247 40l13 -144z" />
    <glyph glyph-name="iacute" unicode="&#xed;" horiz-adv-x="495" 
d="M10 824l34 159l98 22zM167 913l178.001 30.998l-98 -524l204 283c-9.33301 -30.667 -16 -55 -20 -73c-3.33301 -14.667 -5.33301 -25 -6 -31c-3.33301 -10.667 -5 -16.667 -5 -18l-3.5 -15.5c-1 -4.33301 -1.83301 -7.16602 -2.5 -8.49902l-103 -479l-175 -34l23 117
c7.33301 36.667 15.666 70 24.999 100c10.667 34.667 25 77.334 43 128.001l-177 -265l-38 -1zM371.001 1090l-137 -18l112 230l239 49zM231.001 1154l-92 -18l94 231l155 35c-20 -45.333 -43.667 -89.333 -71 -132c-29.333 -46 -58 -84.667 -86 -116z" />
    <glyph glyph-name="icircumflex" unicode="&#xee;" horiz-adv-x="495" 
d="M11 824l34 159l98 22zM168 913l178.001 30.998l-98 -524l204 283c-9.33301 -30.667 -16 -55 -20 -73c-3.33301 -14.667 -5.33301 -25 -6 -31c-3.33301 -10.667 -5 -16.667 -5 -18l-3.5 -15.5c-1 -4.33301 -1.83301 -7.16602 -2.5 -8.49902l-103 -479l-175 -34l23 117
c7.33301 36.667 15.666 70 24.999 100c10.667 34.667 25 77.334 43 128.001l-177 -265l-38 -1zM177.001 1132l-166 -26l163 229l226 36l58 -114l43 42l95 -191l-174 -27l-44 93l-60 -17l-48 92z" />
    <glyph glyph-name="idieresis" unicode="&#xef;" horiz-adv-x="495" 
d="M657 1116c-38 -5.33301 -63.002 -10 -75.002 -14c-16 -4.66699 -35 -13.667 -57 -27c26.667 50 52.334 90.667 77.001 122c23.333 31.333 55 67 95 107c-17.333 -59.333 -30.666 -122 -39.999 -188zM563.998 1184l-195 -29l35 197l188 25zM-33.002 1166l24 196l197 33
l-13 -93c34.667 11.333 69 21 103 29l-24 -195l-189 -41l9 17c31.333 55.333 52.333 90.333 63 105c-36.667 -16.667 -63.667 -27.334 -81 -32.001c-16 -5.33301 -45.667 -11.666 -89 -18.999zM9.99805 824l34 159l98 22zM166.998 913l178.001 30.998l-98 -524l204 283
c-9.33301 -30.667 -16 -55 -20 -73c-3.33301 -14.667 -5.33301 -25 -6 -31c-3.33301 -10.667 -5 -16.667 -5 -18l-3.5 -15.5c-1 -4.33301 -1.83301 -7.16602 -2.5 -8.49902l-103 -479l-175 -34l23 117c7.33301 36.667 15.666 70 24.999 100
c10.667 34.667 25 77.334 43 128.001l-177 -265l-38 -1z" />
    <glyph glyph-name="ntilde" unicode="&#xf1;" horiz-adv-x="1021" 
d="M0 104l142.998 797l170 38l-7 -84c30 37.333 55 65 75 83c20.667 18.667 44.334 33.667 71.001 45c22.667 9.33301 56.667 19 102 29l-108 -201c-51.333 -15.333 -91.666 -41 -120.999 -77c-29.333 -38 -51 -87.333 -65 -148l-30 -143l180 299
c40 52 71.333 89.333 94 112c50.667 50.667 108.667 76 174 76c44.667 0 79.334 -14.333 104.001 -43c25.333 -29.333 38 -68 38 -116c0 -16.667 -1.66699 -37.334 -5 -62.001l-15 -102l128 195c10 -40.667 15 -76.334 15 -107.001c0 -36.667 -5.33301 -85.667 -16 -147
l-83 -471l-179 -36l64 333l6 28c5.33301 28.667 18 82 38 160l-199 -298l52 310c4.66699 24 7 49 7 75c0 26.667 -5 46.334 -15 59.001c-10.667 12.667 -26.334 19 -47.001 19c-18.667 0 -37.667 -4.33301 -57 -13c-20 -8.66699 -37.333 -21 -52 -37
c-34.667 -35.333 -60 -94 -76 -176l-7 -42l-75 -391l-179 -42l31 172c7.33301 42.667 20.333 100.334 39 173.001l8 29zM232.998 1207c8 57.333 21.332 96.667 39.999 118c18.667 22 53.334 40.333 104.001 55c-40 -65.333 -88 -123 -144 -173zM451.997 1119
l-137.002 -17.001c10.667 76.667 30.334 131.334 59.001 164.001c28 32 70 48 126 48c22.667 0 45.334 -2 68.001 -6c30.667 -5.33301 52.667 -8 66 -8c26.667 0 45 13.333 55 40l126 17v-28l-72 -107c2 -0.666992 4.66699 -1 8 -1c10.667 0 18.667 2.33301 24 7
c6 5.33301 11 13.333 15 24l116 15c-1.33301 -36 -8 -67.333 -20 -94c-12.667 -28 -30.667 -49.667 -54 -65s-49 -23 -77 -23c-9.33301 0 -23 1.66699 -41 5l11 78c-32.667 -16.667 -63.667 -25 -93 -25c-10.667 0 -24.334 1.66699 -41.001 5l-58 11
c-2 0.666992 -7.66699 1 -17 1c-31.333 0 -52.666 -13.667 -63.999 -41z" />
    <glyph glyph-name="ograve" unicode="&#xf2;" horiz-adv-x="1019" 
d="M814 537l-227 -379c142 90.667 217.667 217 227 379zM228 330l125.002 195.999c-14 -46.667 -21 -89.667 -21 -129c0 -48 9 -84.667 27 -110c18 -26 43.667 -39 77 -39c39.333 0 78.666 17.667 117.999 53c38 34.667 69 81.334 93 140.001c24 58 36 116.667 36 176
c0 50 -9.66699 88.667 -29 116s-47 41 -83 41c-20.667 0 -44.667 -7.66699 -72 -23c-3.33301 -1.33301 -6.66602 -3 -9.99902 -5c-2.66699 -1.33301 -7.33398 -4 -14.001 -8l44 79c-22 16 -45 24 -69 24c-40.667 0 -80.334 -17.667 -119.001 -53
c-38.667 -36 -69.667 -83 -93 -141c-24 -58.667 -36 -120 -36 -184c0 -50 8.66699 -94.333 26 -133zM171.002 240.999l-51.0029 -70.002c-30.667 42.667 -52.667 83.334 -66 122.001c-13.333 38 -20 80.667 -20 128c0 73.333 13.333 145 40 215s63.667 134.667 111 194
c46.667 58.667 99.334 104.667 158.001 138s116.334 50 173.001 50c30 0 64.333 -6 103 -18l-33 -61c25.333 4 46.333 6 63 6c64.667 0 116.334 -25.333 155.001 -76c39.333 -51.333 59 -116.666 59 -195.999c0 -14.667 -1 -36.667 -3 -66l103 146
c14.667 -48.667 22 -97.667 22 -147c0 -57.333 -8.66699 -116 -26 -176c-18 -60 -43.333 -116 -76 -168c-34.667 -55.333 -73.334 -103 -116.001 -143c-32 -30 -68.333 -54.667 -109 -74c-42.667 -20 -94.667 -37.333 -156 -52l74 145c-47.333 -24 -86.666 -41 -117.999 -51
c-32 -10 -63 -15 -93 -15c-49.333 0 -89.333 13.333 -120 40c-30 25.333 -54.667 68.333 -74 129zM662.999 1308l22 -215l-138 -22l-33 79l-63 -14l-131 201l247 40l13 -144z" />
    <glyph glyph-name="oacute" unicode="&#xf3;" horiz-adv-x="1019" 
d="M814 537l-227 -379c142 90.667 217.667 217 227 379zM228 330l125.002 195.999c-14 -46.667 -21 -89.667 -21 -129c0 -48 9 -84.667 27 -110c18 -26 43.667 -39 77 -39c39.333 0 78.666 17.667 117.999 53c38 34.667 69 81.334 93 140.001c24 58 36 116.667 36 176
c0 50 -9.66699 88.667 -29 116s-47 41 -83 41c-20.667 0 -44.667 -7.66699 -72 -23c-3.33301 -1.33301 -6.66602 -3 -9.99902 -5c-2.66699 -1.33301 -7.33398 -4 -14.001 -8l44 79c-22 16 -45 24 -69 24c-40.667 0 -80.334 -17.667 -119.001 -53
c-38.667 -36 -69.667 -83 -93 -141c-24 -58.667 -36 -120 -36 -184c0 -50 8.66699 -94.333 26 -133zM171.002 240.999l-51.0029 -70.002c-30.667 42.667 -52.667 83.334 -66 122.001c-13.333 38 -20 80.667 -20 128c0 73.333 13.333 145 40 215s63.667 134.667 111 194
c46.667 58.667 99.334 104.667 158.001 138s116.334 50 173.001 50c30 0 64.333 -6 103 -18l-33 -61c25.333 4 46.333 6 63 6c64.667 0 116.334 -25.333 155.001 -76c39.333 -51.333 59 -116.666 59 -195.999c0 -14.667 -1 -36.667 -3 -66l103 146
c14.667 -48.667 22 -97.667 22 -147c0 -57.333 -8.66699 -116 -26 -176c-18 -60 -43.333 -116 -76 -168c-34.667 -55.333 -73.334 -103 -116.001 -143c-32 -30 -68.333 -54.667 -109 -74c-42.667 -20 -94.667 -37.333 -156 -52l74 145c-47.333 -24 -86.666 -41 -117.999 -51
c-32 -10 -63 -15 -93 -15c-49.333 0 -89.333 13.333 -120 40c-30 25.333 -54.667 68.333 -74 129zM666.999 1090l-137 -18l112 230l239 49zM526.999 1154l-92 -18l94 231l155 35c-20 -45.333 -43.667 -89.333 -71 -132c-29.333 -46 -58 -84.667 -86 -116z" />
    <glyph glyph-name="ocircumflex" unicode="&#xf4;" horiz-adv-x="1019" 
d="M814 537l-227 -379c142 90.667 217.667 217 227 379zM228 330l125.002 195.999c-14 -46.667 -21 -89.667 -21 -129c0 -48 9 -84.667 27 -110c18 -26 43.667 -39 77 -39c39.333 0 78.666 17.667 117.999 53c38 34.667 69 81.334 93 140.001c24 58 36 116.667 36 176
c0 50 -9.66699 88.667 -29 116s-47 41 -83 41c-20.667 0 -44.667 -7.66699 -72 -23c-3.33301 -1.33301 -6.66602 -3 -9.99902 -5c-2.66699 -1.33301 -7.33398 -4 -14.001 -8l44 79c-22 16 -45 24 -69 24c-40.667 0 -80.334 -17.667 -119.001 -53
c-38.667 -36 -69.667 -83 -93 -141c-24 -58.667 -36 -120 -36 -184c0 -50 8.66699 -94.333 26 -133zM171.002 240.999l-51.0029 -70.002c-30.667 42.667 -52.667 83.334 -66 122.001c-13.333 38 -20 80.667 -20 128c0 73.333 13.333 145 40 215s63.667 134.667 111 194
c46.667 58.667 99.334 104.667 158.001 138s116.334 50 173.001 50c30 0 64.333 -6 103 -18l-33 -61c25.333 4 46.333 6 63 6c64.667 0 116.334 -25.333 155.001 -76c39.333 -51.333 59 -116.666 59 -195.999c0 -14.667 -1 -36.667 -3 -66l103 146
c14.667 -48.667 22 -97.667 22 -147c0 -57.333 -8.66699 -116 -26 -176c-18 -60 -43.333 -116 -76 -168c-34.667 -55.333 -73.334 -103 -116.001 -143c-32 -30 -68.333 -54.667 -109 -74c-42.667 -20 -94.667 -37.333 -156 -52l74 145c-47.333 -24 -86.666 -41 -117.999 -51
c-32 -10 -63 -15 -93 -15c-49.333 0 -89.333 13.333 -120 40c-30 25.333 -54.667 68.333 -74 129zM449.999 1132l-166 -26l163 229l226 36l58 -114l43 42l95 -191l-174 -27l-44 93l-60 -17l-48 92z" />
    <glyph glyph-name="otilde" unicode="&#xf5;" horiz-adv-x="1019" 
d="M814 537l-227 -379c142 90.667 217.667 217 227 379zM228 330l125.002 195.999c-14 -46.667 -21 -89.667 -21 -129c0 -48 9 -84.667 27 -110c18 -26 43.667 -39 77 -39c39.333 0 78.666 17.667 117.999 53c38 34.667 69 81.334 93 140.001c24 58 36 116.667 36 176
c0 50 -9.66699 88.667 -29 116s-47 41 -83 41c-20.667 0 -44.667 -7.66699 -72 -23c-3.33301 -1.33301 -6.66602 -3 -9.99902 -5c-2.66699 -1.33301 -7.33398 -4 -14.001 -8l44 79c-22 16 -45 24 -69 24c-40.667 0 -80.334 -17.667 -119.001 -53
c-38.667 -36 -69.667 -83 -93 -141c-24 -58.667 -36 -120 -36 -184c0 -50 8.66699 -94.333 26 -133zM171.002 240.999l-51.0029 -70.002c-30.667 42.667 -52.667 83.334 -66 122.001c-13.333 38 -20 80.667 -20 128c0 73.333 13.333 145 40 215s63.667 134.667 111 194
c46.667 58.667 99.334 104.667 158.001 138s116.334 50 173.001 50c30 0 64.333 -6 103 -18l-33 -61c25.333 4 46.333 6 63 6c64.667 0 116.334 -25.333 155.001 -76c39.333 -51.333 59 -116.666 59 -195.999c0 -14.667 -1 -36.667 -3 -66l103 146
c14.667 -48.667 22 -97.667 22 -147c0 -57.333 -8.66699 -116 -26 -176c-18 -60 -43.333 -116 -76 -168c-34.667 -55.333 -73.334 -103 -116.001 -143c-32 -30 -68.333 -54.667 -109 -74c-42.667 -20 -94.667 -37.333 -156 -52l74 145c-47.333 -24 -86.666 -41 -117.999 -51
c-32 -10 -63 -15 -93 -15c-49.333 0 -89.333 13.333 -120 40c-30 25.333 -54.667 68.333 -74 129zM222.999 1207c8 57.333 21.332 96.667 39.999 118c18.667 22 53.334 40.333 104.001 55c-40 -65.333 -88 -123 -144 -173zM441.998 1119l-137.002 -17.001
c10.667 76.667 30.334 131.334 59.001 164.001c28 32 70 48 126 48c22.667 0 45.334 -2 68.001 -6c30.667 -5.33301 52.667 -8 66 -8c26.667 0 45 13.333 55 40l126 17v-28l-72 -107c2 -0.666992 4.66699 -1 8 -1c10.667 0 18.667 2.33301 24 7c6 5.33301 11 13.333 15 24
l116 15c-1.33301 -36 -8 -67.333 -20 -94c-12.667 -28 -30.667 -49.667 -54 -65s-49 -23 -77 -23c-9.33301 0 -23 1.66699 -41 5l11 78c-32.667 -16.667 -63.667 -25 -93 -25c-10.667 0 -24.334 1.66699 -41.001 5l-58 11c-2 0.666992 -7.66699 1 -17 1
c-31.333 0 -52.666 -13.667 -63.999 -41z" />
    <glyph glyph-name="odieresis" unicode="&#xf6;" horiz-adv-x="1019" 
d="M814 537l-227 -379c142 90.667 217.667 217 227 379zM228 330l125.002 195.999c-14 -46.667 -21 -89.667 -21 -129c0 -48 9 -84.667 27 -110c18 -26 43.667 -39 77 -39c39.333 0 78.666 17.667 117.999 53c38 34.667 69 81.334 93 140.001c24 58 36 116.667 36 176
c0 50 -9.66699 88.667 -29 116s-47 41 -83 41c-20.667 0 -44.667 -7.66699 -72 -23c-3.33301 -1.33301 -6.66602 -3 -9.99902 -5c-2.66699 -1.33301 -7.33398 -4 -14.001 -8l44 79c-22 16 -45 24 -69 24c-40.667 0 -80.334 -17.667 -119.001 -53
c-38.667 -36 -69.667 -83 -93 -141c-24 -58.667 -36 -120 -36 -184c0 -50 8.66699 -94.333 26 -133zM171.002 240.999l-51.0029 -70.002c-30.667 42.667 -52.667 83.334 -66 122.001c-13.333 38 -20 80.667 -20 128c0 73.333 13.333 145 40 215s63.667 134.667 111 194
c46.667 58.667 99.334 104.667 158.001 138s116.334 50 173.001 50c30 0 64.333 -6 103 -18l-33 -61c25.333 4 46.333 6 63 6c64.667 0 116.334 -25.333 155.001 -76c39.333 -51.333 59 -116.666 59 -195.999c0 -14.667 -1 -36.667 -3 -66l103 146
c14.667 -48.667 22 -97.667 22 -147c0 -57.333 -8.66699 -116 -26 -176c-18 -60 -43.333 -116 -76 -168c-34.667 -55.333 -73.334 -103 -116.001 -143c-32 -30 -68.333 -54.667 -109 -74c-42.667 -20 -94.667 -37.333 -156 -52l74 145c-47.333 -24 -86.666 -41 -117.999 -51
c-32 -10 -63 -15 -93 -15c-49.333 0 -89.333 13.333 -120 40c-30 25.333 -54.667 68.333 -74 129zM906.999 1116c-38 -5.33301 -63.002 -10 -75.002 -14c-16 -4.66699 -35 -13.667 -57 -27c26.667 50 52.334 90.667 77.001 122c23.333 31.333 55 67 95 107
c-17.333 -59.333 -30.666 -122 -39.999 -188zM813.997 1184l-195 -29l35 197l188 25zM216.997 1166l24 196l197 33l-13 -93c34.667 11.333 69 21 103 29l-24 -195l-189 -41l9 17c31.333 55.333 52.333 90.333 63 105c-36.667 -16.667 -63.667 -27.334 -81 -32.001
c-16 -5.33301 -45.667 -11.666 -89 -18.999z" />
    <glyph glyph-name="divide" unicode="&#xf7;" 
d="M82 1351v-1337h655v1337h-655zM751 0h-683v1365h683v-1365z" />
    <glyph glyph-name="oslash" unicode="&#xf8;" horiz-adv-x="1019" 
d="M790 537l-218.001 -362.999c44.667 19.333 79.334 40.333 104.001 63c24.667 22 46.667 51.667 66 89c32.667 61.333 49 126.666 49 195.999c0 6.66699 -0.333008 11.667 -1 15zM674.999 671.001l-295.999 -388c27.333 -24 55.666 -36 84.999 -36c30 0 59 9 87 27
c27.333 18 51.333 41.667 72 71c19.333 29.333 35.333 64 48 104c12 41.333 18 84.333 18 129c0 28.667 -4.66699 59.667 -14 93zM344 346.001l293 385.999c-26 22 -53 33 -81 33c-21.333 0 -39 -3.33301 -53 -10s-36.333 -22.667 -67 -48l73 129h-25
c-50 0 -94.667 -14 -134 -42c-40 -30 -70.333 -70.333 -91 -121c-22 -52 -33 -110 -33 -174c0 -37.333 4 -73.666 12 -108.999l113 180c-15.333 -60 -23 -110 -23 -150c0 -26 5.33301 -50.667 16 -74zM881 672l59.9971 93c17.333 -40.667 29 -75.667 35 -105
c6 -30.667 9 -64.667 9 -102c0 -58 -9.33301 -116 -28 -174c-18.667 -58.667 -45.334 -113.334 -80.001 -164.001c-33.333 -49.333 -73.333 -93 -120 -131c-38.667 -28.667 -78.667 -50.667 -120 -66c-43.333 -15.333 -96.666 -26 -159.999 -32l43 86
c-46.667 -14 -87 -21 -121 -21c-27.333 0 -53 3.66699 -77 11c-23.333 7.33301 -48.666 19 -75.999 35l-91 -116l-52 40l91 122c-16.667 28 -27 47 -31 57c-5.33301 11.333 -10.666 30 -15.999 56l-47 -64c-24 45.333 -41 86.333 -51 123c-10 37.333 -15 75.333 -15 114
c0 87.333 20 174.333 60 261c38.667 86.667 91.334 158.667 158.001 216c82.667 70.667 176.334 106 281.001 106c22 0 43 -1 63 -3l-27 -61c24 2.66699 41 4 51 4c46 0 95.667 -17.667 149 -53l102 136l51 -43l-105 -137c17.333 -25.333 30 -48.666 38 -69.999
c7.33301 -20 14.666 -50.667 21.999 -92z" />
    <glyph glyph-name="ugrave" unicode="&#xf9;" horiz-adv-x="1021" 
d="M754 571l7 33l-256 -390c55.333 11.333 96.333 27 123 47c27.333 21.333 50.333 54.333 69 99c18 44 37 114.333 57 211zM976 906l10.0029 2.00098l-153 -787l-173 -34l5 75c-48 -54 -88.667 -90.667 -122 -110c-34 -19.333 -82 -33 -144 -41l77 151
c-34 -24.667 -65.333 -43.334 -94 -56.001c-26.667 -11.333 -54.334 -17 -83.001 -17c-44.667 0 -80.334 15.333 -107.001 46c-28 30 -42 69.333 -42 118c0 25.333 4 57.333 12 96c1.33301 3.33301 2.66602 8 3.99902 14s2.66602 11.667 3.99902 17l9 43l7 31l-143 -206
c-6 33.333 -9 62.333 -9 87c0 43.333 9.66699 115.333 29 216l77 393l180 39l-77 -443l190 274c-18.667 -74 -33 -135.667 -43 -185l-30 -157c-6 -38.667 -9 -68 -9 -88c0 -55.333 22 -83 66 -83c32.667 0 63.334 12 92.001 36c28 22 50.667 52.667 68 92
c9.33301 24 21 70.333 35 139l72 385l179 38l-48 -308zM604.003 1308l22 -215l-138 -22l-33 79l-63 -14l-131 201l247 40l13 -144z" />
    <glyph glyph-name="uacute" unicode="&#xfa;" horiz-adv-x="1021" 
d="M754 571l7 33l-256 -390c55.333 11.333 96.333 27 123 47c27.333 21.333 50.333 54.333 69 99c18 44 37 114.333 57 211zM976 906l10.0029 2.00098l-153 -787l-173 -34l5 75c-48 -54 -88.667 -90.667 -122 -110c-34 -19.333 -82 -33 -144 -41l77 151
c-34 -24.667 -65.333 -43.334 -94 -56.001c-26.667 -11.333 -54.334 -17 -83.001 -17c-44.667 0 -80.334 15.333 -107.001 46c-28 30 -42 69.333 -42 118c0 25.333 4 57.333 12 96c1.33301 3.33301 2.66602 8 3.99902 14s2.66602 11.667 3.99902 17l9 43l7 31l-143 -206
c-6 33.333 -9 62.333 -9 87c0 43.333 9.66699 115.333 29 216l77 393l180 39l-77 -443l190 274c-18.667 -74 -33 -135.667 -43 -185l-30 -157c-6 -38.667 -9 -68 -9 -88c0 -55.333 22 -83 66 -83c32.667 0 63.334 12 92.001 36c28 22 50.667 52.667 68 92
c9.33301 24 21 70.333 35 139l72 385l179 38l-48 -308zM638.003 1090l-137 -18l112 230l239 49zM498.003 1154l-92 -18l94 231l155 35c-20 -45.333 -43.667 -89.333 -71 -132c-29.333 -46 -58 -84.667 -86 -116z" />
    <glyph glyph-name="ucircumflex" unicode="&#xfb;" horiz-adv-x="1021" 
d="M754 571l7 33l-256 -390c55.333 11.333 96.333 27 123 47c27.333 21.333 50.333 54.333 69 99c18 44 37 114.333 57 211zM976 906l10.0029 2.00098l-153 -787l-173 -34l5 75c-48 -54 -88.667 -90.667 -122 -110c-34 -19.333 -82 -33 -144 -41l77 151
c-34 -24.667 -65.333 -43.334 -94 -56.001c-26.667 -11.333 -54.334 -17 -83.001 -17c-44.667 0 -80.334 15.333 -107.001 46c-28 30 -42 69.333 -42 118c0 25.333 4 57.333 12 96c1.33301 3.33301 2.66602 8 3.99902 14s2.66602 11.667 3.99902 17l9 43l7 31l-143 -206
c-6 33.333 -9 62.333 -9 87c0 43.333 9.66699 115.333 29 216l77 393l180 39l-77 -443l190 274c-18.667 -74 -33 -135.667 -43 -185l-30 -157c-6 -38.667 -9 -68 -9 -88c0 -55.333 22 -83 66 -83c32.667 0 63.334 12 92.001 36c28 22 50.667 52.667 68 92
c9.33301 24 21 70.333 35 139l72 385l179 38l-48 -308zM401.003 1132l-166 -26l163 229l226 36l58 -114l43 42l95 -191l-174 -27l-44 93l-60 -17l-48 92z" />
    <glyph glyph-name="udieresis" unicode="&#xfc;" horiz-adv-x="1021" 
d="M754 571l7 33l-256 -390c55.333 11.333 96.333 27 123 47c27.333 21.333 50.333 54.333 69 99c18 44 37 114.333 57 211zM976 906l10.0029 2.00098l-153 -787l-173 -34l5 75c-48 -54 -88.667 -90.667 -122 -110c-34 -19.333 -82 -33 -144 -41l77 151
c-34 -24.667 -65.333 -43.334 -94 -56.001c-26.667 -11.333 -54.334 -17 -83.001 -17c-44.667 0 -80.334 15.333 -107.001 46c-28 30 -42 69.333 -42 118c0 25.333 4 57.333 12 96c1.33301 3.33301 2.66602 8 3.99902 14s2.66602 11.667 3.99902 17l9 43l7 31l-143 -206
c-6 33.333 -9 62.333 -9 87c0 43.333 9.66699 115.333 29 216l77 393l180 39l-77 -443l190 274c-18.667 -74 -33 -135.667 -43 -185l-30 -157c-6 -38.667 -9 -68 -9 -88c0 -55.333 22 -83 66 -83c32.667 0 63.334 12 92.001 36c28 22 50.667 52.667 68 92
c9.33301 24 21 70.333 35 139l72 385l179 38l-48 -308zM897.003 1116c-38 -5.33301 -63.002 -10 -75.002 -14c-16 -4.66699 -35 -13.667 -57 -27c26.667 50 52.334 90.667 77.001 122c23.333 31.333 55 67 95 107c-17.333 -59.333 -30.666 -122 -39.999 -188zM804.001 1184
l-195 -29l35 197l188 25zM207.001 1166l24 196l197 33l-13 -93c34.667 11.333 69 21 103 29l-24 -195l-189 -41l9 17c31.333 55.333 52.333 90.333 63 105c-36.667 -16.667 -63.667 -27.334 -81 -32.001c-16 -5.33301 -45.667 -11.666 -89 -18.999z" />
    <glyph glyph-name="ydieresis" unicode="&#xff;" horiz-adv-x="926" 
d="M382 73l-114 -177c63.333 30.667 101.333 89.667 114 177zM14 -206l34.999 169c50 11.333 83.333 21 100 29c18.667 8 34.667 20.667 48 38c25.333 31.333 38 75.666 38 132.999c0 25.333 -2.66699 65.333 -8 120l-12 117c-2.66699 24 -4 42.667 -4 56
c0 30 6 67.333 18 112l-133 -170c0 42 -1 71.333 -3 88l-50 428l186 41l19 -189c3.33301 -32 5 -63.667 5 -95v-30l-1 -35l127 204c-3.33301 -48 -5 -82.667 -5 -104c0 -13.333 0.333008 -22.666 1 -27.999v-24l1 -19l12 -227l238 522l188 33l-341 -742l421 649l46 12
l-365 -768l-15 -32c-47.333 -98.667 -82.666 -167.667 -105.999 -207c-24 -40.667 -48.333 -70 -73 -88c-22.667 -16.667 -58 -31.667 -106 -45c-57.333 -15.333 -92 -25.333 -104 -30l52 134c-28 -12.667 -53.667 -22 -77 -28c-22.667 -6 -66.667 -14 -132 -24z
M829.999 1116c-38 -5.33301 -63.002 -10 -75.002 -14c-16 -4.66699 -35 -13.667 -57 -27c26.667 50 52.334 90.667 77.001 122c23.333 31.333 55 67 95 107c-17.333 -59.333 -30.666 -122 -39.999 -188zM736.997 1184l-195 -29l35 197l188 25zM139.997 1166l24 196l197 33
l-13 -93c34.667 11.333 69 21 103 29l-24 -195l-189 -41l9 17c31.333 55.333 52.333 90.333 63 105c-36.667 -16.667 -63.667 -27.334 -81 -32.001c-16 -5.33301 -45.667 -11.666 -89 -18.999z" />
    <glyph glyph-name="dotlessi" unicode="&#x131;" horiz-adv-x="495" 
d="M10 824l34 159l98 22zM167 913l178.001 30.998l-98 -524l204 283c-9.33301 -30.667 -16 -55 -20 -73c-3.33301 -14.667 -5.33301 -25 -6 -31c-3.33301 -10.667 -5 -16.667 -5 -18l-3.5 -15.5c-1 -4.33301 -1.83301 -7.16602 -2.5 -8.49902l-103 -479l-175 -34l23 117
c7.33301 36.667 15.666 70 24.999 100c10.667 34.667 25 77.334 43 128.001l-177 -265l-38 -1z" />
    <glyph glyph-name="OE" unicode="&#x152;" horiz-adv-x="1884" 
d="M1297 655l-112 -32l-35 -200zM672 1071l38.999 68c-24.667 10 -48.667 15 -72 15c-64.667 0 -127.667 -27 -189 -81c-60.667 -54.667 -109 -126.667 -145 -216c-36.667 -89.333 -55 -184.333 -55 -285c0 -41.333 4.33301 -83.333 13 -126l100 142
c2.66699 -46.667 6.33398 -85 11.001 -115c2.66699 -23.333 8 -46.333 16 -69c13.333 -36 32.333 -63.333 57 -82c25.333 -19.333 52.333 -29 81 -29c26 0 51.667 7.66699 77 23s57.333 42.333 96 81l-104 -176c26.667 -1.33301 38 -2 34 -2c49.333 0 96.333 15 141 45
c45.333 29.333 85.333 69.333 120 120c34 48.667 61.333 106.334 82 173.001c20 65.333 30 132.666 30 201.999c0 32 -3 68 -9 108l-143 -219c27.333 88 41 160.667 41 218c0 68 -14.333 121.333 -43 160s-68.667 58 -120 58c-16.667 0 -36 -4.33301 -58 -13zM1806 749h13
l-13 -148l-107 -20zM905.999 75l66.001 138c-38.667 -42.667 -79.334 -78.667 -122.001 -108c-42.667 -28.667 -87 -50 -133 -64c-44.667 -14.667 -93 -22 -145 -22c-21.333 0 -44 2 -68 6l46 90c-42 -15.333 -78.333 -23 -109 -23c-119.333 0 -204.666 76 -255.999 228
l-52 -73c-27.333 60 -45.333 110.333 -54 151c-9.33301 42.667 -14 90 -14 142c0 103.333 18 205 54 305c35.333 100 83.333 188 144 264c61.333 76 131 136.333 209 181c77.333 44.667 157.666 67 240.999 67c34 0 71 -6.33301 111 -19l-24 -49c118 0 203 -44.333 255 -133
l13 157l237 44l-33 -73l413 64l-56 -88l207 36l-19 -205l-328 -56l60 85l-311 -60l-19 -239l209 45l-50 -86l366 62l-33 -202l-439 -79l-31 -303l140 21c61.333 10 119 25 173 45l-52 -90l327 59l-35 -210l-424 -77l52 94c-61.333 -18.667 -114 -31.667 -158 -39l-264 -42
l15 172l-71 -103z" />
    <glyph glyph-name="oe" unicode="&#x153;" horiz-adv-x="1615" 
d="M843 373l100 151.999l-120 -23c-0.666992 -4 -1 -10.667 -1 -20c0 -35.333 7 -71.666 21 -108.999zM856 663.999l166.001 27l-39 -101l302 54c-6 92 -39 138 -99 138c-33.333 0 -69.333 -16.667 -108 -50l56 102c-26.667 10 -51.334 15 -74.001 15
c-44 0 -84.333 -16.333 -121 -49c-36 -32 -63.667 -77.333 -83 -136zM232.001 330.999l121 195.002c-13.333 -55.333 -20 -102.333 -20 -141c0 -42.667 9.33301 -76.334 28 -101.001c18 -24.667 43.333 -37 76 -37c39.333 0 78 18 116 54c38 35.333 69 82.333 93 141
c24 59.333 36 118 36 176c0 49.333 -9 87.333 -27 114c-18.667 26.667 -44.667 40 -78 40c-27.333 0 -61.333 -11.333 -102 -34l43 79c-22.667 14.667 -46 22 -70 22c-63.333 0 -120 -38.667 -170 -116c-50.667 -76.667 -76 -163.667 -76 -261c0 -28.667 2 -51.667 6 -69
c4 -18.667 12 -39.334 24 -62.001zM817.001 853.001c96.667 114.667 202.331 171.999 316.998 171.999c30 0 62 -5 96 -15l-35 -65c27.333 7.33301 50 11 68 11c96.667 0 157.334 -61.333 182.001 -184c8 -39.333 12.667 -97.666 14 -174.999l112 145
c6.66699 -52.667 10 -100.334 10 -143.001c0 -44.667 -3.66699 -95.334 -11 -152.001l-220 -46l41 95l15 21l-450 -87v-17c-0.666992 -2.66699 -1 -6.66699 -1 -12c0 -41.333 9.33301 -73.666 28 -96.999c18 -24.667 43 -37 75 -37c70 0 132 43.333 186 130l86 9l-138 -223
c39.333 12 69.666 27.333 90.999 46c22.667 20.667 46.334 51.334 71.001 92.001l182 21c-42.667 -106 -112 -191.333 -208 -256c-55.333 -37.333 -132.666 -64.333 -231.999 -81l72 133c-10 -4 -31 -11.333 -63 -22c-24 -7.33301 -47 -13 -69 -17
c-20 -3.33301 -38.333 -5 -55 -5c-106 0 -172.667 60 -200 180c-36.667 -65.333 -81.334 -121 -134.001 -167c-51.333 -45.333 -112.666 -82 -183.999 -110l38 105c-50.667 -20 -94 -30 -130 -30c-52.667 0 -95.667 14.667 -129 44c-34 30 -56.333 71.667 -67 125l-55 -70
c-30.667 45.333 -52.667 86.333 -66 123c-13.333 38 -20 79.667 -20 125c0 72.667 13.667 145 41 217c26.667 69.333 64 134.333 112 195c47.333 60 100 106 158 138c57.333 32.667 115.333 49 174 49c28 0 61.333 -6 100 -18l-34 -61c27.333 4 49 6 65 6
c66 0 121.667 -30.667 167 -92z" />
    <glyph glyph-name="Ydieresis" unicode="&#x178;" horiz-adv-x="1094" 
d="M421 111l-103.001 -33.001l70 432l-68 214l-77 -113c-10.667 72 -27.667 143 -51 213l-95 301l-77 -106c-5.33301 36.667 -12.666 72 -21.999 106l-39 143l207 49l12 -65l-24 -40l142 28l61 -242c8.66699 -38 14 -63 16 -75c4 -25.333 7.66699 -58.666 11 -99.999l85 125
l58 -217l280 518l198 47l-421 -755l-44 -247l535 919h50l-412 -724l-77 -437l-196 -44l29 174zM944.999 1457c-38 -5.33301 -63.002 -10 -75.002 -14c-16 -4.66699 -35 -13.667 -57 -27c26.667 50 52.334 90.667 77.001 122c23.333 31.333 55 67 95 107
c-17.333 -59.333 -30.666 -122 -39.999 -188zM851.997 1525l-195 -29l35 197l188 25zM254.997 1507l24 196l197 33l-13 -93c34.667 11.333 69 21 103 29l-24 -195l-189 -41l9 17c31.333 55.333 52.333 90.333 63 105c-36.667 -16.667 -63.667 -27.334 -81 -32.001
c-16 -5.33301 -45.667 -11.666 -89 -18.999z" />
    <glyph glyph-name="florin" unicode="&#x192;" horiz-adv-x="820" 
d="M186 960l-117.999 -17.002l19 113l102 23c21.333 92.667 44.666 165.667 69.999 219c24.667 54 58 97.333 100 130c41.333 32.667 100 62.334 176 89.001c-22.667 -47.333 -56 -108.666 -100 -183.999c-37.333 -62 -74.333 -119.667 -111 -173l-106 -148l-8 -14
c-7.33301 -10 -15.333 -22.667 -24 -38zM787.001 862.998l-160.002 -34.999l-149 -778c-20.667 -108.667 -63 -189.334 -127 -242.001c-63.333 -52.667 -151.333 -79 -264 -79h-13l35 165c58 4.66699 99.333 18 124 40c23.333 20.667 40.333 59.667 51 117l70 354l-161 -235
l-38 -11l141 715l-101 -11l24 114l102 20c15.333 80 34.333 146 57 198c21.333 50.667 49 93 83 127c32.667 32.667 73.334 57 122.001 73c50.667 16 107.667 25.333 171 28l-38 -171c-65.333 -4.66699 -110.666 -21.334 -135.999 -50.001c-24.667 -27.333 -44 -84 -58 -170
l148 25l-29 -114l-143 -33l-32 -144c-4.66699 -24 -17.667 -75 -39 -153c-13.333 -47.333 -27.333 -93.666 -42 -138.999l315 481l107 18z" />
    <glyph glyph-name="hungarumlaut" unicode="&#x2ba;" 
d="M82 1351v-1337h655v1337h-655zM751 0h-683v1365h683v-1365z" />
    <glyph glyph-name="circumflex" unicode="&#x2c6;" horiz-adv-x="859" 
d="M303 1132l-166 -26l163 229l226 36l58 -114l43 42l95 -191l-174 -27l-44 93l-60 -17l-48 92z" />
    <glyph glyph-name="caron" unicode="&#x2c7;" 
d="M82 1351v-1337h655v1337h-655zM751 0h-683v1365h683v-1365z" />
    <glyph glyph-name="breve" unicode="&#x2d8;" 
d="M82 1351v-1337h655v1337h-655zM751 0h-683v1365h683v-1365z" />
    <glyph glyph-name="dotaccent" unicode="&#x2d9;" 
d="M82 1351v-1337h655v1337h-655zM751 0h-683v1365h683v-1365z" />
    <glyph glyph-name="ring" unicode="&#x2da;" horiz-adv-x="632" 
d="M425 1225c0 13.333 -3.66699 24.333 -11 33c-6.66699 8 -17 12 -31 12c-18.667 0 -35.667 -8.66699 -51 -26s-23 -36.333 -23 -57c0 -30 12.667 -45 38 -45c19.333 0 37.333 9 54 27c16 17.333 24 36 24 56zM496 1248c0 -29.333 -8.33301 -58.333 -25 -87
c-16.667 -29.333 -38.334 -53.333 -65.001 -72c-25.333 -18.667 -52.666 -28 -81.999 -28c-26.667 0 -48.667 9 -66 27c-17.333 18.667 -26 42 -26 70c0 30.667 8.66699 61.667 26 93c16.667 29.333 39 54.333 67 75c27.333 20 55 30 83 30c26.667 0 48 -9.66699 64 -29
c16 -20 24 -46.333 24 -79zM218 1236l-71 -73c-6.66699 22 -10 43 -10 63c0 53.333 18 99.333 54 138c34.667 38.667 76.667 58 126 58h9l-45 -91h-5c-16.667 0 -31.667 -6.66699 -45 -20c-13.333 -14.667 -20 -31.334 -20 -50.001c0 -7.33301 2.33301 -15.666 7 -24.999z
" />
    <glyph glyph-name="ogonek" unicode="&#x2db;" 
d="M82 1351v-1337h655v1337h-655zM751 0h-683v1365h683v-1365z" />
    <glyph glyph-name="tilde" unicode="&#x2dc;" horiz-adv-x="947" 
d="M137 1207c8 57.333 21.332 96.667 39.999 118c18.667 22 53.334 40.333 104.001 55c-40 -65.333 -88 -123 -144 -173zM355.999 1119l-137.002 -17.001c10.667 76.667 30.334 131.334 59.001 164.001c28 32 70 48 126 48c22.667 0 45.334 -2 68.001 -6
c30.667 -5.33301 52.667 -8 66 -8c26.667 0 45 13.333 55 40l126 17v-28l-72 -107c2 -0.666992 4.66699 -1 8 -1c10.667 0 18.667 2.33301 24 7c6 5.33301 11 13.333 15 24l116 15c-1.33301 -36 -8 -67.333 -20 -94c-12.667 -28 -30.667 -49.667 -54 -65s-49 -23 -77 -23
c-9.33301 0 -23 1.66699 -41 5l11 78c-32.667 -16.667 -63.667 -25 -93 -25c-10.667 0 -24.334 1.66699 -41.001 5l-58 11c-2 0.666992 -7.66699 1 -17 1c-31.333 0 -52.666 -13.667 -63.999 -41z" />
    <glyph glyph-name="summation" unicode="&#x3a3;" 
d="M82 1351v-1337h655v1337h-655zM751 0h-683v1365h683v-1365z" />
    <glyph glyph-name="Omega" unicode="&#x3a9;" 
d="M82 1351v-1337h655v1337h-655zM751 0h-683v1365h683v-1365z" />
    <glyph glyph-name="pi" unicode="&#x3c0;" 
d="M82 1351v-1337h655v1337h-655zM751 0h-683v1365h683v-1365z" />
    <glyph glyph-name="endash" unicode="&#x2013;" horiz-adv-x="921" 
d="M437 507l-369 -85l37 211l458 103l-58 -122l348 83l-25 -201l-458 -114z" />
    <glyph glyph-name="emdash" unicode="&#x2014;" horiz-adv-x="2176" 
d="M2093 518l-737 -92l59 116l-792 -117l65 117l-620 -82l35 209l730 90l-55 -115l802 118l-56 -115l584 73z" />
    <glyph glyph-name="quoteleft" unicode="&#x2018;" horiz-adv-x="573" 
d="M123 900l-25 -8.00098l37 207c12 66.667 36.333 124 73 172c38 50 84.667 88.667 140 116l-9 -65c-36 -29.333 -63.667 -59.666 -83 -90.999c-18.667 -30 -32 -67 -40 -111l62 18l-2 -14zM434 1069l-36.001 -208l-182 -41l60 303c70.667 110 135.334 177.333 194.001 202
l-8 -75c-33.333 -17.333 -61.333 -44 -84 -80c-22.667 -36.667 -36.667 -76.667 -42 -120z" />
    <glyph glyph-name="quoteright" unicode="&#x2019;" horiz-adv-x="573" 
d="M447 1307l24.999 7l-38 -206c-11.333 -65.333 -35 -122.333 -71 -171c-36.667 -50 -83.667 -89 -141 -117l9 65c36.667 29.333 64.334 59.333 83.001 90c18.667 30 32 67 40 111l-62 -18l2 14zM135.999 1137l36 208.001l182 42l-60 -304
c-69.333 -108 -134 -175.333 -194 -202l8 75c33.333 17.333 61.333 44 84 80c23.333 37.333 37.333 77.666 42 120.999z" />
    <glyph glyph-name="quotesinglbase" unicode="&#x201a;" 
d="M82 1351v-1337h655v1337h-655zM751 0h-683v1365h683v-1365z" />
    <glyph glyph-name="quotedblleft" unicode="&#x201c;" horiz-adv-x="950" 
d="M500 900l-25 -8l37 207c12 65.333 36.333 122.666 73 171.999c36 49.333 82.667 88 140 116l-9 -65c-36 -29.333 -63.667 -59.666 -83 -90.999c-18.667 -30 -32 -67 -40 -111l61 18l-1 -14zM811 1069l-36 -207.999l-182 -41l60 303
c69.333 109.333 134 176.666 194 201.999l-8 -75c-33.333 -17.333 -61.333 -44 -84 -80c-22.667 -36.667 -36.667 -76.667 -42 -120zM123 900.001l-25 -8.00098l37 207c12 66.667 36.333 124 73 172c38 50 84.667 88.667 140 116l-9 -65
c-36 -29.333 -63.667 -59.666 -83 -90.999c-18.667 -30 -32 -67 -40 -111l62 18l-2 -14zM434 1069l-36.001 -208l-182 -41l60 303c70.667 110 135.334 177.333 194.001 202l-8 -75c-33.333 -17.333 -61.333 -44 -84 -80c-22.667 -36.667 -36.667 -76.667 -42 -120z" />
    <glyph glyph-name="quotedblright" unicode="&#x201d;" horiz-adv-x="950" 
d="M447 1307l24.999 7l-38 -206c-11.333 -65.333 -35 -122.333 -71 -171c-36.667 -50 -83.667 -89 -141 -117l9 65c36.667 29.333 64.334 59.333 83.001 90c18.667 30 32 67 40 111l-62 -18l2 14zM135.999 1137l36 208.001l182 42l-60 -304
c-69.333 -108 -134 -175.333 -194 -202l8 75c33.333 17.333 61.333 44 84 80c23.333 37.333 37.333 77.666 42 120.999zM823.999 1307l25 7l-38 -206c-24.667 -134.667 -95.667 -230.667 -213 -288l10 65c37.333 30.667 65.333 61.334 84 92.001
c17.333 29.333 30 65.666 38 108.999l-61 -18l1 14zM512.999 1137l35 208l183 42l-61 -304c-68.667 -108.667 -133 -176 -193 -202l8 75c32 16.667 59.667 43 83 79c22.667 36 36.667 76.667 42 122z" />
    <glyph glyph-name="quotedblbase" unicode="&#x201e;" horiz-adv-x="950" 
d="M406 226l24.999 7l-37 -207c-12 -65.333 -36 -122.333 -72 -171c-36.667 -49.333 -83.667 -88.333 -141 -117l9 66c36.667 29.333 64.334 59.333 83.001 90c18.667 30 32 67 40 111l-62 -18l2 14zM94.999 56l36 208l182 42l-60 -304
c-69.333 -108 -134 -175.333 -194 -202l8 75c33.333 16.667 61.666 43.667 84.999 81c22.667 36.667 36.334 76.667 41.001 120zM782.999 226l24.999 7l-38 -207c-11.333 -66 -35 -123 -71 -171c-37.333 -49.333 -84.666 -88.333 -141.999 -117l10 66
c37.333 30.667 65.333 61.334 84 92.001c17.333 29.333 30 65.666 38 108.999l-61 -18l1 14zM471.998 56l36 208l182 42l-60 -304c-69.333 -108 -134 -175.333 -194 -202l8 75c32 16.667 59.667 43 83 79c22.667 36 36.667 76.667 42 122z" />
    <glyph glyph-name="dagger" unicode="&#x2020;" 
d="M82 1351v-1337h655v1337h-655zM751 0h-683v1365h683v-1365z" />
    <glyph glyph-name="daggerdbl" unicode="&#x2021;" 
d="M82 1351v-1337h655v1337h-655zM751 0h-683v1365h683v-1365z" />
    <glyph glyph-name="bullet" unicode="&#x2022;" horiz-adv-x="682" 
d="M341 976c44 0 85 -11.001 123 -33.001s68 -52 90 -90s33 -79 33 -123s-11 -84.667 -33 -122c-22 -38 -52 -68 -90 -90s-79 -33 -123 -33c-66.667 0 -124 24 -172 72c-48.667 46.667 -73 104.334 -73 173.001s24 127 72 175c47.333 47.333 105 71 173 71z" />
    <glyph glyph-name="ellipsis" unicode="&#x2026;" horiz-adv-x="2048" 
d="M1701 383l-43 -225l-184 -45l38 221zM1825 306l-38 -216l-174 -48l136 238zM336 383l-43 -225l-184 -45l38 221zM460 306l-38 -216l-174 -48l136 238zM1019 383l-43 -225l-185 -45l39 221zM1142 306l-38 -216l-173 -48l135 238z" />
    <glyph glyph-name="perthousand" unicode="&#x2030;" horiz-adv-x="2491" 
d="M2314 375l-182 -303c112.667 71.333 173.334 172.333 182 303zM1845 209l99.999 157.002c-12 -38.667 -18 -73.334 -18 -104.001c0 -79.333 28 -119 84 -119c32.667 0 64.334 14.333 95.001 43s55.334 66 74 112c19.333 48 29 95 29 141
c0 41.333 -7.66699 72.666 -23 93.999s-37.666 32 -67 32c-16.667 0 -35.667 -6.33301 -57 -19l-2.5 -1c-1.66699 -0.666992 -3.83398 -1.66699 -6.50098 -3c-4 -2.66699 -7.66699 -4.66699 -11 -6l35 63c-17.333 12.667 -35.666 19 -54.999 19
c-33.333 0 -65.333 -14.333 -96 -43c-31.333 -29.333 -56 -67.333 -74 -114c-18.667 -47.333 -28 -96.333 -28 -147c0 -40 7 -75 21 -105zM705.999 1085l-182.001 -303c114.667 73.333 175.334 174.333 182.001 303zM236.998 919.002l99.9971 157.001
c-11.333 -38 -17 -72.333 -17 -103c0 -80 28 -120 84 -120c32.667 0 64.334 14.333 95.001 43c30.667 30 55.334 67.667 74.001 113s28 92 28 140c0 40.667 -7.66699 71.667 -23 93s-37.666 32 -66.999 32c-16.667 0 -35.667 -6 -57 -18l-4 -2
c-1.33301 0 -2.5 -0.5 -3.5 -1.5s-2.16699 -1.83301 -3.5 -2.5c-1.33301 0 -2.33301 -0.333008 -3 -1s-2.33398 -1.66699 -5.00098 -3l35 63c-17.333 12.667 -35.666 19 -54.999 19c-34 0 -66 -14 -96 -42s-54.667 -66.333 -74 -115s-29 -97.334 -29 -146.001
c0 -40.667 7 -76 21 -106zM1495 375.003l-182.001 -303c112.667 71.333 173.334 172.333 182.001 303zM1025.99 209.003l99.9971 157.002c-12 -38.667 -18 -73.334 -18 -104.001c0 -79.333 28 -119 84 -119c32.667 0 64.334 14.333 95.001 43s55.334 66 74.001 112
c19.333 48 29 95 29 141c0 41.333 -7.66699 72.666 -23 93.999s-37.666 32 -66.999 32c-16.667 0 -35.667 -6.33301 -57 -19l-2.5 -1c-1.66699 -0.666992 -3.83398 -1.66699 -6.50098 -3c-4 -2.66699 -7.66699 -4.66699 -11 -6l35 63c-17.333 12.667 -35.666 19 -54.999 19
c-33.333 0 -65.333 -14.333 -96 -43c-31.333 -29.333 -56 -67.333 -74 -114c-18.667 -47.333 -28 -96.333 -28 -147c0 -40 7 -75 21 -105zM1798.99 138.005l-41.001 -56.002c-46 63.333 -69 130 -69 200c0 58.667 11 116.334 33 173.001c22 57.333 52 109.333 90 156
c36.667 46 78.667 82.667 126 110c46 26 91.667 39 137 39c20.667 0 48 -4.66699 82 -14l-26 -49c23.333 3.33301 40 5 50 5c33.333 0 63.333 -9.33301 90 -28c26.667 -19.333 46.667 -45 60 -77c14 -32.667 21 -70.334 21 -113.001c0 6 -0.666992 -11.667 -2 -53l83 117
c11.333 -42 17 -81.333 17 -118c0 -46.667 -7 -94 -21 -142c-15.333 -49.333 -35.666 -94.333 -61 -135c-26.667 -41.333 -57.667 -78.666 -93 -111.999c-26.667 -24.667 -54.667 -44 -84 -58c-29.333 -15.333 -71.666 -29.666 -126.999 -42.999l59 116
c-68.667 -35.333 -125 -53 -169 -53c-38.667 0 -70.667 11 -96 33c-25.333 21.333 -45 55.333 -59 102zM191.99 848.003l-41.0029 -56.002c-46 63.333 -69 130 -69 200c0 58.667 11 116.334 33 173.001c22 57.333 52 109.333 90 156c36.667 45.333 78.334 82 125.001 110
c45.333 26 91 39 137 39c22.667 0 50.334 -5 83.001 -15l-27 -49c26 4 43 6 51 6c50.667 0 92 -20 124 -60c31.333 -40.667 47 -93.667 47 -159c0 -11.333 -1 -28.666 -3 -51.999l83 117c11.333 -42 17 -81.333 17 -118c0 -72 -15.333 -142 -46 -210
c-31.333 -70 -74 -130 -128 -180c-29.333 -25.333 -58.666 -45.333 -87.999 -60c-30 -14.667 -71.333 -28 -124 -40l60 116c-68.667 -35.333 -125 -53 -169 -53c-77.333 0 -129 45 -155 135zM979.987 138.001l-41.002 -56.002c-46 63.333 -69 130 -69 200
c0 58.667 11 116.334 33 173.001c22 57.333 52 109.333 90 156c36.667 46 78.667 82.667 126 110c46 26 91.667 39 137 39c20.667 0 48 -4.66699 82 -14l-26 -49c23.333 3.33301 40 5 50 5c33.333 0 63.333 -9.33301 90 -28c26.667 -19.333 46.667 -45 60 -77
c14 -32.667 21 -70.334 21 -113.001c0 6 -0.666992 -11.667 -2 -53l83 117c11.333 -42 17 -81.333 17 -118c0 -46.667 -7 -94 -21 -142c-15.333 -49.333 -35.666 -94.333 -60.999 -135c-26.667 -41.333 -57.667 -78.666 -93 -111.999c-26.667 -24.667 -54.667 -44 -84 -58
c-29.333 -15.333 -71.666 -29.666 -126.999 -42.999l59 116c-68.667 -35.333 -125 -53 -169 -53c-38.667 0 -70.667 11 -96 33c-25.333 21.333 -45 55.333 -59 102zM1098.99 1431l193 46l-377 -339h-27zM484.985 7.99902l-194 -44l408 552l-156 -100l667 948l179 47
l-621 -873l141 90z" />
    <glyph glyph-name="guilsinglleft" unicode="&#x2039;" horiz-adv-x="438" 
d="M246 467l99 -92l-26 -211l-187 179l-11 -14l-94 89l30 208l262 262l-28 -211l-143 -145l61 -58l202 292l-35 -160z" />
    <glyph glyph-name="guilsinglright" unicode="&#x203a;" horiz-adv-x="438" 
d="M17 773l26 141.999l61 -57c-26.667 -31.333 -55.667 -59.666 -87 -84.999zM106 638.999l36 208l185 -184l-39 -199l-255 -265l32 207l141 141zM407 599.999l15.998 21l-35 -232l-264 -252c36.667 76 77.334 151 122.001 225s98.334 153.333 161.001 238z" />
    <glyph glyph-name="trademark" unicode="&#x2122;" 
d="M82 1351v-1337h655v1337h-655zM751 0h-683v1365h683v-1365z" />
    <glyph glyph-name="partialdiff" unicode="&#x2202;" 
d="M82 1351v-1337h655v1337h-655zM751 0h-683v1365h683v-1365z" />
    <glyph glyph-name="Delta" unicode="&#x2206;" 
d="M82 1351v-1337h655v1337h-655zM751 0h-683v1365h683v-1365z" />
    <glyph glyph-name="product" unicode="&#x220f;" 
d="M82 1351v-1337h655v1337h-655zM751 0h-683v1365h683v-1365z" />
    <glyph glyph-name="fraction" unicode="&#x2215;" 
d="M82 1351v-1337h655v1337h-655zM751 0h-683v1365h683v-1365z" />
    <glyph glyph-name="radical" unicode="&#x221a;" 
d="M82 1351v-1337h655v1337h-655zM751 0h-683v1365h683v-1365z" />
    <glyph glyph-name="infinity" unicode="&#x221e;" 
d="M82 1351v-1337h655v1337h-655zM751 0h-683v1365h683v-1365z" />
    <glyph glyph-name="integral" unicode="&#x222b;" 
d="M82 1351v-1337h655v1337h-655zM751 0h-683v1365h683v-1365z" />
    <glyph glyph-name="approxequal" unicode="&#x2248;" 
d="M82 1351v-1337h655v1337h-655zM751 0h-683v1365h683v-1365z" />
    <glyph glyph-name="notequal" unicode="&#x2260;" 
d="M82 1351v-1337h655v1337h-655zM751 0h-683v1365h683v-1365z" />
    <glyph glyph-name="lessequal" unicode="&#x2264;" 
d="M82 1351v-1337h655v1337h-655zM751 0h-683v1365h683v-1365z" />
    <glyph glyph-name="greaterequal" unicode="&#x2265;" 
d="M82 1351v-1337h655v1337h-655zM751 0h-683v1365h683v-1365z" />
    <glyph glyph-name="lozenge" unicode="&#x25ca;" 
d="M82 1351v-1337h655v1337h-655zM751 0h-683v1365h683v-1365z" />
    <glyph glyph-name="apple" unicode="&#xf000;" 
d="M82 1351v-1337h655v1337h-655zM751 0h-683v1365h683v-1365z" />
    <glyph glyph-name="fi" unicode="&#xf001;" 
d="M82 1351v-1337h655v1337h-655zM751 0h-683v1365h683v-1365z" />
    <glyph glyph-name="fl" unicode="&#xf002;" 
d="M82 1351v-1337h655v1337h-655zM751 0h-683v1365h683v-1365z" />
    <glyph glyph-name="HT" horiz-adv-x="441" 
 />
    <glyph glyph-name="nonmarkingreturn" horiz-adv-x="441" 
 />
    </font>
</defs>
</svg>
